<?xml version="1.0" standalone="no"?>
<!DOCTYPE svg PUBLIC "-//W3C//DTD SVG 1.1//EN" "http://www.w3.org/Graphics/SVG/1.1/DTD/svg11.dtd" >
<svg xmlns="http://www.w3.org/2000/svg" xmlns:xlink="http://www.w3.org/1999/xlink" version="1.1">
<metadata>
Created by FontForge 20170910 at Fri Jul 20 03:09:41 2012
 By Jimmy Wärting
(c) 2002-2012 Typodermic Fonts Inc. See attached license agreement. If agreement is missing visit typodermicfonts.com for more info.
</metadata>
<defs>
<font id="Zorque-Regular" horiz-adv-x="747" >
  <font-face 
    font-family="Zorque"
    font-weight="400"
    font-stretch="normal"
    units-per-em="1000"
    panose-1="4 1 0 0 0 0 0 0 0 0"
    ascent="752"
    descent="-248"
    cap-height="707"
    bbox="-175 -234 1115 948"
    underline-thickness="20"
    underline-position="-143"
    unicode-range="U+0017-2265"
  />
<missing-glyph horiz-adv-x="676" 
d="M131 -110q-97 0 -97 84v768q0 85 97 85h413q98 0 98 -85v-768q0 -84 -98 -84h-413zM400 94q0 20 -8 37.5t-21.5 31t-31.5 21t-37 7.5q-20 0 -37.5 -7.5t-31 -21t-21.5 -31t-8 -37.5t8 -37.5t21.5 -31t31 -21.5t37.5 -8q19 0 37 8t31.5 21.5t21.5 31t8 37.5zM362 254
q218 0 218 224q0 226 -219 226h-165q-100 0 -100 -94v-4q2 -98 101 -98h175q38 0 38 -30q0 -29 -38 -29h-62q-101 0 -101 -97q0 -98 103 -98h50z" />
    <glyph glyph-name="copyright" unicode="&#x28;C&#x29;" horiz-adv-x="753" 
d="M377 711q73 0 138.5 -28t114.5 -77t77.5 -114t28.5 -140q0 -74 -28.5 -139.5t-77.5 -114t-114.5 -77t-138.5 -28.5q-75 0 -140 28.5t-114 77t-77 114t-28 139.5q0 75 28 140t77 114t114 77t140 28zM378 671q-66 0 -124 -25.5t-101 -69t-68 -101.5t-25 -124t25 -124
t68 -101t101 -68t124 -25t124.5 25t102 68t68.5 101t25 124t-25 124t-68.5 101.5t-102 69t-124.5 25.5zM292 349q0 -17 4.5 -33.5t14.5 -30.5t25 -24.5t35 -14.5q13 -3 29.5 -3.5t31 -4t24 -11.5t9.5 -26q0 -23 -16 -32t-39 -9q-39 0 -74.5 11t-63 34t-43.5 58.5t-16 85.5
q0 49 16 84.5t43.5 57.5t63 32.5t74.5 10.5q23 0 39 -9t16 -32q0 -20 -9.5 -28t-24 -10.5t-31 -2.5t-29.5 -3q-42 -9 -60.5 -37t-18.5 -63z" />
    <glyph glyph-name="registered" unicode="&#x28;R&#x29;" horiz-adv-x="561" 
d="M270 711q48 0 91 -18.5t75.5 -50.5t51 -75t18.5 -92q0 -48 -18.5 -90.5t-51 -75t-75.5 -51t-91 -18.5q-49 0 -92 18.5t-75 51t-50.5 75t-18.5 90.5q0 49 18.5 92t50.5 75t75 50.5t92 18.5zM270 686q-44 0 -81.5 -17t-65.5 -45.5t-44 -67t-16 -81.5q0 -44 16 -82t44 -66
t65.5 -44.5t81.5 -16.5q43 0 81.5 16.5t67 44.5t45 66t16.5 82q0 43 -16.5 81.5t-45 67t-67 45.5t-81.5 17zM296 623q49 0 71.5 -25.5t22.5 -60.5q0 -31 -15.5 -51.5t-43.5 -31.5l47 -74q6 -9 6 -19q0 -12 -8.5 -20t-18.5 -8q-15 0 -24 16l-58 103q-4 5 -5 10t-1 10
q0 15 10 18.5t22.5 5.5t22.5 9t10 29q0 20 -10.5 28.5t-28.5 8.5h-65v-208q0 -30 -29 -30t-29 30v232q0 28 28 28h96z" />
    <glyph glyph-name="uni2117" unicode="&#x28;P&#x29;" horiz-adv-x="753" 
d="M377 711q73 0 138.5 -28t114.5 -77t77.5 -114t28.5 -140q0 -74 -28.5 -139.5t-77.5 -114t-114.5 -77t-138.5 -28.5q-75 0 -140 28.5t-114 77t-77 114t-28 139.5q0 75 28 140t77 114t114 77t140 28zM378 671q-66 0 -124 -25.5t-101 -69t-68 -101.5t-25 -124t25 -124
t68 -101t101 -68t124 -25t124.5 25t102 68t68.5 101t25 124t-25 124t-68.5 101.5t-102 69t-124.5 25.5zM321 201q0 -38 -38 -38q-37 0 -37 37v304q0 37 35 37h113q66 0 98.5 -30t32.5 -84q0 -60 -32 -91t-92 -31q-17 0 -25.5 10.5t-8.5 25.5q0 22 14 28t31 9t31 10.5
t14 32.5q0 51 -56 51h-80v-271z" />
    <glyph glyph-name=".notdef" horiz-adv-x="676" 
d="M131 -110q-97 0 -97 84v768q0 85 97 85h413q98 0 98 -85v-768q0 -84 -98 -84h-413zM400 94q0 20 -8 37.5t-21.5 31t-31.5 21t-37 7.5q-20 0 -37.5 -7.5t-31 -21t-21.5 -31t-8 -37.5t8 -37.5t21.5 -31t31 -21.5t37.5 -8q19 0 37 8t31.5 21.5t21.5 31t8 37.5zM362 254
q218 0 218 224q0 226 -219 226h-165q-100 0 -100 -94v-4q2 -98 101 -98h175q38 0 38 -30q0 -29 -38 -29h-62q-101 0 -101 -97q0 -98 103 -98h50z" />
    <glyph glyph-name="uni0017" horiz-adv-x="234" 
 />
    <glyph glyph-name="space" unicode=" " horiz-adv-x="234" 
 />
    <glyph glyph-name="exclam" unicode="!" horiz-adv-x="270" 
d="M230 354q0 -23 -8 -41t-21.5 -30.5t-31 -19t-35.5 -6.5q-39 0 -68 25.5t-29 71.5v256q0 48 29 72.5t68 24.5q40 0 68 -24.5t28 -72.5v-256zM233 94q0 -20 -7.5 -37.5t-21 -31t-31 -21.5t-37.5 -8t-37.5 8t-31 21.5t-21 31t-7.5 37.5q0 19 7.5 37t21 31.5t31 21.5t37.5 8
t37.5 -8t31 -21.5t21 -31.5t7.5 -37z" />
    <glyph glyph-name="quotedbl" unicode="&#x22;" horiz-adv-x="448" 
d="M194 529q0 -42 -25 -63t-59 -21q-35 0 -60.5 21t-25.5 63v135q0 42 25.5 64.5t60.5 22.5q34 0 59 -22.5t25 -64.5v-135zM423 529q0 -42 -25 -63t-59 -21q-35 0 -60.5 21t-25.5 63v135q0 42 25.5 64.5t60.5 22.5q34 0 59 -22.5t25 -64.5v-135z" />
    <glyph glyph-name="numbersign" unicode="#" horiz-adv-x="707" 
d="M301 707q27 0 50.5 -17.5t23.5 -46.5q0 -7 -1.5 -12.5t-2.5 -10.5l-22 -78h108l32 115q14 50 59 50q27 0 50.5 -17.5t23.5 -46.5q0 -7 -1.5 -12.5t-2.5 -10.5l-22 -78h26q31 0 48.5 -20t17.5 -47q0 -26 -17.5 -45.5t-48.5 -19.5h-63l-25 -91h59q31 0 48.5 -20t17.5 -46
t-17.5 -46t-48.5 -20h-97l-39 -140q-8 -26 -24 -38.5t-35 -12.5q-29 0 -52.5 17.5t-23.5 44.5q0 9 1 14.5t3 10.5l31 104h-108l-39 -140q-8 -26 -24 -38.5t-35 -12.5q-29 0 -52.5 17.5t-23.5 44.5q0 9 1 14.5t3 10.5l31 104h-22q-30 0 -47 20t-17 46t17 46t47 20h59l25 91
h-54q-31 0 -48 19.5t-17 45.5q0 27 17 47t48 20h92l32 115q14 50 59 50zM287 319h107l24 91h-106z" />
    <glyph glyph-name="dollar" unicode="$" horiz-adv-x="627" 
d="M601 224q0 -224 -219 -224h-21v-16q0 -24 -15 -36t-32 -12q-18 0 -32.5 12t-14.5 36v16h-137q-93 0 -93 94v4q3 97 94 97h136v59h-33q-106 0 -156.5 57.5t-50.5 166.5q0 226 221 226h19v14q0 26 14.5 37t32.5 11q17 0 32 -11t15 -37v-14h102q92 0 92 -94v-4
q-2 -98 -94 -98h-100v-59h33q207 0 207 -225zM393 195q38 0 38 29q0 30 -38 30h-32v-59h32zM235 508q-39 0 -39 -30q0 -29 39 -29h32v59h-32z" />
    <glyph glyph-name="percent" unicode="%" horiz-adv-x="775" 
d="M589 707q13 0 26 -5.5t23.5 -15t17 -22t6.5 -25.5q0 -22 -15 -41l-428 -573q-22 -29 -52 -29q-15 0 -28 6t-22.5 15.5t-15.5 22t-6 25.5q0 19 16 41l428 571q22 30 50 30zM333 563q0 -28 -11 -53.5t-30.5 -45t-45.5 -31.5t-56 -12q-32 0 -58 11t-45.5 30.5t-30 45
t-10.5 55.5t11.5 56.5t31 46t45.5 31t56 11.5t56 -11.5t45.5 -31.5t30.5 -46t11 -56zM135 563q0 -23 16 -38.5t39 -15.5t39.5 15.5t16.5 38.5q0 24 -16.5 40t-39.5 16t-39 -16t-16 -40zM706 138q0 -29 -11 -54.5t-30.5 -45t-45.5 -31t-56 -11.5q-32 0 -58.5 11t-46 30
t-30 45t-10.5 56t11.5 56.5t31 46t46 31t56.5 11.5t56 -11.5t45.5 -31.5t30.5 -46.5t11 -55.5zM508 138q0 -23 16 -39t39 -16t39 16t16 39t-16 39t-39 16t-39 -16t-16 -39z" />
    <glyph glyph-name="ampersand" unicode="&#x26;" horiz-adv-x="718" 
d="M593 98q0 -26 -9 -44.5t-24 -30.5t-34 -17.5t-40 -5.5h-274q-47 0 -80 13.5t-54.5 38t-31.5 58t-10 74.5q0 69 36 113.5t102 54.5q-66 10 -102 53t-36 112q0 40 10 74.5t31.5 59.5t55.5 39t81 14h88q88 0 88 -98t-89 -98h-19q-39 0 -39 -30q0 -29 39 -29h117v16
q0 48 28.5 72t68.5 24q39 0 68 -24t29 -72v-16h17q91 0 91 -97q0 -98 -93 -98h-15v-156zM282 254q-39 0 -39 -30q0 -29 39 -29h117v59h-117z" />
    <glyph glyph-name="quotesingle" unicode="'" horiz-adv-x="219" 
d="M194 529q0 -42 -25 -63t-59 -21q-35 0 -60.5 21t-25.5 63v135q0 42 25.5 64.5t60.5 22.5q34 0 59 -22.5t25 -64.5v-135z" />
    <glyph glyph-name="parenleft" unicode="(" horiz-adv-x="348" 
d="M290 754q-90 0 -90 -55v-650q0 -73 90 -73q45 0 45 -49q0 -50 -45 -50h-15q-198 0 -198 170v652q0 155 192 155h21q45 0 45 -49q0 -51 -45 -51z" />
    <glyph glyph-name="parenright" unicode=")" horiz-adv-x="348" 
d="M122 754q-46 0 -46 51q0 49 46 49h21q191 0 191 -155v-652q0 -170 -198 -170h-14q-46 0 -46 50q0 49 46 49q90 0 90 73v650q0 55 -90 55z" />
    <glyph glyph-name="asterisk" unicode="*" horiz-adv-x="436" 
d="M267 689q7 18 32 18q15 0 27.5 -9.5t12.5 -26.5q0 -4 -2 -8t-4 -10l-50 -87h103q18 0 26.5 -11t8.5 -25q0 -13 -8.5 -24.5t-26.5 -11.5h-103l50 -86q2 -6 4 -10.5t2 -8.5q0 -17 -12.5 -26t-27.5 -9q-24 0 -32 17l-49 87l-49 -87q-9 -17 -33 -17q-14 0 -27 9t-13 26
q0 4 2 8.5t4 10.5l50 86h-103q-18 0 -26.5 11.5t-8.5 24.5q0 14 8.5 25t26.5 11h103l-50 87q-2 6 -4 10t-2 8q0 17 13 26.5t27 9.5q22 0 33 -18l49 -85z" />
    <glyph glyph-name="plus" unicode="+" horiz-adv-x="580" 
d="M207 269h-93q-38 0 -59.5 24t-21.5 56q0 34 21.5 59t59.5 25h93v92q0 38 24.5 60t56.5 22q34 0 58.5 -22t24.5 -60v-92h94q38 0 59.5 -25t21.5 -59q0 -32 -21.5 -56t-59.5 -24h-94v-94q0 -38 -24.5 -59.5t-58.5 -21.5q-32 0 -56.5 21.5t-24.5 59.5v94z" />
    <glyph glyph-name="comma" unicode="," horiz-adv-x="264" 
d="M200 -108q-9 -33 -30.5 -48.5t-47.5 -15.5q-38 0 -65 22t-27 57q0 19 4 26l36 133q18 65 79 65q45 0 66.5 -27t21.5 -66q0 -4 -2 -14z" />
    <glyph glyph-name="hyphen" unicode="-" horiz-adv-x="348" 
d="M100 269q-38 0 -59.5 24t-21.5 56q0 34 21.5 59t59.5 25h148q38 0 59.5 -25t21.5 -59q0 -32 -21.5 -56t-59.5 -24h-148z" />
    <glyph glyph-name="period" unicode="." horiz-adv-x="252" 
d="M223 93q0 -20 -8 -37.5t-21.5 -30.5t-31.5 -21t-37 -8q-20 0 -37.5 8t-30.5 21t-21 30.5t-8 37.5t8 37.5t21 31t30.5 21t37.5 7.5q19 0 37 -7.5t31.5 -21t21.5 -31t8 -37.5z" />
    <glyph glyph-name="slash" unicode="/" horiz-adv-x="368" 
d="M296 827q28 0 51 -17.5t23 -46.5q0 -6 -1 -11.5t-2 -10.5l-222 -782q-15 -51 -59 -51q-29 0 -52 17t-23 45q0 13 3 25l223 782q15 50 59 50z" />
    <glyph glyph-name="zero" unicode="0" horiz-adv-x="775" 
d="M28 352q0 75 28 139.5t77 112.5t114 75.5t140 27.5t140.5 -27.5t114 -75.5t77 -112.5t28.5 -139.5t-28.5 -140t-77 -113t-114 -75.5t-140.5 -27.5t-140 27.5t-114 75.5t-77 113t-28 140zM225 349q0 -34 13 -63t35 -50.5t51.5 -33.5t63.5 -12t63.5 12t52 33.5t35.5 50.5
t13 63t-13 63.5t-35.5 51t-52 33.5t-63.5 12t-63.5 -12t-51.5 -33.5t-35 -51t-13 -63.5z" />
    <glyph glyph-name="one" unicode="1" horiz-adv-x="381" 
d="M340 93q0 -48 -28.5 -72.5t-68.5 -24.5q-38 0 -67 25t-29 72v281q-24 -12 -49 -12q-20 0 -36.5 8t-28.5 21t-18.5 30.5t-6.5 36.5q0 21 8 41t25 37l133 131q40 40 83 40q38 0 60.5 -28.5t22.5 -79.5v-506z" />
    <glyph glyph-name="two" unicode="2" horiz-adv-x="649" 
d="M64 0q-25 0 -25 29v195q0 109 46 158t151 49h157q50 0 50 38q0 39 -50 39h-241q-94 0 -94 98t93 98h241q221 0 221 -226q0 -54 -9.5 -93.5t-32 -66t-60 -39t-92.5 -12.5h-165q-46 0 -46 -37v-35h303q55 0 78.5 -24t23.5 -73q0 -98 -103 -98h-446z" />
    <glyph glyph-name="three" unicode="3" horiz-adv-x="612" 
d="M28 98q0 97 94 97h239q21 0 30.5 13t9.5 27q0 15 -9.5 27.5t-30.5 12.5h-215q-68 0 -68 72q0 70 66 70h217q20 0 30 15t10 34q0 16 -9.5 29t-30.5 13h-244q-89 0 -89 98t88 98h309q37 0 65 -15.5t47 -41t28.5 -58.5t9.5 -67q0 -60 -25.5 -105.5t-79.5 -57.5
q27 -3 48.5 -18t36.5 -39t23.5 -55t8.5 -65q0 -37 -10 -70t-31 -58t-54.5 -39.5t-79.5 -14.5h-292q-92 0 -92 98z" />
    <glyph glyph-name="four" unicode="4" horiz-adv-x="613" 
d="M571 93q0 -48 -28.5 -72.5t-68.5 -24.5q-39 0 -68 24.5t-29 72.5v161h-254q-98 0 -98 98v259q0 48 29.5 72t68.5 24t68 -24t29 -72v-180h157v180q0 48 29 72t68 24q40 0 68.5 -24t28.5 -72v-518z" />
    <glyph glyph-name="five" unicode="5" horiz-adv-x="637" 
d="M605 225q0 -225 -219 -225h-240q-105 0 -105 98q0 49 27.5 73t78.5 24h234q54 0 54 40q0 41 -54 41h-295q-18 0 -28.5 11.5t-10.5 33.5v354q0 15 11.5 22t25.5 7h418q92 0 92 -98t-94 -98h-267v-71h165q103 0 155 -51.5t52 -160.5z" />
    <glyph glyph-name="six" unicode="6" horiz-adv-x="633" 
d="M598 224q0 -224 -220 -224h-135q-109 0 -158 55.5t-49 173.5v252q0 223 222 223h218q93 0 93 -98q0 -49 -24.5 -73.5t-69.5 -24.5h-208q-18 0 -29 -10.5t-11 -31.5v-35q9 5 20 7t22 2h121q208 0 208 -216zM381 195q42 0 42 50q0 51 -42 51h-115q-39 0 -39 -51
q0 -50 39 -50h115z" />
    <glyph glyph-name="seven" unicode="7" horiz-adv-x="601" 
d="M260 48q-18 -29 -41 -40.5t-45 -11.5q-19 0 -36.5 7t-31 19.5t-21.5 29t-8 36.5q0 9 4 25t15 32l237 363h-216q-48 0 -73 29t-25 69t25 69t73 29h382q40 0 65.5 -23t25.5 -65q0 -14 -4 -30t-14 -32z" />
    <glyph glyph-name="eight" unicode="8" horiz-adv-x="645" 
d="M210 0q-47 0 -80.5 14.5t-54.5 40t-30.5 60.5t-9.5 75q0 31 8.5 60.5t23.5 52.5t36.5 38t48.5 18q-54 12 -79.5 57.5t-25.5 105.5q0 39 9.5 72.5t28.5 58t47 38t64 13.5h251q37 0 64.5 -14t46.5 -38.5t28.5 -58t9.5 -71.5q0 -60 -25 -105.5t-79 -57.5q27 -3 48.5 -18
t36.5 -38t23 -52.5t8 -61.5q0 -40 -9.5 -74.5t-30.5 -60t-54 -40t-80 -14.5h-224zM260 508q-20 0 -29.5 -13t-9.5 -29q0 -19 10 -34t29 -15h123q19 0 29 15t10 34q0 16 -9 29t-30 13h-123zM260 275q-20 0 -29.5 -12.5t-9.5 -27.5q0 -14 9.5 -27t29.5 -13h123q21 0 30 13
t9 27q0 15 -9 27.5t-30 12.5h-123z" />
    <glyph glyph-name="nine" unicode="9" horiz-adv-x="634" 
d="M35 478q0 226 219 226h135q109 0 158 -56t49 -174v-252q0 -222 -221 -222h-218q-93 0 -93 98q0 49 24.5 73t69.5 24h208q17 0 28.5 10.5t11.5 30.5v35q-9 -4 -20.5 -5.5t-21.5 -1.5h-122q-207 0 -207 214zM252 508q-42 0 -42 -49q0 -52 42 -52h115q39 0 39 52
q0 49 -39 49h-115z" />
    <glyph glyph-name="colon" unicode=":" horiz-adv-x="288" 
d="M245 93q0 -20 -8 -37.5t-21.5 -31t-31.5 -21t-37 -7.5q-20 0 -37.5 7.5t-31 21t-21.5 31t-8 37.5t8 37.5t21.5 31t31 21t37.5 7.5q19 0 37 -7.5t31.5 -21t21.5 -31t8 -37.5zM243 472q0 -42 -28 -69.5t-68 -27.5q-20 0 -37.5 7.5t-31 20.5t-21.5 30.5t-8 38.5q0 19 8 37
t21.5 31.5t31 21.5t37.5 8t37.5 -8t30.5 -21.5t20.5 -31.5t7.5 -37z" />
    <glyph glyph-name="semicolon" unicode=";" horiz-adv-x="270" 
d="M236 470q0 -42 -28 -70t-68 -28q-20 0 -37.5 7.5t-31 20.5t-21.5 31t-8 39q0 19 8 37t21.5 31.5t31 21.5t37.5 8t37.5 -8t30.5 -21.5t20.5 -31.5t7.5 -37zM189 -108q-9 -33 -30.5 -48.5t-47.5 -15.5q-38 0 -64.5 22t-26.5 57q0 8 1 14.5t3 11.5l35 133q17 65 80 65
q37 0 62.5 -24t25.5 -59q0 -14 -3 -24z" />
    <glyph glyph-name="less" unicode="&#x3c;" horiz-adv-x="499" 
d="M380 216q12 -12 16.5 -25t4.5 -26q0 -30 -21.5 -51t-50.5 -21q-30 0 -51 21l-186 187q-13 13 -18 25t-5 26t5 25.5t18 24.5l186 187q23 23 51 23q15 0 28 -6t22.5 -16.5t15.5 -23.5t6 -27q0 -30 -21 -51l-137 -136z" />
    <glyph glyph-name="equal" unicode="=" horiz-adv-x="580" 
d="M114 127q-38 0 -59.5 24.5t-21.5 56.5q0 34 21.5 59t59.5 25h351q38 0 59.5 -25t21.5 -59q0 -32 -21.5 -56.5t-59.5 -24.5h-351zM114 410q-38 0 -59.5 24t-21.5 56q0 34 21.5 59t59.5 25h351q38 0 59.5 -25t21.5 -59q0 -32 -21.5 -56t-59.5 -24h-351z" />
    <glyph glyph-name="greater" unicode="&#x3e;" horiz-adv-x="499" 
d="M261 352l-137 136q-20 20 -20 51q0 14 5.5 27t15.5 23.5t22.5 16.5t27.5 6t27 -6t23 -17l188 -187q23 -23 23 -50q0 -28 -23 -51l-188 -187q-21 -21 -47 -21q-30 0 -52 20t-22 52q0 31 20 51z" />
    <glyph glyph-name="question" unicode="?" horiz-adv-x="636" 
d="M380 94q0 -20 -8 -37.5t-21.5 -31t-31.5 -21.5t-37 -8q-20 0 -37.5 8t-31 21.5t-21.5 31t-8 37.5t8 37.5t21.5 31t31 21t37.5 7.5q19 0 37 -7.5t31.5 -21t21.5 -31t8 -37.5zM292 254q-103 0 -103 98q0 97 101 97h102q38 0 38 29q0 30 -38 30h-255q-99 0 -101 98v4
q0 94 100 94h245q219 0 219 -226q0 -224 -218 -224h-90z" />
    <glyph glyph-name="at" unicode="@" horiz-adv-x="727" 
d="M413 363q-10 8 -23.5 13.5t-26.5 5.5q-61 0 -61 -55q0 -50 56 -50q32 0 55 23v63zM495 295q0 -22 14 -31t34 -9q24 0 40 23t16 86q0 55 -13 101t-41 79.5t-73 52t-108 18.5q-50 0 -93 -17t-75 -50.5t-50.5 -83t-18.5 -114.5q0 -68 16.5 -115t46 -79t70.5 -50.5t91 -27.5
q23 -5 35 -15.5t12 -33.5q0 -44 -51 -44q-77 0 -136 32t-99.5 83.5t-61 117t-20.5 133.5q0 85 27.5 151t74 111.5t107 69.5t125.5 24q77 0 138.5 -21t104.5 -63.5t66 -107t23 -152.5q0 -25 -7 -58t-24.5 -63t-48 -50.5t-77.5 -20.5q-35 0 -62 13.5t-41 34.5q-20 -13 -41 -18
t-43 -5q-27 0 -51 8.5t-42 25.5t-28.5 41t-10.5 56q0 66 34 100.5t97 34.5q20 0 36 -3.5t30 -11.5q10 15 40 15q38 0 38 -41v-126z" />
    <glyph glyph-name="A" unicode="A" horiz-adv-x="694" 
d="M666 128q4 -10 5.5 -20t1.5 -18q0 -22 -9 -39.5t-24 -29.5t-34 -18.5t-39 -6.5q-57 0 -83 63l-14 34h-247l-16 -34q-30 -63 -86 -63q-20 0 -38.5 7t-32.5 20t-23 30.5t-9 38.5q0 9 0.5 18t5.5 18l107 237q14 32 36 48t49 16q21 0 39.5 -7t33 -20t23 -30t8.5 -36
q0 -22 -7 -39l-11 -26h95l-127 303q-5 11 -6 20t-1 18q0 21 8.5 38t23 30t32.5 20t38 7q28 0 50.5 -16t36.5 -48z" />
    <glyph glyph-name="B" unicode="B" horiz-adv-x="636" 
d="M227 508v-91h145q20 0 30 15t10 34q0 16 -9.5 29t-30.5 13h-145zM227 275v-80h145q21 0 30.5 13t9.5 27q0 15 -9.5 27.5t-30.5 12.5h-145zM41 606q0 98 88 98h307q37 0 65 -15.5t47 -41t28.5 -58.5t9.5 -67q0 -60 -25.5 -105.5t-79.5 -57.5q27 -3 48.5 -18t36.5 -39
t23.5 -55t8.5 -65q0 -37 -10 -70t-31 -58t-54.5 -39.5t-79.5 -14.5h-289q-93 0 -93 99v507z" />
    <glyph glyph-name="C" unicode="C" horiz-adv-x="722" 
d="M253 0q-108 0 -163 56.5t-55 170.5v250q0 114 55 170.5t163 56.5h324q63 0 91 -24.5t28 -75.5t-28 -74t-91 -23h-319q-28 0 -29 -27v-253q0 -29 29 -29h322q63 0 89.5 -24.5t26.5 -74.5q0 -51 -26.5 -75t-89.5 -24h-327z" />
    <glyph glyph-name="D" unicode="D" horiz-adv-x="675" 
d="M234 196h77q34 0 63.5 11t51.5 31t34.5 49t12.5 65t-12 64.5t-34 49t-51.5 31t-65.5 10.5h-76v-311zM40 606q0 18 7.5 35.5t21 31.5t32 22.5t40.5 8.5h154q87 0 156.5 -28t118 -76t75 -111.5t26.5 -134.5q0 -75 -27 -138.5t-75 -110t-114.5 -74t-144.5 -31.5h-169
q-48 0 -74.5 26t-26.5 72v508z" />
    <glyph glyph-name="E" unicode="E" horiz-adv-x="662" 
d="M137 0q-97 0 -97 98v508q0 98 97 98h388q46 0 72 -28.5t26 -69.5q0 -39 -26 -68t-72 -29h-292v-60h292q46 0 72 -28.5t26 -68.5t-26 -68.5t-72 -28.5h-292v-59h292q46 0 72 -29t26 -69q0 -41 -26 -69.5t-72 -28.5h-388z" />
    <glyph glyph-name="F" unicode="F" horiz-adv-x="635" 
d="M233 255v-162q0 -47 -29 -72t-67 -25q-39 0 -68 24.5t-29 72.5v513q0 98 97 98h388q46 0 72 -28.5t26 -69.5q0 -39 -26 -68t-72 -29h-292v-60h292q46 0 72 -28.5t26 -68.5t-26 -68.5t-72 -28.5h-292z" />
    <glyph glyph-name="G" unicode="G" horiz-adv-x="735" 
d="M696 97q0 -48 -28 -72t-97 -24h-318q-108 0 -163 56.5t-55 170.5v249q0 114 55 170.5t163 56.5h326q59 0 88 -24t29 -75q0 -98 -117 -98h-321q-13 0 -21 -6.5t-8 -20.5v-252q0 -29 29 -29h245v137q0 48 28.5 72t69.5 24q38 0 66.5 -24t28.5 -72v-239z" />
    <glyph glyph-name="H" unicode="H" horiz-adv-x="745" 
d="M704 93q0 -48 -29 -72.5t-68 -24.5q-40 0 -68.5 24.5t-28.5 72.5v162h-276v-162q0 -48 -28.5 -72.5t-68.5 -24.5q-39 0 -68 24.5t-29 72.5v517q0 48 29 72.5t68 24.5q40 0 68.5 -24.5t28.5 -72.5v-161h276v161q0 48 28.5 72.5t68.5 24.5q39 0 68 -24.5t29 -72.5v-517z
" />
    <glyph glyph-name="I" unicode="I" horiz-adv-x="274" 
d="M233 93q0 -48 -29 -72.5t-68 -24.5q-40 0 -68.5 24.5t-28.5 72.5v518q0 46 28.5 71t68.5 25q39 0 68 -25t29 -71v-518z" />
    <glyph glyph-name="J" unicode="J" horiz-adv-x="507" 
d="M472 351q0 -80 -20 -145t-60 -111t-100 -70.5t-140 -24.5h-46q-46 0 -72 29t-26 69t26 68.5t72 28.5h29q35 0 62 7t45.5 23.5t28 44.5t9.5 69v272q0 46 28.5 71t67.5 25t67.5 -25t28.5 -71v-260z" />
    <glyph glyph-name="K" unicode="K" horiz-adv-x="595" 
d="M234 93q0 -48 -29 -72.5t-68 -24.5q-40 0 -68.5 24.5t-28.5 72.5v518q0 46 28.5 71t68.5 25q39 0 68 -25t29 -71v-166l159 225q13 19 30.5 28t44.5 9q48 0 74.5 -27.5t26.5 -69.5q0 -36 -22 -61l-163 -184l164 -210q23 -29 23 -61q0 -45 -28 -71.5t-73 -26.5
q-22 0 -41.5 9t-33.5 29l-161 225v-166z" />
    <glyph glyph-name="L" unicode="L" horiz-adv-x="535" 
d="M137 0q-97 0 -97 98v512q0 48 29 72.5t68 24.5q38 0 67 -25t29 -72v-414h198q45 0 68.5 -29t23.5 -69q0 -41 -23.5 -69.5t-68.5 -28.5h-294z" />
    <glyph glyph-name="M" unicode="M" horiz-adv-x="861" 
d="M41 642q0 62 62 62h491q33 0 61 -15.5t39 -58.5l143 -512q2 -8 2.5 -14.5t0.5 -14.5q0 -42 -28 -67.5t-68 -25.5q-35 0 -60 18t-35 54l-123 441h-51v-416q0 -48 -28.5 -72.5t-68.5 -24.5t-69 24.5t-29 72.5v416h-46v-416q0 -48 -28.5 -72.5t-67.5 -24.5q-40 0 -68.5 24.5
t-28.5 72.5v549z" />
    <glyph glyph-name="N" unicode="N" horiz-adv-x="755" 
d="M259 507q-26 0 -26 -26v-383q0 -54 -22.5 -78.5t-73.5 -24.5q-97 0 -97 103v544q0 62 60 62h552q62 0 62 -62v-544q0 -102 -97 -102t-97 102v383q0 26 -25 26h-236z" />
    <glyph glyph-name="O" unicode="O" 
d="M710 227q0 -114 -55 -170.5t-163 -56.5h-239q-108 0 -163 56.5t-55 170.5v250q0 114 55 170.5t163 56.5h239q108 0 163 -56.5t55 -170.5v-250zM259 507q-14 0 -22 -6.5t-8 -20.5v-253q0 -29 30 -29h227q29 0 29 29v250q0 30 -29 30h-227z" />
    <glyph glyph-name="P" unicode="P" horiz-adv-x="617" 
d="M235 96q0 -100 -97 -100q-50 0 -72.5 24.5t-22.5 75.5v235q0 60 26 89t83 29h245q39 0 39 30t-39 30h-261q-46 0 -70.5 24.5t-24.5 75.5q0 95 93 95h252q219 0 219 -225q0 -224 -217 -224h-153v-159z" />
    <glyph glyph-name="Q" unicode="Q" 
d="M710 227q0 -114 -55 -170.5t-163 -56.5h-17v-85q0 -25 -8.5 -43.5t-22 -31t-31 -19t-35.5 -6.5t-35.5 6.5t-31 19t-22 31t-8.5 43.5v85h-28q-108 0 -163 56.5t-55 170.5v250q0 114 55 170.5t163 56.5h239q108 0 163 -56.5t55 -170.5v-250zM259 507q-14 0 -22 -6.5
t-8 -20.5v-253q0 -29 30 -29h227q29 0 29 29v250q0 30 -29 30h-227z" />
    <glyph glyph-name="R" unicode="R" horiz-adv-x="617" 
d="M590 479q0 -220 -207 -224h-20l83 -79q20 -19 29 -39.5t9 -38.5q0 -17 -6 -35t-18 -33t-29 -24.5t-38 -9.5t-43.5 8.5t-42.5 28.5l-233 229q-12 11 -21 20.5t-14.5 20t-8.5 22.5t-3 29q0 43 24 69t75 26h256q38 0 38 30t-38 30h-262q-46 0 -70.5 24.5t-24.5 75.5
q0 95 94 95h252q219 0 219 -225z" />
    <glyph glyph-name="S" unicode="S" horiz-adv-x="571" 
d="M544 224q0 -224 -219 -224h-193q-24 0 -42 8.5t-30 22t-18 31t-6 36.5q0 18 6 35.5t18.5 31t31 22t42.5 8.5h202q20 0 29.5 11.5t9.5 24.5q0 14 -9.5 26t-29.5 12h-100q-103 0 -155 50t-52 159q0 226 221 226h156q25 0 44 -8.5t32 -22t19.5 -31t6.5 -35.5t-6.5 -36
t-19.5 -32t-32.5 -22.5t-44.5 -8.5h-168q-20 0 -29 -11.5t-9 -25.5q0 -13 9 -24.5t29 -11.5h100q106 0 156.5 -51t50.5 -160z" />
    <glyph glyph-name="T" unicode="T" horiz-adv-x="558" 
d="M375 93q0 -48 -29 -72.5t-69 -24.5q-39 0 -67.5 24.5t-28.5 72.5v415h-68q-46 0 -71.5 29t-25.5 69t25.5 69t71.5 29h328q46 0 72 -29t26 -69t-26 -69t-72 -29h-66v-415z" />
    <glyph glyph-name="U" unicode="U" horiz-adv-x="756" 
d="M496 197q24 0 24 22v385q0 54 23 78.5t73 24.5q99 0 99 -103v-542q0 -62 -60 -62h-554q-61 0 -61 62v542q0 102 97 102t97 -102v-381q0 -26 25 -26h237z" />
    <glyph glyph-name="V" unicode="V" horiz-adv-x="671" 
d="M327 293l139 352q13 32 37 47t50 15q48 0 76.5 -25t28.5 -67q0 -20 -9 -39l-233 -519q-12 -26 -32.5 -43.5t-59.5 -17.5t-58 17.5t-30 44.5l-213 518q-4 9 -6.5 18.5t-2.5 20.5q0 40 28.5 66t76.5 26q29 0 52 -15t34 -47z" />
    <glyph glyph-name="W" unicode="W" horiz-adv-x="863" 
d="M41 610q0 48 28.5 72.5t69.5 24.5q38 0 67 -25t29 -72v-414h61v414q0 48 28.5 72.5t68.5 24.5q39 0 67.5 -24.5t28.5 -72.5v-414h37l124 439q11 37 35 54.5t53 17.5q20 0 39 -6.5t33.5 -18.5t23 -29t8.5 -38q0 -13 -5 -30l-143 -511q-6 -23 -17.5 -37t-25.5 -22.5
t-29 -11.5t-28 -3h-455q-98 0 -98 98v512z" />
    <glyph glyph-name="X" unicode="X" horiz-adv-x="592" 
d="M371 657q29 50 81 50q54 0 78.5 -25t24.5 -60q0 -24 -4 -37.5t-12 -25.5l-141 -208l141 -208q16 -24 16 -50q0 -40 -27 -68.5t-70 -28.5q-32 0 -52.5 12.5t-34.5 37.5l-76 134l-75 -134q-15 -26 -37 -38t-55 -12q-38 0 -65 25t-27 67q0 12 4.5 27t12.5 28l140 208
l-140 208q-7 10 -12 21.5t-5 31.5q0 39 25 67t79 28q52 0 80 -50l75 -135z" />
    <glyph glyph-name="Y" unicode="Y" horiz-adv-x="576" 
d="M375 657q15 26 37.5 38t45.5 12q19 0 37 -7.5t32 -20t22.5 -30t8.5 -37.5q0 -27 -16 -53l-156 -254v-212q0 -48 -29 -72.5t-68 -24.5q-40 0 -68.5 24.5t-28.5 72.5v212l-158 255q-16 25 -16 49q0 20 8.5 38t22.5 31.5t32 21t38 7.5q21 0 44 -11.5t38 -37.5l87 -152z" />
    <glyph glyph-name="Z" unicode="Z" horiz-adv-x="619" 
d="M494 195q46 0 72 -28.5t26 -68.5t-26 -69t-72 -29h-370q-48 0 -71.5 25.5t-23.5 58.5q0 20 5.5 39.5t21.5 40.5l263 344h-190q-46 0 -71.5 29t-25.5 69t25.5 69t71.5 29h365q24 0 42 -7t29 -19t16.5 -27t5.5 -30q0 -25 -6 -40.5t-17 -29.5l-256 -356h186z" />
    <glyph glyph-name="bracketleft" unicode="[" horiz-adv-x="347" 
d="M217 754v-778h60q50 0 50 -49q0 -50 -50 -50h-146q-18 0 -28 8t-10 34v893q0 26 8 34t30 8h149q47 0 47 -47q0 -53 -47 -53h-63z" />
    <glyph glyph-name="backslash" unicode="\" horiz-adv-x="368" 
d="M84 827q19 0 35 -12.5t24 -37.5l224 -782q3 -12 3 -25q0 -28 -23 -45t-52 -17q-44 0 -59 51l-222 782q-3 10 -3 22q0 29 23 46.5t50 17.5z" />
    <glyph glyph-name="bracketright" unicode="]" horiz-adv-x="347" 
d="M139 754q-47 0 -47 53q0 47 47 47h148q23 0 30.5 -8t7.5 -34v-893q0 -26 -9.5 -34t-28.5 -8h-146q-49 0 -49 50q0 49 49 49h61v778h-63z" />
    <glyph glyph-name="asciicircum" unicode="^" horiz-adv-x="553" 
d="M140 395q-26 -21 -51 -21q-29 0 -50 21.5t-21 50.5t21 50l186 187q24 24 51 24t51 -24l187 -187q22 -22 22 -50q0 -15 -6 -28t-16 -22.5t-23 -15.5t-27 -6q-30 0 -51 21l-137 136z" />
    <glyph glyph-name="underscore" unicode="_" horiz-adv-x="703" 
d="M97 -214q-45 0 -71 28.5t-26 67.5t26 67.5t71 28.5h508q48 0 73 -28.5t25 -67.5t-25 -67.5t-73 -28.5h-508z" />
    <glyph glyph-name="grave" unicode="`" horiz-adv-x="257" 
d="M42 865q-8 8 -11 16.5t-3 16.5q0 20 15.5 35t35.5 15q18 0 32 -15l103 -106q14 -14 14 -33q0 -20 -15 -35.5t-35 -15.5q-19 0 -35 16z" />
    <glyph glyph-name="a" unicode="a" horiz-adv-x="694" 
d="M18 0zM666 128q4 -10 5.5 -20t1.5 -18q0 -22 -9 -39.5t-24 -29.5t-34 -18.5t-39 -6.5q-57 0 -83 63l-14 34h-247l-16 -34q-30 -63 -86 -63q-20 0 -38.5 7t-32.5 20t-23 30.5t-9 38.5q0 9 0.5 18t5.5 18l107 237q14 32 36 48t49 16q21 0 39.5 -7t33 -20t23 -30t8.5 -36
q0 -22 -7 -39l-11 -26h95l-127 303q-5 11 -6 20t-1 18q0 21 8.5 38t23 30t32.5 20t38 7q28 0 50.5 -16t36.5 -48z" />
    <glyph glyph-name="b" unicode="b" horiz-adv-x="636" 
d="M41 0zM227 508v-91h145q20 0 30 15t10 34q0 16 -9.5 29t-30.5 13h-145zM227 275v-80h145q21 0 30.5 13t9.5 27q0 15 -9.5 27.5t-30.5 12.5h-145zM41 606q0 98 88 98h307q37 0 65 -15.5t47 -41t28.5 -58.5t9.5 -67q0 -60 -25.5 -105.5t-79.5 -57.5q27 -3 48.5 -18
t36.5 -39t23.5 -55t8.5 -65q0 -37 -10 -70t-31 -58t-54.5 -39.5t-79.5 -14.5h-289q-93 0 -93 99v507z" />
    <glyph glyph-name="c" unicode="c" horiz-adv-x="722" 
d="M35 0zM253 0q-108 0 -163 56.5t-55 170.5v250q0 114 55 170.5t163 56.5h324q63 0 91 -24.5t28 -75.5t-28 -74t-91 -23h-319q-28 0 -29 -27v-253q0 -29 29 -29h322q63 0 89.5 -24.5t26.5 -74.5q0 -51 -26.5 -75t-89.5 -24h-327z" />
    <glyph glyph-name="d" unicode="d" horiz-adv-x="675" 
d="M40 0zM234 196h77q34 0 63.5 11t51.5 31t34.5 49t12.5 65t-12 64.5t-34 49t-51.5 31t-65.5 10.5h-76v-311zM40 606q0 18 7.5 35.5t21 31.5t32 22.5t40.5 8.5h154q87 0 156.5 -28t118 -76t75 -111.5t26.5 -134.5q0 -75 -27 -138.5t-75 -110t-114.5 -74t-144.5 -31.5h-169
q-48 0 -74.5 26t-26.5 72v508z" />
    <glyph glyph-name="e" unicode="e" horiz-adv-x="662" 
d="M40 0zM137 0q-97 0 -97 98v508q0 98 97 98h388q46 0 72 -28.5t26 -69.5q0 -39 -26 -68t-72 -29h-292v-60h292q46 0 72 -28.5t26 -68.5t-26 -68.5t-72 -28.5h-292v-59h292q46 0 72 -29t26 -69q0 -41 -26 -69.5t-72 -28.5h-388z" />
    <glyph glyph-name="f" unicode="f" horiz-adv-x="635" 
d="M40 0zM233 255v-162q0 -47 -29 -72t-67 -25q-39 0 -68 24.5t-29 72.5v513q0 98 97 98h388q46 0 72 -28.5t26 -69.5q0 -39 -26 -68t-72 -29h-292v-60h292q46 0 72 -28.5t26 -68.5t-26 -68.5t-72 -28.5h-292z" />
    <glyph glyph-name="g" unicode="g" horiz-adv-x="735" 
d="M35 1zM696 97q0 -48 -28 -72t-97 -24h-318q-108 0 -163 56.5t-55 170.5v249q0 114 55 170.5t163 56.5h326q59 0 88 -24t29 -75q0 -98 -117 -98h-321q-13 0 -21 -6.5t-8 -20.5v-252q0 -29 29 -29h245v137q0 48 28.5 72t69.5 24q38 0 66.5 -24t28.5 -72v-239z" />
    <glyph glyph-name="h" unicode="h" horiz-adv-x="745" 
d="M40 0zM704 93q0 -48 -29 -72.5t-68 -24.5q-40 0 -68.5 24.5t-28.5 72.5v162h-276v-162q0 -48 -28.5 -72.5t-68.5 -24.5q-39 0 -68 24.5t-29 72.5v517q0 48 29 72.5t68 24.5q40 0 68.5 -24.5t28.5 -72.5v-161h276v161q0 48 28.5 72.5t68.5 24.5q39 0 68 -24.5t29 -72.5
v-517z" />
    <glyph glyph-name="i" unicode="i" horiz-adv-x="274" 
d="M39 0zM233 93q0 -48 -29 -72.5t-68 -24.5q-40 0 -68.5 24.5t-28.5 72.5v518q0 46 28.5 71t68.5 25q39 0 68 -25t29 -71v-518z" />
    <glyph glyph-name="j" unicode="j" horiz-adv-x="507" 
d="M8 0zM472 351q0 -80 -20 -145t-60 -111t-100 -70.5t-140 -24.5h-46q-46 0 -72 29t-26 69t26 68.5t72 28.5h29q35 0 62 7t45.5 23.5t28 44.5t9.5 69v272q0 46 28.5 71t67.5 25t67.5 -25t28.5 -71v-260z" />
    <glyph glyph-name="k" unicode="k" horiz-adv-x="595" 
d="M40 0zM234 93q0 -48 -29 -72.5t-68 -24.5q-40 0 -68.5 24.5t-28.5 72.5v518q0 46 28.5 71t68.5 25q39 0 68 -25t29 -71v-166l159 225q13 19 30.5 28t44.5 9q48 0 74.5 -27.5t26.5 -69.5q0 -36 -22 -61l-163 -184l164 -210q23 -29 23 -61q0 -45 -28 -71.5t-73 -26.5
q-22 0 -41.5 9t-33.5 29l-161 225v-166z" />
    <glyph glyph-name="l" unicode="l" horiz-adv-x="535" 
d="M40 0zM137 0q-97 0 -97 98v512q0 48 29 72.5t68 24.5q38 0 67 -25t29 -72v-414h198q45 0 68.5 -29t23.5 -69q0 -41 -23.5 -69.5t-68.5 -28.5h-294z" />
    <glyph glyph-name="m" unicode="m" horiz-adv-x="861" 
d="M41 0zM41 642q0 62 62 62h491q33 0 61 -15.5t39 -58.5l143 -512q2 -8 2.5 -14.5t0.5 -14.5q0 -42 -28 -67.5t-68 -25.5q-35 0 -60 18t-35 54l-123 441h-51v-416q0 -48 -28.5 -72.5t-68.5 -24.5t-69 24.5t-29 72.5v416h-46v-416q0 -48 -28.5 -72.5t-67.5 -24.5
q-40 0 -68.5 24.5t-28.5 72.5v549z" />
    <glyph glyph-name="n" unicode="n" horiz-adv-x="755" 
d="M40 0zM259 507q-26 0 -26 -26v-383q0 -54 -22.5 -78.5t-73.5 -24.5q-97 0 -97 103v544q0 62 60 62h552q62 0 62 -62v-544q0 -102 -97 -102t-97 102v383q0 26 -25 26h-236z" />
    <glyph glyph-name="o" unicode="o" 
d="M35 0zM710 227q0 -114 -55 -170.5t-163 -56.5h-239q-108 0 -163 56.5t-55 170.5v250q0 114 55 170.5t163 56.5h239q108 0 163 -56.5t55 -170.5v-250zM259 507q-14 0 -22 -6.5t-8 -20.5v-253q0 -29 30 -29h227q29 0 29 29v250q0 30 -29 30h-227z" />
    <glyph glyph-name="p" unicode="p" horiz-adv-x="617" 
d="M41 0zM235 96q0 -100 -97 -100q-50 0 -72.5 24.5t-22.5 75.5v235q0 60 26 89t83 29h245q39 0 39 30t-39 30h-261q-46 0 -70.5 24.5t-24.5 75.5q0 95 93 95h252q219 0 219 -225q0 -224 -217 -224h-153v-159z" />
    <glyph glyph-name="q" unicode="q" 
d="M35 0zM710 227q0 -114 -55 -170.5t-163 -56.5h-17v-85q0 -25 -8.5 -43.5t-22 -31t-31 -19t-35.5 -6.5t-35.5 6.5t-31 19t-22 31t-8.5 43.5v85h-28q-108 0 -163 56.5t-55 170.5v250q0 114 55 170.5t163 56.5h239q108 0 163 -56.5t55 -170.5v-250zM259 507q-14 0 -22 -6.5
t-8 -20.5v-253q0 -29 30 -29h227q29 0 29 29v250q0 30 -29 30h-227z" />
    <glyph glyph-name="r" unicode="r" horiz-adv-x="617" 
d="M25 0zM590 479q0 -220 -207 -224h-20l83 -79q20 -19 29 -39.5t9 -38.5q0 -17 -6 -35t-18 -33t-29 -24.5t-38 -9.5t-43.5 8.5t-42.5 28.5l-233 229q-12 11 -21 20.5t-14.5 20t-8.5 22.5t-3 29q0 43 24 69t75 26h256q38 0 38 30t-38 30h-262q-46 0 -70.5 24.5t-24.5 75.5
q0 95 94 95h252q219 0 219 -225z" />
    <glyph glyph-name="s" unicode="s" horiz-adv-x="571" 
d="M29 0zM544 224q0 -224 -219 -224h-193q-24 0 -42 8.5t-30 22t-18 31t-6 36.5q0 18 6 35.5t18.5 31t31 22t42.5 8.5h202q20 0 29.5 11.5t9.5 24.5q0 14 -9.5 26t-29.5 12h-100q-103 0 -155 50t-52 159q0 226 221 226h156q25 0 44 -8.5t32 -22t19.5 -31t6.5 -35.5t-6.5 -36
t-19.5 -32t-32.5 -22.5t-44.5 -8.5h-168q-20 0 -29 -11.5t-9 -25.5q0 -13 9 -24.5t29 -11.5h100q106 0 156.5 -51t50.5 -160z" />
    <glyph glyph-name="t" unicode="t" horiz-adv-x="558" 
d="M16 0zM375 93q0 -48 -29 -72.5t-69 -24.5q-39 0 -67.5 24.5t-28.5 72.5v415h-68q-46 0 -71.5 29t-25.5 69t25.5 69t71.5 29h328q46 0 72 -29t26 -69t-26 -69t-72 -29h-66v-415z" />
    <glyph glyph-name="u" unicode="u" horiz-adv-x="756" 
d="M40 0zM496 197q24 0 24 22v385q0 54 23 78.5t73 24.5q99 0 99 -103v-542q0 -62 -60 -62h-554q-61 0 -61 62v542q0 102 97 102t97 -102v-381q0 -26 25 -26h237z" />
    <glyph glyph-name="v" unicode="v" horiz-adv-x="671" 
d="M14 0zM327 293l139 352q13 32 37 47t50 15q48 0 76.5 -25t28.5 -67q0 -20 -9 -39l-233 -519q-12 -26 -32.5 -43.5t-59.5 -17.5t-58 17.5t-30 44.5l-213 518q-4 9 -6.5 18.5t-2.5 20.5q0 40 28.5 66t76.5 26q29 0 52 -15t34 -47z" />
    <glyph glyph-name="w" unicode="w" horiz-adv-x="863" 
d="M41 0zM41 610q0 48 28.5 72.5t69.5 24.5q38 0 67 -25t29 -72v-414h61v414q0 48 28.5 72.5t68.5 24.5q39 0 67.5 -24.5t28.5 -72.5v-414h37l124 439q11 37 35 54.5t53 17.5q20 0 39 -6.5t33.5 -18.5t23 -29t8.5 -38q0 -13 -5 -30l-143 -511q-6 -23 -17.5 -37t-25.5 -22.5
t-29 -11.5t-28 -3h-455q-98 0 -98 98v512z" />
    <glyph glyph-name="x" unicode="x" horiz-adv-x="592" 
d="M36 0zM371 657q29 50 81 50q54 0 78.5 -25t24.5 -60q0 -24 -4 -37.5t-12 -25.5l-141 -208l141 -208q16 -24 16 -50q0 -40 -27 -68.5t-70 -28.5q-32 0 -52.5 12.5t-34.5 37.5l-76 134l-75 -134q-15 -26 -37 -38t-55 -12q-38 0 -65 25t-27 67q0 12 4.5 27t12.5 28l140 208
l-140 208q-7 10 -12 21.5t-5 31.5q0 39 25 67t79 28q52 0 80 -50l75 -135z" />
    <glyph glyph-name="y" unicode="y" horiz-adv-x="576" 
d="M18 0zM375 657q15 26 37.5 38t45.5 12q19 0 37 -7.5t32 -20t22.5 -30t8.5 -37.5q0 -27 -16 -53l-156 -254v-212q0 -48 -29 -72.5t-68 -24.5q-40 0 -68.5 24.5t-28.5 72.5v212l-158 255q-16 25 -16 49q0 20 8.5 38t22.5 31.5t32 21t38 7.5q21 0 44 -11.5t38 -37.5l87 -152
z" />
    <glyph glyph-name="z" unicode="z" horiz-adv-x="619" 
d="M29 0zM494 195q46 0 72 -28.5t26 -68.5t-26 -69t-72 -29h-370q-48 0 -71.5 25.5t-23.5 58.5q0 20 5.5 39.5t21.5 40.5l263 344h-190q-46 0 -71.5 29t-25.5 69t25.5 69t71.5 29h365q24 0 42 -7t29 -19t16.5 -27t5.5 -30q0 -25 -6 -40.5t-17 -29.5l-256 -356h186z" />
    <glyph glyph-name="braceleft" unicode="{" horiz-adv-x="358" 
d="M228 -123q-144 0 -144 88v328q0 25 -12 25q-53 0 -53 51q0 52 53 52q12 0 12 20v325q0 88 151 88h14q50 0 50 -52q0 -48 -50 -48h-39q-23 0 -23 -18v-285q0 -52 -64 -85q64 -37 64 -86v-299q0 -5 23 -5h32q46 0 46 -49q0 -50 -46 -50h-14z" />
    <glyph glyph-name="bar" unicode="|" horiz-adv-x="369" 
d="M184 827q28 0 48 -16t20 -51v-782q0 -32 -20 -49t-48 -17t-47.5 17t-19.5 49v782q0 35 19.5 51t47.5 16z" />
    <glyph glyph-name="braceright" unicode="}" horiz-adv-x="358" 
d="M89 854q144 0 144 -88v-327q0 -25 13 -25q53 0 53 -51q0 -52 -53 -52q-13 0 -13 -21v-325q0 -88 -151 -88h-13q-50 0 -50 52q0 48 50 48h39q22 0 22 18v286q0 50 65 85q-65 36 -65 86v299q0 4 -22 4h-33q-46 0 -46 50q0 49 46 49h14z" />
    <glyph glyph-name="asciitilde" unicode="~" horiz-adv-x="623" 
d="M468 436q21 22 40 22q23 0 42 -16.5t19 -42.5q0 -29 -14.5 -51.5t-37 -38.5t-50 -24.5t-54.5 -8.5t-55 9t-54 19.5t-51 19.5t-46 9q-10 0 -17 -2t-14 -6.5t-15.5 -12.5t-20.5 -20q-22 -22 -40 -22q-23 0 -42 16.5t-19 42.5q0 28 14 51t36.5 39t50.5 24.5t55 8.5t53.5 -9
t53 -19.5t51.5 -19.5t48 -9q10 0 17 2t14 6.5t15.5 12.5t20.5 20z" />
    <glyph glyph-name="nonbreakingspace" unicode="&#xa0;" horiz-adv-x="234" 
 />
    <glyph glyph-name="exclamdown" unicode="&#xa1;" horiz-adv-x="270" 
d="M40 149q0 23 8 41t21.5 30.5t31 19t35.5 6.5q39 0 68 -25.5t29 -71.5v-256q0 -48 -29 -72.5t-68 -24.5q-40 0 -68 24.5t-28 72.5v256zM37 409q0 19 7.5 37t21 31.5t31 21.5t37.5 8t37.5 -8t31 -21.5t21 -31.5t7.5 -37q0 -20 -7.5 -37.5t-21 -31t-31 -21.5t-37.5 -8
t-37.5 8t-31 21.5t-21 31t-7.5 37.5z" />
    <glyph glyph-name="cent" unicode="&#xa2;" horiz-adv-x="576" 
d="M408 704h38q24 0 42.5 -8.5t31 -22.5t19 -31.5t6.5 -36.5t-6.5 -37t-19 -31.5t-31 -22t-42.5 -8.5h-38v-311h38q25 0 43 -8.5t30 -22t18 -31t6 -35.5q0 -39 -24 -68.5t-73 -29.5h-38v-16q0 -24 -15 -36t-32 -12q-18 0 -32.5 12t-14.5 36v21q-72 10 -126 42.5t-90.5 79
t-54.5 103.5t-18 117q0 59 18 116.5t54 105t90 81.5t127 46v22q0 26 14.5 37t32.5 11q17 0 32 -11t15 -37v-14zM213 352q0 -48 25 -89t76 -58v291q-51 -17 -76 -56.5t-25 -87.5z" />
    <glyph glyph-name="sterling" unicode="&#xa3;" horiz-adv-x="527" 
d="M34 302q-25 0 -36.5 14.5t-11.5 32.5q0 17 11.5 32t36.5 15h7q4 70 26.5 127.5t63 98t98 62.5t132.5 22h46q46 0 72 -29t26 -69t-26 -68.5t-72 -28.5h-30q-63 0 -100.5 -25.5t-42.5 -89.5h132q25 0 36.5 -15t11.5 -32q0 -18 -11.5 -32.5t-36.5 -14.5h-133v-107h185
q45 0 69 -28.5t24 -68.5t-24 -69t-69 -29h-282q-96 0 -96 100v202h-6z" />
    <glyph glyph-name="currency" unicode="&#xa4;" horiz-adv-x="620" 
d="M85 349q0 45 19 88l-50 50q-25 25 -25 57q0 16 7 31.5t19 26.5t27.5 18t31.5 7q14 0 28.5 -5.5t27.5 -18.5l51 -51q40 17 84 17q23 0 44.5 -5t41.5 -13l51 51q13 13 28.5 19.5t30.5 6.5q16 0 31 -7t26.5 -19t18 -27t6.5 -31q0 -14 -6 -29.5t-19 -28.5l-51 -51
q8 -20 13 -41.5t5 -44.5q0 -44 -17 -84l52 -51q13 -13 18.5 -28t5.5 -29q0 -16 -7 -31t-18 -27t-26.5 -19.5t-31.5 -7.5q-31 0 -57 26l-50 50q-43 -19 -89 -19q-47 0 -86 18l-49 -49q-14 -14 -28.5 -19.5t-29.5 -5.5q-16 0 -31 7t-26.5 18t-18.5 26t-7 32q0 15 6 30t19 28
l49 49q-18 39 -18 86zM190 349q0 -24 9 -45t24.5 -36.5t36.5 -24.5t45 -9t45 9t37 24.5t25 36.5t9 45t-9 45t-25 37t-37 25t-45 9t-45 -9t-36.5 -25t-24.5 -37t-9 -45z" />
    <glyph glyph-name="yen" unicode="&#xa5;" horiz-adv-x="576" 
d="M152 163q-33 0 -52 13.5t-19 34.5q0 20 17.5 34.5t53.5 14.5h40v26h-40q-33 0 -52 14t-19 34q0 42 62 48l-108 177q-16 25 -16 52q0 19 9 36t23.5 30.5t33 21.5t38.5 8t42 -12.5t37 -37.5l86 -147l86 147q29 50 80 50q19 0 38 -8t33.5 -21.5t23.5 -30.5t9 -36
q0 -18 -4.5 -28.5t-12.5 -23.5l-108 -179q25 -3 36.5 -16t11.5 -30q0 -20 -19.5 -34t-51.5 -14h-24v-26h24q36 0 53.5 -14.5t17.5 -34.5q0 -21 -19.5 -34.5t-51.5 -13.5h-24v-70q0 -48 -29 -72.5t-68 -24.5q-40 0 -68.5 24.5t-28.5 72.5v70h-40z" />
    <glyph glyph-name="brokenbar" unicode="&#xa6;" horiz-adv-x="369" 
d="M184 827q28 0 48 -16t20 -51v-217q0 -32 -20 -49.5t-48 -17.5t-47.5 17.5t-19.5 49.5v217q0 35 19.5 51t47.5 16zM184 263q28 0 48 -16.5t20 -51.5v-217q0 -32 -20 -49t-48 -17t-47.5 17t-19.5 49v217q0 35 19.5 51.5t47.5 16.5z" />
    <glyph glyph-name="section" unicode="&#xa7;" horiz-adv-x="500" 
d="M441 349q0 -57 -35 -95q35 -32 35 -93q0 -161 -157 -161h-152q-31 0 -46 19t-15 42t16 42.5t46 19.5h159q24 0 35.5 13.5t11.5 30.5t-11.5 30.5t-35.5 13.5h-79q-72 0 -109.5 36t-37.5 115q0 56 43 95q-43 36 -43 93q0 162 159 162h122q32 0 48.5 -19t16.5 -42t-16.5 -43
t-48.5 -20h-133q-24 0 -34.5 -13.5t-10.5 -30.5t10.5 -30.5t34.5 -13.5h79q77 0 112.5 -36t35.5 -115zM293 312q25 1 35.5 13.5t10.5 29.5t-11.5 31t-35.5 14h-79q-25 0 -34.5 -14t-9.5 -31t10.5 -30t34.5 -13h79z" />
    <glyph glyph-name="dieresis" unicode="&#xa8;" horiz-adv-x="448" 
d="M28 825q0 32 21 53.5t52 21.5q32 0 53 -21.5t21 -53.5q0 -31 -21 -51.5t-53 -20.5q-31 0 -52 20.5t-21 51.5zM272 825q0 32 22 53.5t53 21.5t51.5 -21.5t20.5 -53.5q0 -31 -20.5 -51.5t-51.5 -20.5t-53 20.5t-22 51.5z" />
    <glyph glyph-name="ordfeminine" unicode="&#xaa;" horiz-adv-x="412" 
d="M180 457h56l-25 74zM269 365h-126l-19 -47q-8 -20 -21.5 -29t-29.5 -9q-23 0 -42.5 15t-19.5 40q0 6 1 12.5t4 11.5l142 312q8 16 19 26t35 10q22 0 33.5 -9.5t19.5 -26.5l129 -312q6 -11 6 -24q0 -25 -20 -40t-44 -15q-15 0 -29.5 9t-22.5 29z" />
    <glyph glyph-name="guillemotleft" unicode="&#xab;" horiz-adv-x="548" 
d="M504 247q8 -9 11.5 -18.5t3.5 -18.5q0 -22 -16 -37.5t-37 -15.5q-19 0 -37 15l-137 139q-17 17 -17 31q0 25 17 42l137 138q17 17 37 17q21 0 37 -16.5t16 -36.5q0 -23 -15 -38l-100 -101zM257 247q8 -9 11 -19t4 -18q0 -25 -16 -39t-36 -14t-38 15l-137 139
q-17 17 -17 31q0 25 17 42l137 138q17 17 38 17q20 0 36 -16.5t16 -36.5q0 -23 -15 -38l-100 -101z" />
    <glyph glyph-name="macron" unicode="&#xaf;" horiz-adv-x="461" 
d="M94 759q-31 0 -48.5 19.5t-17.5 45.5q0 27 17.5 48t48.5 21h273q31 0 48.5 -21t17.5 -48q0 -26 -17.5 -45.5t-48.5 -19.5h-273z" />
    <glyph glyph-name="degree" unicode="&#xb0;" horiz-adv-x="380" 
d="M333 566q0 -28 -11 -53.5t-30.5 -45t-45.5 -31.5t-56 -12q-32 0 -58 11t-45.5 30.5t-30 45t-10.5 55.5t11.5 56.5t31 46t45.5 31t56 11.5t56 -11.5t45.5 -31.5t30.5 -46t11 -56zM135 566q0 -23 16 -38.5t39 -15.5t39.5 15.5t16.5 38.5q0 24 -16.5 40t-39.5 16t-39 -16
t-16 -40z" />
    <glyph glyph-name="plusminus" unicode="&#xb1;" horiz-adv-x="580" 
d="M33 0zM207 269h-93q-38 0 -59.5 24t-21.5 56q0 34 21.5 59t59.5 25h93v92q0 38 24.5 60t56.5 22q34 0 58.5 -22t24.5 -60v-92h94q38 0 59.5 -25t21.5 -59q0 -32 -21.5 -56t-59.5 -24h-94v-94q0 -38 -24.5 -59.5t-58.5 -21.5q-32 0 -56.5 21.5t-24.5 59.5v94zM114 -150
q-38 0 -59.5 24t-21.5 56q0 34 21.5 59t59.5 25h351q38 0 59.5 -25t21.5 -59q0 -32 -21.5 -56t-59.5 -24h-351z" />
    <glyph glyph-name="twosuperior" unicode="&#xb2;" horiz-adv-x="425" 
d="M40 353zM48.5977 211.791q-14.999 0 -14.999 17.3994v116.995q0 65.3975 27.5986 94.7969q27.5996 29.3984 90.5967 29.3984h94.1963q29.998 0 29.998 22.7988q0 23.3994 -29.998 23.3994h-144.595q-56.3975 0 -56.3975 58.7979q0 58.7969 55.7979 58.7969h144.594
q132.595 0 132.595 -135.594q0 -32.3994 -5.69922 -56.0977q-5.7002 -23.6992 -19.1992 -39.5986q-13.5 -15.8994 -35.999 -23.3994t-55.4971 -7.5h-98.9961q-27.5996 0 -27.5996 -22.1982v-20.999h181.793q32.999 0 47.0977 -14.4004q14.0996 -14.3984 14.0996 -43.7979
q0 -58.7979 -61.7969 -58.7979h-267.59z" />
    <glyph glyph-name="threesuperior" unicode="&#xb3;" horiz-adv-x="417" 
d="M44 353zM33.5986 270.589q0 58.1982 56.3975 58.1982h143.395q12.5996 0 18.2988 7.79883q5.7002 7.7998 5.7002 16.1992q0 9 -5.7002 16.5q-5.69922 7.5 -18.2988 7.5h-128.995q-40.7979 0 -40.7979 43.1973q0 41.999 39.5977 41.999h130.195q11.999 0 17.999 8.99902
q6 9 6 20.3994q0 9.59961 -5.7002 17.3994q-5.69922 7.7998 -18.2988 7.7998h-146.395q-53.3975 0 -53.3975 58.7979q0 58.7969 52.7979 58.7969h185.393q22.1992 0 38.998 -9.29883q16.7998 -9.2998 28.1992 -24.5996q11.3994 -15.2988 17.0996 -35.0986
q5.69922 -19.7988 5.69922 -40.1982q0 -35.998 -15.2988 -63.2969q-15.2998 -27.2988 -47.6982 -34.499q16.1992 -1.7998 29.0986 -10.7998q12.8994 -8.99902 21.8994 -23.3984q8.99902 -14.3994 14.0986 -32.999q5.10059 -18.5996 5.10059 -38.998q0 -22.1992 -6 -41.999
q-6 -19.7988 -18.5996 -34.7979q-12.5996 -15 -32.6982 -23.6992q-20.0996 -8.7002 -47.6982 -8.7002h-175.192q-55.1982 0 -55.1982 58.7979z" />
    <glyph glyph-name="acute" unicode="&#xb4;" horiz-adv-x="257" 
d="M113 759q-16 -16 -35 -16q-20 0 -35 15.5t-15 35.5q0 19 14 33l103 106q13 15 32 15q20 0 35.5 -15t15.5 -35q0 -8 -3 -16.5t-11 -16.5z" />
    <glyph glyph-name="paragraph" unicode="&#xb6;" horiz-adv-x="515" 
d="M464 36q0 -40 -43 -40t-43 40v582h-94v-582q0 -40 -42 -40t-42 40v266h-37q-133 0 -133 174v53q0 175 133 175h271q13 0 21.5 -9t8.5 -23v-636z" />
    <glyph glyph-name="periodcentered" unicode="&#xb7;" horiz-adv-x="288" 
d="M243 353q0 -43 -28 -70.5t-68 -27.5t-69 27.5t-29 70.5q0 19 8 37t21.5 31.5t31 21.5t37.5 8t37.5 -8t30.5 -21.5t20.5 -31.5t7.5 -37z" />
    <glyph glyph-name="cedilla" unicode="&#xb8;" horiz-adv-x="321" 
d="M173 -188q-7 -24 -22 -35t-35 -11q-27 0 -46.5 15.5t-19.5 41.5q0 13 3 19l26 96q14 47 57 47q32 0 48 -19.5t16 -47.5q0 -4 -2 -10z" />
    <glyph glyph-name="onesuperior" unicode="&#xb9;" horiz-adv-x="280" 
d="M39 350zM224.991 267.589q0 -28.7988 -17.0996 -43.498t-41.0986 -14.6992q-22.7988 0 -40.1982 14.999q-17.3994 15 -17.3994 43.1982v168.594q-14.3994 -7.2002 -29.3984 -7.2002q-12 0 -21.8994 4.7998t-17.0986 12.5996q-7.2002 7.7998 -11.0996 18.2988
q-3.90039 10.5 -3.90039 21.8994q0 12.5996 4.7998 24.5996q4.7998 11.999 14.999 22.1982l79.7969 78.5967q23.999 24 49.7988 24q22.7988 0 36.2979 -17.0996q13.5 -17.0996 13.5 -47.6982v-303.588z" />
    <glyph glyph-name="ordmasculine" unicode="&#xba;" horiz-adv-x="465" 
d="M17 490q0 45 17 85t46 69t68 46t83 17q45 0 85 -17t69 -46t46 -69t17 -85t-17 -84t-46 -68t-69 -46t-85 -17q-44 0 -83 17t-68 46t-46 68t-17 84zM135 489q0 -42 28 -69.5t70 -27.5t69.5 27.5t27.5 69.5t-27.5 70.5t-69.5 28.5t-70 -28.5t-28 -70.5z" />
    <glyph glyph-name="guillemotright" unicode="&#xbb;" horiz-adv-x="548" 
d="M392 347l-100 101q-17 17 -17 38q0 20 16.5 36.5t36.5 16.5q21 0 38 -17l138 -138q15 -16 15 -37t-15 -36l-138 -139q-18 -15 -38 -15t-36.5 15.5t-16.5 37.5q1 8 4.5 18t12.5 19zM145 347l-100 101q-17 17 -17 38q0 20 16.5 36.5t36.5 16.5q21 0 38 -17l138 -138
q9 -9 12 -18t3 -19q0 -11 -3 -19t-12 -17l-138 -139q-18 -15 -38 -15t-36.5 15.5t-16.5 37.5q1 8 4.5 18t12.5 19z" />
    <glyph glyph-name="onequarter" unicode="&#xbc;" horiz-adv-x="818" 
d="M39 0zM224.991 267.589q0 -28.7988 -17.0996 -43.498t-41.0986 -14.6992q-22.7988 0 -40.1982 14.999q-17.3994 15 -17.3994 43.1982v168.594q-14.3994 -7.2002 -29.3984 -7.2002q-12 0 -21.8994 4.7998t-17.0986 12.5996q-7.2002 7.7998 -11.0996 18.2988
q-3.90039 10.5 -3.90039 21.8994q0 12.5996 4.7998 24.5996q4.7998 11.999 14.999 22.1982l79.7969 78.5967q23.999 24 49.7988 24q22.7988 0 36.2979 -17.0996q13.5 -17.0996 13.5 -47.6982v-303.588zM643.773 13.7998q0 -28.7988 -17.0986 -43.499
q-17.0996 -14.6992 -41.0986 -14.6992q-23.3994 0 -40.7988 14.6992q-17.3984 14.7002 -17.3984 43.499v96.5957h-152.395q-58.7969 0 -58.7969 58.7979v155.394q0 28.7988 17.6992 43.1982t41.0977 14.3994q23.3994 0 40.7988 -14.3994t17.3994 -43.1982v-107.996h94.1963
v107.996q0 28.7988 17.3984 43.1982q17.3994 14.3994 40.7988 14.3994q23.999 0 41.0986 -14.3994q17.0986 -14.3994 17.0986 -43.1982v-310.787zM594 707q13 0 26 -5.5t23.5 -15t17 -22t6.5 -25.5q0 -11 -4 -20.5t-12 -20.5l-428 -573q-22 -29 -52 -29q-14 0 -27 6
t-23 15.5t-15.5 22t-5.5 25.5q0 9 3.5 19.5t11.5 21.5l429 571q11 14 22.5 22t27.5 8z" />
    <glyph glyph-name="onehalf" unicode="&#xbd;" horiz-adv-x="900" 
d="M39 0zM224.991 267.589q0 -28.7988 -17.0996 -43.498t-41.0986 -14.6992q-22.7988 0 -40.1982 14.999q-17.3994 15 -17.3994 43.1982v168.594q-14.3994 -7.2002 -29.3984 -7.2002q-12 0 -21.8994 4.7998t-17.0986 12.5996q-7.2002 7.7998 -11.0996 18.2988
q-3.90039 10.5 -3.90039 21.8994q0 12.5996 4.7998 24.5996q4.7998 11.999 14.999 22.1982l79.7969 78.5967q23.999 24 49.7988 24q22.7988 0 36.2979 -17.0996q13.5 -17.0996 13.5 -47.6982v-303.588zM332.387 -41.998q-15 0 -15 17.3994v116.995
q0 65.3975 27.5996 94.7959q27.5986 29.3984 90.5957 29.3984h94.1963q29.999 0 29.999 22.7998q0 23.3984 -29.999 23.3984h-144.594q-56.3975 0 -56.3975 58.7979t55.7969 58.7979h144.595q132.595 0 132.595 -135.595q0 -32.3984 -5.7002 -56.0977t-19.1992 -39.5986
t-35.998 -23.3984q-22.499 -7.5 -55.498 -7.5h-98.9961q-27.5986 0 -27.5986 -22.1992v-20.999h181.792q32.999 0 47.0986 -14.3994t14.0996 -43.7988q0 -58.7969 -61.7979 -58.7969h-267.589zM605 707q13 0 26 -5.5t23.5 -15t17 -22t6.5 -25.5q0 -11 -4 -20.5t-12 -20.5
l-428 -573q-22 -29 -52 -29q-14 0 -27 6t-23 15.5t-15.5 22t-5.5 25.5q0 9 3.5 19.5t11.5 21.5l429 571q11 14 22.5 22t27.5 8z" />
    <glyph glyph-name="threequarters" unicode="&#xbe;" horiz-adv-x="930" 
d="M44 0zM708.571 13.7998q0 -28.7988 -17.0996 -43.499q-17.0986 -14.6992 -41.0986 -14.6992q-23.3984 0 -40.7979 14.6992q-17.3994 14.7002 -17.3994 43.499v96.5957h-152.394q-58.7979 0 -58.7979 58.7979v155.394q0 28.7988 17.6992 43.1982t41.0986 14.3994
t40.7979 -14.3994q17.3994 -14.3994 17.3994 -43.1982v-107.996h94.1963v107.996q0 28.7988 17.3994 43.1982t40.7979 14.3994q24 0 41.0986 -14.3994q17.0996 -14.3994 17.0996 -43.1982v-310.787zM33.5986 270.589q0 58.1982 56.3975 58.1982h143.395
q12.5996 0 18.2988 7.79883q5.7002 7.7998 5.7002 16.1992q0 9 -5.7002 16.5q-5.69922 7.5 -18.2988 7.5h-128.995q-40.7979 0 -40.7979 43.1973q0 41.999 39.5977 41.999h130.195q11.999 0 17.999 8.99902q6 9 6 20.3994q0 9.59961 -5.7002 17.3994
q-5.69922 7.7998 -18.2988 7.7998h-146.395q-53.3975 0 -53.3975 58.7979q0 58.7969 52.7979 58.7969h185.393q22.1992 0 38.998 -9.29883q16.7998 -9.2998 28.1992 -24.5996q11.3994 -15.2988 17.0996 -35.0986q5.69922 -19.7988 5.69922 -40.1982
q0 -35.998 -15.2988 -63.2969q-15.2998 -27.2988 -47.6982 -34.499q16.1992 -1.7998 29.0986 -10.7998q12.8994 -8.99902 21.8994 -23.3984q8.99902 -14.3994 14.0986 -32.999q5.10059 -18.5996 5.10059 -38.998q0 -22.1992 -6 -41.999q-6 -19.7988 -18.5996 -34.7979
q-12.5996 -15 -32.6982 -23.6992q-20.0996 -8.7002 -47.6982 -8.7002h-175.192q-55.1982 0 -55.1982 58.7979zM701 707q13 0 26 -5.5t23.5 -15t17 -22t6.5 -25.5q0 -11 -4 -20.5t-12 -20.5l-428 -573q-22 -29 -52 -29q-14 0 -27 6t-23 15.5t-15.5 22t-5.5 25.5q0 9 3.5 19.5
t11.5 21.5l429 571q11 14 22.5 22t27.5 8z" />
    <glyph glyph-name="questiondown" unicode="&#xbf;" horiz-adv-x="636" 
d="M256 406q0 19 8 37t21.5 31.5t31 21.5t37.5 8q19 0 37 -8t31.5 -21.5t21.5 -31.5t8 -37q0 -20 -8 -37.5t-21.5 -31t-31.5 -21t-37 -7.5q-20 0 -37.5 7.5t-31 21t-21.5 31t-8 37.5zM344 246q103 0 103 -98q0 -97 -101 -97h-102q-38 0 -38 -29q0 -30 38 -30h255
q99 0 101 -98v-4q0 -94 -100 -94h-245q-219 0 -219 226q0 224 218 224h90z" />
    <glyph glyph-name="Agrave" unicode="&#xc0;" horiz-adv-x="694" 
d="M18 0zM666 128q4 -10 5.5 -20t1.5 -18q0 -22 -9 -39.5t-24 -29.5t-34 -18.5t-39 -6.5q-57 0 -83 63l-14 34h-247l-16 -34q-30 -63 -86 -63q-20 0 -38.5 7t-32.5 20t-23 30.5t-9 38.5q0 9 0.5 18t5.5 18l107 237q14 32 36 48t49 16q21 0 39.5 -7t33 -20t23 -30t8.5 -36
q0 -22 -7 -39l-11 -26h95l-127 303q-5 11 -6 20t-1 18q0 21 8.5 38t23 30t32.5 20t38 7q28 0 50.5 -16t36.5 -48zM211 865q-8 8 -11 16.5t-3 16.5q0 20 15.5 35t35.5 15q18 0 32 -15l103 -106q14 -14 14 -33q0 -20 -15 -35.5t-35 -15.5q-19 0 -35 16z" />
    <glyph glyph-name="Aacute" unicode="&#xc1;" horiz-adv-x="694" 
d="M18 0zM666 128q4 -10 5.5 -20t1.5 -18q0 -22 -9 -39.5t-24 -29.5t-34 -18.5t-39 -6.5q-57 0 -83 63l-14 34h-247l-16 -34q-30 -63 -86 -63q-20 0 -38.5 7t-32.5 20t-23 30.5t-9 38.5q0 9 0.5 18t5.5 18l107 237q14 32 36 48t49 16q21 0 39.5 -7t33 -20t23 -30t8.5 -36
q0 -22 -7 -39l-11 -26h95l-127 303q-5 11 -6 20t-1 18q0 21 8.5 38t23 30t32.5 20t38 7q28 0 50.5 -16t36.5 -48zM382 759q-16 -16 -35 -16q-20 0 -35 15.5t-15 35.5q0 19 14 33l103 106q13 15 32 15q20 0 35.5 -15t15.5 -35q0 -8 -3 -16.5t-11 -16.5z" />
    <glyph glyph-name="Acircumflex" unicode="&#xc2;" horiz-adv-x="694" 
d="M18 0zM666 128q4 -10 5.5 -20t1.5 -18q0 -22 -9 -39.5t-24 -29.5t-34 -18.5t-39 -6.5q-57 0 -83 63l-14 34h-247l-16 -34q-30 -63 -86 -63q-20 0 -38.5 7t-32.5 20t-23 30.5t-9 38.5q0 9 0.5 18t5.5 18l107 237q14 32 36 48t49 16q21 0 39.5 -7t33 -20t23 -30t8.5 -36
q0 -22 -7 -39l-11 -26h95l-127 303q-5 11 -6 20t-1 18q0 21 8.5 38t23 30t32.5 20t38 7q28 0 50.5 -16t36.5 -48zM347 800l-94 -51q-7 -4 -13 -5t-13 -1q-20 0 -35 15.5t-15 37.5q0 8 6.5 21.5t20.5 21.5l117 63q17 5 27 5q6 0 12.5 -1t11.5 -4l117 -63q14 -8 20.5 -21.5
t6.5 -21.5q0 -22 -15 -37.5t-35 -15.5q-15 0 -25 6z" />
    <glyph glyph-name="Atilde" unicode="&#xc3;" horiz-adv-x="694" 
d="M18 0zM666 128q4 -10 5.5 -20t1.5 -18q0 -22 -9 -39.5t-24 -29.5t-34 -18.5t-39 -6.5q-57 0 -83 63l-14 34h-247l-16 -34q-30 -63 -86 -63q-20 0 -38.5 7t-32.5 20t-23 30.5t-9 38.5q0 9 0.5 18t5.5 18l107 237q14 32 36 48t49 16q21 0 39.5 -7t33 -20t23 -30t8.5 -36
q0 -22 -7 -39l-11 -26h95l-127 303q-5 11 -6 20t-1 18q0 21 8.5 38t23 30t32.5 20t38 7q28 0 50.5 -16t36.5 -48zM481 886q9 11 18 14.5t15 3.5q20 0 35.5 -14t15.5 -34q0 -23 -12 -41.5t-30.5 -32t-41.5 -20.5t-45 -7q-23 0 -46 7.5t-44.5 16t-41.5 16t-38 7.5
q-15 0 -25 -7t-30 -28q-8 -9 -17 -13t-16 -4q-18 0 -34 14t-16 34q0 22 12 41t30.5 32.5t41.5 21t45 7.5q21 0 43 -7.5t43.5 -16t42 -16t39.5 -7.5q17 0 27.5 6.5t28.5 26.5z" />
    <glyph glyph-name="Adieresis" unicode="&#xc4;" horiz-adv-x="694" 
d="M18 0zM666 128q4 -10 5.5 -20t1.5 -18q0 -22 -9 -39.5t-24 -29.5t-34 -18.5t-39 -6.5q-57 0 -83 63l-14 34h-247l-16 -34q-30 -63 -86 -63q-20 0 -38.5 7t-32.5 20t-23 30.5t-9 38.5q0 9 0.5 18t5.5 18l107 237q14 32 36 48t49 16q21 0 39.5 -7t33 -20t23 -30t8.5 -36
q0 -22 -7 -39l-11 -26h95l-127 303q-5 11 -6 20t-1 18q0 21 8.5 38t23 30t32.5 20t38 7q28 0 50.5 -16t36.5 -48zM151 825q0 32 21 53.5t52 21.5q32 0 53 -21.5t21 -53.5q0 -31 -21 -51.5t-53 -20.5q-31 0 -52 20.5t-21 51.5zM395 825q0 32 22 53.5t53 21.5t51.5 -21.5
t20.5 -53.5q0 -31 -20.5 -51.5t-51.5 -20.5t-53 20.5t-22 51.5z" />
    <glyph glyph-name="Aring" unicode="&#xc5;" horiz-adv-x="694" 
d="M18 0zM666 128q4 -10 5.5 -20t1.5 -18q0 -22 -9 -39.5t-24 -29.5t-34 -18.5t-39 -6.5q-57 0 -83 63l-14 34h-247l-16 -34q-30 -63 -86 -63q-20 0 -38.5 7t-32.5 20t-23 30.5t-9 38.5q0 9 0.5 18t5.5 18l107 237q14 32 36 48t49 16q21 0 39.5 -7t33 -20t23 -30t8.5 -36
q0 -22 -7 -39l-11 -26h95l-127 303q-5 11 -6 20t-1 18q0 21 8.5 38t23 30t32.5 20t38 7q28 0 50.5 -16t36.5 -48zM236 818q0 22 8.5 41.5t23.5 34t35.5 22.5t43.5 8t43 -8t35 -22.5t23.5 -34t8.5 -41.5t-8.5 -41.5t-23.5 -33.5t-35 -22.5t-43 -8.5t-43.5 8.5t-35.5 22.5
t-23.5 33.5t-8.5 41.5zM304 817q0 -18 13 -31.5t30 -13.5q18 0 30.5 13.5t12.5 31.5q0 19 -12.5 32t-30.5 13q-17 0 -30 -13t-13 -32z" />
    <glyph glyph-name="AE" unicode="&#xc6;" horiz-adv-x="1105" 
d="M568 0q-60 0 -84 61l-14 34h-247l-16 -36q-12 -32 -35.5 -47.5t-50.5 -15.5q-20 0 -38.5 7t-32.5 19t-23 29.5t-9 38.5q0 18 6 38l176 391q12 33 35.5 49t51.5 16q20 0 38.5 -7.5t33 -20.5t23 -30t8.5 -36q0 -20 -8 -39l-80 -180h181v335q0 98 96 98h389q45 0 71.5 -28.5
t26.5 -69.5q0 -39 -26.5 -68t-71.5 -29h-292v-60h292q45 0 71.5 -28.5t26.5 -68.5t-26.5 -68.5t-71.5 -28.5h-292v-59h292q45 0 71.5 -29t26.5 -69q0 -41 -26.5 -69.5t-71.5 -28.5h-400z" />
    <glyph glyph-name="Ccedilla" unicode="&#xc7;" horiz-adv-x="722" 
d="M35 0zM253 0q-108 0 -163 56.5t-55 170.5v250q0 114 55 170.5t163 56.5h324q63 0 91 -24.5t28 -75.5t-28 -74t-91 -23h-319q-28 0 -29 -27v-253q0 -29 29 -29h322q63 0 89.5 -24.5t26.5 -74.5q0 -51 -26.5 -75t-89.5 -24h-327zM429 -188q-7 -24 -22 -35t-35 -11
q-27 0 -46.5 15.5t-19.5 41.5q0 13 3 19l26 96q14 47 57 47q32 0 48 -19.5t16 -47.5q0 -4 -2 -10z" />
    <glyph glyph-name="Egrave" unicode="&#xc8;" horiz-adv-x="662" 
d="M40 0zM137 0q-97 0 -97 98v508q0 98 97 98h388q46 0 72 -28.5t26 -69.5q0 -39 -26 -68t-72 -29h-292v-60h292q46 0 72 -28.5t26 -68.5t-26 -68.5t-72 -28.5h-292v-59h292q46 0 72 -29t26 -69q0 -41 -26 -69.5t-72 -28.5h-388zM195 865q-8 8 -11 16.5t-3 16.5
q0 20 15.5 35t35.5 15q18 0 32 -15l103 -106q14 -14 14 -33q0 -20 -15 -35.5t-35 -15.5q-19 0 -35 16z" />
    <glyph glyph-name="Eacute" unicode="&#xc9;" horiz-adv-x="662" 
d="M40 0zM137 0q-97 0 -97 98v508q0 98 97 98h388q46 0 72 -28.5t26 -69.5q0 -39 -26 -68t-72 -29h-292v-60h292q46 0 72 -28.5t26 -68.5t-26 -68.5t-72 -28.5h-292v-59h292q46 0 72 -29t26 -69q0 -41 -26 -69.5t-72 -28.5h-388zM366 759q-16 -16 -35 -16q-20 0 -35 15.5
t-15 35.5q0 19 14 33l103 106q13 15 32 15q20 0 35.5 -15t15.5 -35q0 -8 -3 -16.5t-11 -16.5z" />
    <glyph glyph-name="Ecircumflex" unicode="&#xca;" horiz-adv-x="662" 
d="M40 0zM137 0q-97 0 -97 98v508q0 98 97 98h388q46 0 72 -28.5t26 -69.5q0 -39 -26 -68t-72 -29h-292v-60h292q46 0 72 -28.5t26 -68.5t-26 -68.5t-72 -28.5h-292v-59h292q46 0 72 -29t26 -69q0 -41 -26 -69.5t-72 -28.5h-388zM331 800l-94 -51q-7 -4 -13 -5t-13 -1
q-20 0 -35 15.5t-15 37.5q0 8 6.5 21.5t20.5 21.5l117 63q17 5 27 5q6 0 12.5 -1t11.5 -4l117 -63q14 -8 20.5 -21.5t6.5 -21.5q0 -22 -15 -37.5t-35 -15.5q-15 0 -25 6z" />
    <glyph glyph-name="Edieresis" unicode="&#xcb;" horiz-adv-x="662" 
d="M40 0zM137 0q-97 0 -97 98v508q0 98 97 98h388q46 0 72 -28.5t26 -69.5q0 -39 -26 -68t-72 -29h-292v-60h292q46 0 72 -28.5t26 -68.5t-26 -68.5t-72 -28.5h-292v-59h292q46 0 72 -29t26 -69q0 -41 -26 -69.5t-72 -28.5h-388zM135 825q0 32 21 53.5t52 21.5
q32 0 53 -21.5t21 -53.5q0 -31 -21 -51.5t-53 -20.5q-31 0 -52 20.5t-21 51.5zM379 825q0 32 22 53.5t53 21.5t51.5 -21.5t20.5 -53.5q0 -31 -20.5 -51.5t-51.5 -20.5t-53 20.5t-22 51.5z" />
    <glyph glyph-name="Igrave" unicode="&#xcc;" horiz-adv-x="274" 
d="M0 0zM233 93q0 -48 -29 -72.5t-68 -24.5q-40 0 -68.5 24.5t-28.5 72.5v518q0 46 28.5 71t68.5 25q39 0 68 -25t29 -71v-518zM2 865q-8 8 -11 16.5t-3 16.5q0 20 15.5 35t35.5 15q18 0 32 -15l103 -106q14 -14 14 -33q0 -20 -15 -35.5t-35 -15.5q-19 0 -35 16z" />
    <glyph glyph-name="Iacute" unicode="&#xcd;" horiz-adv-x="274" 
d="M39 0zM233 93q0 -48 -29 -72.5t-68 -24.5q-40 0 -68.5 24.5t-28.5 72.5v518q0 46 28.5 71t68.5 25q39 0 68 -25t29 -71v-518zM172 759q-16 -16 -35 -16q-20 0 -35 15.5t-15 35.5q0 19 14 33l103 106q13 15 32 15q20 0 35.5 -15t15.5 -35q0 -8 -3 -16.5t-11 -16.5z" />
    <glyph glyph-name="Icircumflex" unicode="&#xce;" horiz-adv-x="274" 
d="M0 0zM233 93q0 -48 -29 -72.5t-68 -24.5q-40 0 -68.5 24.5t-28.5 72.5v518q0 46 28.5 71t68.5 25q39 0 68 -25t29 -71v-518zM139 800l-94 -51q-7 -4 -13 -5t-13 -1q-20 0 -35 15.5t-15 37.5q0 8 6.5 21.5t20.5 21.5l117 63q17 5 27 5q6 0 12.5 -1t11.5 -4l117 -63
q14 -8 20.5 -21.5t6.5 -21.5q0 -22 -15 -37.5t-35 -15.5q-15 0 -25 6z" />
    <glyph glyph-name="Idieresis" unicode="&#xcf;" horiz-adv-x="274" 
d="M0 0zM233 93q0 -48 -29 -72.5t-68 -24.5q-40 0 -68.5 24.5t-28.5 72.5v518q0 46 28.5 71t68.5 25q39 0 68 -25t29 -71v-518zM-57 825q0 32 21 53.5t52 21.5q32 0 53 -21.5t21 -53.5q0 -31 -21 -51.5t-53 -20.5q-31 0 -52 20.5t-21 51.5zM187 825q0 32 22 53.5t53 21.5
t51.5 -21.5t20.5 -53.5q0 -31 -20.5 -51.5t-51.5 -20.5t-53 20.5t-22 51.5z" />
    <glyph glyph-name="Eth" unicode="&#xd0;" horiz-adv-x="742" 
d="M86 606q0 18 8 35.5t22 31.5t32 22.5t39 8.5h153q86 0 155.5 -27.5t119 -75t76 -111.5t26.5 -136q0 -76 -27 -141t-75.5 -112t-115 -74t-144.5 -27h-168q-46 0 -73.5 26.5t-27.5 71.5v155q-40 6 -60 34.5t-20 62.5q0 17 5.5 33.5t16 30t25 22.5t33.5 12v158zM280 196h76
q34 0 64 11.5t52 32t34.5 49t12.5 63.5q0 32 -12 60t-34 49t-52 33.5t-66 12.5h-75v-58h72q46 0 71.5 -29.5t25.5 -69.5q0 -39 -25.5 -68.5t-71.5 -29.5h-72v-56z" />
    <glyph glyph-name="Ntilde" unicode="&#xd1;" horiz-adv-x="755" 
d="M40 0zM259 507q-26 0 -26 -26v-383q0 -54 -22.5 -78.5t-73.5 -24.5q-97 0 -97 103v544q0 62 60 62h552q62 0 62 -62v-544q0 -102 -97 -102t-97 102v383q0 26 -25 26h-236zM512 886q9 11 18 14.5t15 3.5q20 0 35.5 -14t15.5 -34q0 -23 -12 -41.5t-30.5 -32t-41.5 -20.5
t-45 -7q-23 0 -46 7.5t-44.5 16t-41.5 16t-38 7.5q-15 0 -25 -7t-30 -28q-8 -9 -17 -13t-16 -4q-18 0 -34 14t-16 34q0 22 12 41t30.5 32.5t41.5 21t45 7.5q21 0 43 -7.5t43.5 -16t42 -16t39.5 -7.5q17 0 27.5 6.5t28.5 26.5z" />
    <glyph glyph-name="Ograve" unicode="&#xd2;" 
d="M35 0zM710 227q0 -114 -55 -170.5t-163 -56.5h-239q-108 0 -163 56.5t-55 170.5v250q0 114 55 170.5t163 56.5h239q108 0 163 -56.5t55 -170.5v-250zM259 507q-14 0 -22 -6.5t-8 -20.5v-253q0 -29 30 -29h227q29 0 29 29v250q0 30 -29 30h-227zM237 865q-8 8 -11 16.5
t-3 16.5q0 20 15.5 35t35.5 15q18 0 32 -15l103 -106q14 -14 14 -33q0 -20 -15 -35.5t-35 -15.5q-19 0 -35 16z" />
    <glyph glyph-name="Oacute" unicode="&#xd3;" 
d="M35 0zM710 227q0 -114 -55 -170.5t-163 -56.5h-239q-108 0 -163 56.5t-55 170.5v250q0 114 55 170.5t163 56.5h239q108 0 163 -56.5t55 -170.5v-250zM259 507q-14 0 -22 -6.5t-8 -20.5v-253q0 -29 30 -29h227q29 0 29 29v250q0 30 -29 30h-227zM408 759q-16 -16 -35 -16
q-20 0 -35 15.5t-15 35.5q0 19 14 33l103 106q13 15 32 15q20 0 35.5 -15t15.5 -35q0 -8 -3 -16.5t-11 -16.5z" />
    <glyph glyph-name="Ocircumflex" unicode="&#xd4;" 
d="M35 0zM710 227q0 -114 -55 -170.5t-163 -56.5h-239q-108 0 -163 56.5t-55 170.5v250q0 114 55 170.5t163 56.5h239q108 0 163 -56.5t55 -170.5v-250zM259 507q-14 0 -22 -6.5t-8 -20.5v-253q0 -29 30 -29h227q29 0 29 29v250q0 30 -29 30h-227zM374 800l-94 -51
q-7 -4 -13 -5t-13 -1q-20 0 -35 15.5t-15 37.5q0 8 6.5 21.5t20.5 21.5l117 63q17 5 27 5q6 0 12.5 -1t11.5 -4l117 -63q14 -8 20.5 -21.5t6.5 -21.5q0 -22 -15 -37.5t-35 -15.5q-15 0 -25 6z" />
    <glyph glyph-name="Otilde" unicode="&#xd5;" 
d="M35 0zM710 227q0 -114 -55 -170.5t-163 -56.5h-239q-108 0 -163 56.5t-55 170.5v250q0 114 55 170.5t163 56.5h239q108 0 163 -56.5t55 -170.5v-250zM259 507q-14 0 -22 -6.5t-8 -20.5v-253q0 -29 30 -29h227q29 0 29 29v250q0 30 -29 30h-227zM508 886q9 11 18 14.5
t15 3.5q20 0 35.5 -14t15.5 -34q0 -23 -12 -41.5t-30.5 -32t-41.5 -20.5t-45 -7q-23 0 -46 7.5t-44.5 16t-41.5 16t-38 7.5q-15 0 -25 -7t-30 -28q-8 -9 -17 -13t-16 -4q-18 0 -34 14t-16 34q0 22 12 41t30.5 32.5t41.5 21t45 7.5q21 0 43 -7.5t43.5 -16t42 -16t39.5 -7.5
q17 0 27.5 6.5t28.5 26.5z" />
    <glyph glyph-name="Odieresis" unicode="&#xd6;" 
d="M35 0zM710 227q0 -114 -55 -170.5t-163 -56.5h-239q-108 0 -163 56.5t-55 170.5v250q0 114 55 170.5t163 56.5h239q108 0 163 -56.5t55 -170.5v-250zM259 507q-14 0 -22 -6.5t-8 -20.5v-253q0 -29 30 -29h227q29 0 29 29v250q0 30 -29 30h-227zM178 825q0 32 21 53.5
t52 21.5q32 0 53 -21.5t21 -53.5q0 -31 -21 -51.5t-53 -20.5q-31 0 -52 20.5t-21 51.5zM422 825q0 32 22 53.5t53 21.5t51.5 -21.5t20.5 -53.5q0 -31 -20.5 -51.5t-51.5 -20.5t-53 20.5t-22 51.5z" />
    <glyph glyph-name="multiply" unicode="&#xd7;" horiz-adv-x="580" 
d="M172 351l-65 66q-25 22 -25 52q0 17 6.5 33t18 28t27 19.5t33.5 7.5q32 0 56 -24l66 -67l66 67q25 25 57 25q17 0 32 -7.5t26.5 -19.5t18 -28t6.5 -32q0 -30 -24 -54l-65 -66l65 -67q13 -11 18.5 -26t5.5 -30q0 -17 -6.5 -32t-18 -27t-26.5 -19t-32 -7t-30 6t-27 20
l-66 65l-66 -65q-12 -12 -26 -19t-28 -7q-17 0 -32.5 6.5t-27.5 18t-19.5 27t-7.5 33.5q0 30 25 56z" />
    <glyph glyph-name="Oslash" unicode="&#xd8;" 
d="M710 228q0 -227 -218 -227h-215l-44 -93q-8 -19 -21.5 -28t-30.5 -9q-28 0 -47.5 17t-19.5 41q0 16 7 29l28 61q-114 46 -114 209v249q0 227 218 227h215l25 52q18 37 52 37q24 0 44.5 -17.5t20.5 -43.5q0 -12 -5 -25l-10 -21q115 -45 115 -209v-249zM230 228
q0 -16 6 -22l140 301h-117q-28 0 -29 -27v-252zM486 199q29 0 29 29v249q0 15 -7 22l-139 -300h117z" />
    <glyph glyph-name="Ugrave" unicode="&#xd9;" horiz-adv-x="756" 
d="M40 0zM496 197q24 0 24 22v385q0 54 23 78.5t73 24.5q99 0 99 -103v-542q0 -62 -60 -62h-554q-61 0 -61 62v542q0 102 97 102t97 -102v-381q0 -26 25 -26h237zM242 865q-8 8 -11 16.5t-3 16.5q0 20 15.5 35t35.5 15q18 0 32 -15l103 -106q14 -14 14 -33q0 -20 -15 -35.5
t-35 -15.5q-19 0 -35 16z" />
    <glyph glyph-name="Uacute" unicode="&#xda;" horiz-adv-x="756" 
d="M40 0zM496 197q24 0 24 22v385q0 54 23 78.5t73 24.5q99 0 99 -103v-542q0 -62 -60 -62h-554q-61 0 -61 62v542q0 102 97 102t97 -102v-381q0 -26 25 -26h237zM413 759q-16 -16 -35 -16q-20 0 -35 15.5t-15 35.5q0 19 14 33l103 106q13 15 32 15q20 0 35.5 -15t15.5 -35
q0 -8 -3 -16.5t-11 -16.5z" />
    <glyph glyph-name="Ucircumflex" unicode="&#xdb;" horiz-adv-x="756" 
d="M40 0zM496 197q24 0 24 22v385q0 54 23 78.5t73 24.5q99 0 99 -103v-542q0 -62 -60 -62h-554q-61 0 -61 62v542q0 102 97 102t97 -102v-381q0 -26 25 -26h237zM378 800l-94 -51q-7 -4 -13 -5t-13 -1q-20 0 -35 15.5t-15 37.5q0 8 6.5 21.5t20.5 21.5l117 63q17 5 27 5
q6 0 12.5 -1t11.5 -4l117 -63q14 -8 20.5 -21.5t6.5 -21.5q0 -22 -15 -37.5t-35 -15.5q-15 0 -25 6z" />
    <glyph glyph-name="Udieresis" unicode="&#xdc;" horiz-adv-x="756" 
d="M40 0zM496 197q24 0 24 22v385q0 54 23 78.5t73 24.5q99 0 99 -103v-542q0 -62 -60 -62h-554q-61 0 -61 62v542q0 102 97 102t97 -102v-381q0 -26 25 -26h237zM182 825q0 32 21 53.5t52 21.5q32 0 53 -21.5t21 -53.5q0 -31 -21 -51.5t-53 -20.5q-31 0 -52 20.5t-21 51.5z
M426 825q0 32 22 53.5t53 21.5t51.5 -21.5t20.5 -53.5q0 -31 -20.5 -51.5t-51.5 -20.5t-53 20.5t-22 51.5z" />
    <glyph glyph-name="Yacute" unicode="&#xdd;" horiz-adv-x="576" 
d="M18 0zM375 657q15 26 37.5 38t45.5 12q19 0 37 -7.5t32 -20t22.5 -30t8.5 -37.5q0 -27 -16 -53l-156 -254v-212q0 -48 -29 -72.5t-68 -24.5q-40 0 -68.5 24.5t-28.5 72.5v212l-158 255q-16 25 -16 49q0 20 8.5 38t22.5 31.5t32 21t38 7.5q21 0 44 -11.5t38 -37.5l87 -152
zM323 759q-16 -16 -35 -16q-20 0 -35 15.5t-15 35.5q0 19 14 33l103 106q13 15 32 15q20 0 35.5 -15t15.5 -35q0 -8 -3 -16.5t-11 -16.5z" />
    <glyph glyph-name="Thorn" unicode="&#xde;" horiz-adv-x="613" 
d="M231 96q0 -100 -97 -100q-50 0 -72.5 24.5t-22.5 75.5v109q0 60 26 89t83 29h245q39 0 39 30t-39 30h-244q-59 0 -84.5 24.5t-25.5 75.5v124q0 51 22.5 75.5t72.5 24.5q97 0 97 -100v-29h151q219 0 219 -225q0 -224 -217 -224h-153v-33z" />
    <glyph glyph-name="germandbls" unicode="&#xdf;" horiz-adv-x="1142" 
d="M29 0zM544 224q0 -224 -219 -224h-193q-24 0 -42 8.5t-30 22t-18 31t-6 36.5q0 18 6 35.5t18.5 31t31 22t42.5 8.5h202q20 0 29.5 11.5t9.5 24.5q0 14 -9.5 26t-29.5 12h-100q-103 0 -155 50t-52 159q0 226 221 226h156q25 0 44 -8.5t32 -22t19.5 -31t6.5 -35.5t-6.5 -36
t-19.5 -32t-32.5 -22.5t-44.5 -8.5h-168q-20 0 -29 -11.5t-9 -25.5q0 -13 9 -24.5t29 -11.5h100q106 0 156.5 -51t50.5 -160zM1115 224q0 -224 -219 -224h-193q-24 0 -42 8.5t-30 22t-18 31t-6 36.5q0 18 6 35.5t18.5 31t31 22t42.5 8.5h202q20 0 29.5 11.5t9.5 24.5
q0 14 -9.5 26t-29.5 12h-100q-103 0 -155 50t-52 159q0 226 221 226h156q25 0 44 -8.5t32 -22t19.5 -31t6.5 -35.5t-6.5 -36t-19.5 -32t-32.5 -22.5t-44.5 -8.5h-168q-20 0 -29 -11.5t-9 -25.5q0 -13 9 -24.5t29 -11.5h100q106 0 156.5 -51t50.5 -160z" />
    <glyph glyph-name="agrave" unicode="&#xe0;" horiz-adv-x="694" 
d="M18 0zM666 128q4 -10 5.5 -20t1.5 -18q0 -22 -9 -39.5t-24 -29.5t-34 -18.5t-39 -6.5q-57 0 -83 63l-14 34h-247l-16 -34q-30 -63 -86 -63q-20 0 -38.5 7t-32.5 20t-23 30.5t-9 38.5q0 9 0.5 18t5.5 18l107 237q14 32 36 48t49 16q21 0 39.5 -7t33 -20t23 -30t8.5 -36
q0 -22 -7 -39l-11 -26h95l-127 303q-5 11 -6 20t-1 18q0 21 8.5 38t23 30t32.5 20t38 7q28 0 50.5 -16t36.5 -48zM211 865q-8 8 -11 16.5t-3 16.5q0 20 15.5 35t35.5 15q18 0 32 -15l103 -106q14 -14 14 -33q0 -20 -15 -35.5t-35 -15.5q-19 0 -35 16z" />
    <glyph glyph-name="aacute" unicode="&#xe1;" horiz-adv-x="694" 
d="M18 0zM666 128q4 -10 5.5 -20t1.5 -18q0 -22 -9 -39.5t-24 -29.5t-34 -18.5t-39 -6.5q-57 0 -83 63l-14 34h-247l-16 -34q-30 -63 -86 -63q-20 0 -38.5 7t-32.5 20t-23 30.5t-9 38.5q0 9 0.5 18t5.5 18l107 237q14 32 36 48t49 16q21 0 39.5 -7t33 -20t23 -30t8.5 -36
q0 -22 -7 -39l-11 -26h95l-127 303q-5 11 -6 20t-1 18q0 21 8.5 38t23 30t32.5 20t38 7q28 0 50.5 -16t36.5 -48zM382 759q-16 -16 -35 -16q-20 0 -35 15.5t-15 35.5q0 19 14 33l103 106q13 15 32 15q20 0 35.5 -15t15.5 -35q0 -8 -3 -16.5t-11 -16.5z" />
    <glyph glyph-name="acircumflex" unicode="&#xe2;" horiz-adv-x="694" 
d="M18 0zM666 128q4 -10 5.5 -20t1.5 -18q0 -22 -9 -39.5t-24 -29.5t-34 -18.5t-39 -6.5q-57 0 -83 63l-14 34h-247l-16 -34q-30 -63 -86 -63q-20 0 -38.5 7t-32.5 20t-23 30.5t-9 38.5q0 9 0.5 18t5.5 18l107 237q14 32 36 48t49 16q21 0 39.5 -7t33 -20t23 -30t8.5 -36
q0 -22 -7 -39l-11 -26h95l-127 303q-5 11 -6 20t-1 18q0 21 8.5 38t23 30t32.5 20t38 7q28 0 50.5 -16t36.5 -48zM347 800l-94 -51q-7 -4 -13 -5t-13 -1q-20 0 -35 15.5t-15 37.5q0 8 6.5 21.5t20.5 21.5l117 63q17 5 27 5q6 0 12.5 -1t11.5 -4l117 -63q14 -8 20.5 -21.5
t6.5 -21.5q0 -22 -15 -37.5t-35 -15.5q-15 0 -25 6z" />
    <glyph glyph-name="atilde" unicode="&#xe3;" horiz-adv-x="694" 
d="M18 0zM666 128q4 -10 5.5 -20t1.5 -18q0 -22 -9 -39.5t-24 -29.5t-34 -18.5t-39 -6.5q-57 0 -83 63l-14 34h-247l-16 -34q-30 -63 -86 -63q-20 0 -38.5 7t-32.5 20t-23 30.5t-9 38.5q0 9 0.5 18t5.5 18l107 237q14 32 36 48t49 16q21 0 39.5 -7t33 -20t23 -30t8.5 -36
q0 -22 -7 -39l-11 -26h95l-127 303q-5 11 -6 20t-1 18q0 21 8.5 38t23 30t32.5 20t38 7q28 0 50.5 -16t36.5 -48zM481 886q9 11 18 14.5t15 3.5q20 0 35.5 -14t15.5 -34q0 -23 -12 -41.5t-30.5 -32t-41.5 -20.5t-45 -7q-23 0 -46 7.5t-44.5 16t-41.5 16t-38 7.5
q-15 0 -25 -7t-30 -28q-8 -9 -17 -13t-16 -4q-18 0 -34 14t-16 34q0 22 12 41t30.5 32.5t41.5 21t45 7.5q21 0 43 -7.5t43.5 -16t42 -16t39.5 -7.5q17 0 27.5 6.5t28.5 26.5z" />
    <glyph glyph-name="adieresis" unicode="&#xe4;" horiz-adv-x="694" 
d="M18 0zM666 128q4 -10 5.5 -20t1.5 -18q0 -22 -9 -39.5t-24 -29.5t-34 -18.5t-39 -6.5q-57 0 -83 63l-14 34h-247l-16 -34q-30 -63 -86 -63q-20 0 -38.5 7t-32.5 20t-23 30.5t-9 38.5q0 9 0.5 18t5.5 18l107 237q14 32 36 48t49 16q21 0 39.5 -7t33 -20t23 -30t8.5 -36
q0 -22 -7 -39l-11 -26h95l-127 303q-5 11 -6 20t-1 18q0 21 8.5 38t23 30t32.5 20t38 7q28 0 50.5 -16t36.5 -48zM151 825q0 32 21 53.5t52 21.5q32 0 53 -21.5t21 -53.5q0 -31 -21 -51.5t-53 -20.5q-31 0 -52 20.5t-21 51.5zM395 825q0 32 22 53.5t53 21.5t51.5 -21.5
t20.5 -53.5q0 -31 -20.5 -51.5t-51.5 -20.5t-53 20.5t-22 51.5z" />
    <glyph glyph-name="aring" unicode="&#xe5;" horiz-adv-x="694" 
d="M18 0zM666 128q4 -10 5.5 -20t1.5 -18q0 -22 -9 -39.5t-24 -29.5t-34 -18.5t-39 -6.5q-57 0 -83 63l-14 34h-247l-16 -34q-30 -63 -86 -63q-20 0 -38.5 7t-32.5 20t-23 30.5t-9 38.5q0 9 0.5 18t5.5 18l107 237q14 32 36 48t49 16q21 0 39.5 -7t33 -20t23 -30t8.5 -36
q0 -22 -7 -39l-11 -26h95l-127 303q-5 11 -6 20t-1 18q0 21 8.5 38t23 30t32.5 20t38 7q28 0 50.5 -16t36.5 -48zM236 818q0 22 8.5 41.5t23.5 34t35.5 22.5t43.5 8t43 -8t35 -22.5t23.5 -34t8.5 -41.5t-8.5 -41.5t-23.5 -33.5t-35 -22.5t-43 -8.5t-43.5 8.5t-35.5 22.5
t-23.5 33.5t-8.5 41.5zM304 817q0 -18 13 -31.5t30 -13.5q18 0 30.5 13.5t12.5 31.5q0 19 -12.5 32t-30.5 13q-17 0 -30 -13t-13 -32z" />
    <glyph glyph-name="ae" unicode="&#xe6;" horiz-adv-x="1105" 
d="M18 0zM568 0q-60 0 -84 61l-14 34h-247l-16 -36q-12 -32 -35.5 -47.5t-50.5 -15.5q-20 0 -38.5 7t-32.5 19t-23 29.5t-9 38.5q0 18 6 38l176 391q12 33 35.5 49t51.5 16q20 0 38.5 -7.5t33 -20.5t23 -30t8.5 -36q0 -20 -8 -39l-80 -180h181v335q0 98 96 98h389
q45 0 71.5 -28.5t26.5 -69.5q0 -39 -26.5 -68t-71.5 -29h-292v-60h292q45 0 71.5 -28.5t26.5 -68.5t-26.5 -68.5t-71.5 -28.5h-292v-59h292q45 0 71.5 -29t26.5 -69q0 -41 -26.5 -69.5t-71.5 -28.5h-400z" />
    <glyph glyph-name="ccedilla" unicode="&#xe7;" horiz-adv-x="722" 
d="M35 0zM253 0q-108 0 -163 56.5t-55 170.5v250q0 114 55 170.5t163 56.5h324q63 0 91 -24.5t28 -75.5t-28 -74t-91 -23h-319q-28 0 -29 -27v-253q0 -29 29 -29h322q63 0 89.5 -24.5t26.5 -74.5q0 -51 -26.5 -75t-89.5 -24h-327zM429 -188q-7 -24 -22 -35t-35 -11
q-27 0 -46.5 15.5t-19.5 41.5q0 13 3 19l26 96q14 47 57 47q32 0 48 -19.5t16 -47.5q0 -4 -2 -10z" />
    <glyph glyph-name="egrave" unicode="&#xe8;" horiz-adv-x="662" 
d="M40 0zM137 0q-97 0 -97 98v508q0 98 97 98h388q46 0 72 -28.5t26 -69.5q0 -39 -26 -68t-72 -29h-292v-60h292q46 0 72 -28.5t26 -68.5t-26 -68.5t-72 -28.5h-292v-59h292q46 0 72 -29t26 -69q0 -41 -26 -69.5t-72 -28.5h-388zM195 865q-8 8 -11 16.5t-3 16.5
q0 20 15.5 35t35.5 15q18 0 32 -15l103 -106q14 -14 14 -33q0 -20 -15 -35.5t-35 -15.5q-19 0 -35 16z" />
    <glyph glyph-name="eacute" unicode="&#xe9;" horiz-adv-x="662" 
d="M40 0zM137 0q-97 0 -97 98v508q0 98 97 98h388q46 0 72 -28.5t26 -69.5q0 -39 -26 -68t-72 -29h-292v-60h292q46 0 72 -28.5t26 -68.5t-26 -68.5t-72 -28.5h-292v-59h292q46 0 72 -29t26 -69q0 -41 -26 -69.5t-72 -28.5h-388zM366 759q-16 -16 -35 -16q-20 0 -35 15.5
t-15 35.5q0 19 14 33l103 106q13 15 32 15q20 0 35.5 -15t15.5 -35q0 -8 -3 -16.5t-11 -16.5z" />
    <glyph glyph-name="ecircumflex" unicode="&#xea;" horiz-adv-x="662" 
d="M40 0zM137 0q-97 0 -97 98v508q0 98 97 98h388q46 0 72 -28.5t26 -69.5q0 -39 -26 -68t-72 -29h-292v-60h292q46 0 72 -28.5t26 -68.5t-26 -68.5t-72 -28.5h-292v-59h292q46 0 72 -29t26 -69q0 -41 -26 -69.5t-72 -28.5h-388zM331 800l-94 -51q-7 -4 -13 -5t-13 -1
q-20 0 -35 15.5t-15 37.5q0 8 6.5 21.5t20.5 21.5l117 63q17 5 27 5q6 0 12.5 -1t11.5 -4l117 -63q14 -8 20.5 -21.5t6.5 -21.5q0 -22 -15 -37.5t-35 -15.5q-15 0 -25 6z" />
    <glyph glyph-name="edieresis" unicode="&#xeb;" horiz-adv-x="662" 
d="M40 0zM137 0q-97 0 -97 98v508q0 98 97 98h388q46 0 72 -28.5t26 -69.5q0 -39 -26 -68t-72 -29h-292v-60h292q46 0 72 -28.5t26 -68.5t-26 -68.5t-72 -28.5h-292v-59h292q46 0 72 -29t26 -69q0 -41 -26 -69.5t-72 -28.5h-388zM135 825q0 32 21 53.5t52 21.5
q32 0 53 -21.5t21 -53.5q0 -31 -21 -51.5t-53 -20.5q-31 0 -52 20.5t-21 51.5zM379 825q0 32 22 53.5t53 21.5t51.5 -21.5t20.5 -53.5q0 -31 -20.5 -51.5t-51.5 -20.5t-53 20.5t-22 51.5z" />
    <glyph glyph-name="igrave" unicode="&#xec;" horiz-adv-x="274" 
d="M0 0zM233 93q0 -48 -29 -72.5t-68 -24.5q-40 0 -68.5 24.5t-28.5 72.5v518q0 46 28.5 71t68.5 25q39 0 68 -25t29 -71v-518zM2 865q-8 8 -11 16.5t-3 16.5q0 20 15.5 35t35.5 15q18 0 32 -15l103 -106q14 -14 14 -33q0 -20 -15 -35.5t-35 -15.5q-19 0 -35 16z" />
    <glyph glyph-name="iacute" unicode="&#xed;" horiz-adv-x="274" 
d="M39 0zM233 93q0 -48 -29 -72.5t-68 -24.5q-40 0 -68.5 24.5t-28.5 72.5v518q0 46 28.5 71t68.5 25q39 0 68 -25t29 -71v-518zM172 759q-16 -16 -35 -16q-20 0 -35 15.5t-15 35.5q0 19 14 33l103 106q13 15 32 15q20 0 35.5 -15t15.5 -35q0 -8 -3 -16.5t-11 -16.5z" />
    <glyph glyph-name="icircumflex" unicode="&#xee;" horiz-adv-x="274" 
d="M0 0zM233 93q0 -48 -29 -72.5t-68 -24.5q-40 0 -68.5 24.5t-28.5 72.5v518q0 46 28.5 71t68.5 25q39 0 68 -25t29 -71v-518zM139 800l-94 -51q-7 -4 -13 -5t-13 -1q-20 0 -35 15.5t-15 37.5q0 8 6.5 21.5t20.5 21.5l117 63q17 5 27 5q6 0 12.5 -1t11.5 -4l117 -63
q14 -8 20.5 -21.5t6.5 -21.5q0 -22 -15 -37.5t-35 -15.5q-15 0 -25 6z" />
    <glyph glyph-name="idieresis" unicode="&#xef;" horiz-adv-x="274" 
d="M0 0zM233 93q0 -48 -29 -72.5t-68 -24.5q-40 0 -68.5 24.5t-28.5 72.5v518q0 46 28.5 71t68.5 25q39 0 68 -25t29 -71v-518zM-57 825q0 32 21 53.5t52 21.5q32 0 53 -21.5t21 -53.5q0 -31 -21 -51.5t-53 -20.5q-31 0 -52 20.5t-21 51.5zM187 825q0 32 22 53.5t53 21.5
t51.5 -21.5t20.5 -53.5q0 -31 -20.5 -51.5t-51.5 -20.5t-53 20.5t-22 51.5z" />
    <glyph glyph-name="eth" unicode="&#xf0;" horiz-adv-x="742" 
d="M6 0zM86 606q0 18 8 35.5t22 31.5t32 22.5t39 8.5h153q86 0 155.5 -27.5t119 -75t76 -111.5t26.5 -136q0 -76 -27 -141t-75.5 -112t-115 -74t-144.5 -27h-168q-46 0 -73.5 26.5t-27.5 71.5v155q-40 6 -60 34.5t-20 62.5q0 17 5.5 33.5t16 30t25 22.5t33.5 12v158z
M280 196h76q34 0 64 11.5t52 32t34.5 49t12.5 63.5q0 32 -12 60t-34 49t-52 33.5t-66 12.5h-75v-58h72q46 0 71.5 -29.5t25.5 -69.5q0 -39 -25.5 -68.5t-71.5 -29.5h-72v-56z" />
    <glyph glyph-name="ntilde" unicode="&#xf1;" horiz-adv-x="755" 
d="M40 0zM259 507q-26 0 -26 -26v-383q0 -54 -22.5 -78.5t-73.5 -24.5q-97 0 -97 103v544q0 62 60 62h552q62 0 62 -62v-544q0 -102 -97 -102t-97 102v383q0 26 -25 26h-236zM512 886q9 11 18 14.5t15 3.5q20 0 35.5 -14t15.5 -34q0 -23 -12 -41.5t-30.5 -32t-41.5 -20.5
t-45 -7q-23 0 -46 7.5t-44.5 16t-41.5 16t-38 7.5q-15 0 -25 -7t-30 -28q-8 -9 -17 -13t-16 -4q-18 0 -34 14t-16 34q0 22 12 41t30.5 32.5t41.5 21t45 7.5q21 0 43 -7.5t43.5 -16t42 -16t39.5 -7.5q17 0 27.5 6.5t28.5 26.5z" />
    <glyph glyph-name="ograve" unicode="&#xf2;" 
d="M35 0zM710 227q0 -114 -55 -170.5t-163 -56.5h-239q-108 0 -163 56.5t-55 170.5v250q0 114 55 170.5t163 56.5h239q108 0 163 -56.5t55 -170.5v-250zM259 507q-14 0 -22 -6.5t-8 -20.5v-253q0 -29 30 -29h227q29 0 29 29v250q0 30 -29 30h-227zM237 865q-8 8 -11 16.5
t-3 16.5q0 20 15.5 35t35.5 15q18 0 32 -15l103 -106q14 -14 14 -33q0 -20 -15 -35.5t-35 -15.5q-19 0 -35 16z" />
    <glyph glyph-name="oacute" unicode="&#xf3;" 
d="M35 0zM710 227q0 -114 -55 -170.5t-163 -56.5h-239q-108 0 -163 56.5t-55 170.5v250q0 114 55 170.5t163 56.5h239q108 0 163 -56.5t55 -170.5v-250zM259 507q-14 0 -22 -6.5t-8 -20.5v-253q0 -29 30 -29h227q29 0 29 29v250q0 30 -29 30h-227zM408 759q-16 -16 -35 -16
q-20 0 -35 15.5t-15 35.5q0 19 14 33l103 106q13 15 32 15q20 0 35.5 -15t15.5 -35q0 -8 -3 -16.5t-11 -16.5z" />
    <glyph glyph-name="ocircumflex" unicode="&#xf4;" 
d="M35 0zM710 227q0 -114 -55 -170.5t-163 -56.5h-239q-108 0 -163 56.5t-55 170.5v250q0 114 55 170.5t163 56.5h239q108 0 163 -56.5t55 -170.5v-250zM259 507q-14 0 -22 -6.5t-8 -20.5v-253q0 -29 30 -29h227q29 0 29 29v250q0 30 -29 30h-227zM374 800l-94 -51
q-7 -4 -13 -5t-13 -1q-20 0 -35 15.5t-15 37.5q0 8 6.5 21.5t20.5 21.5l117 63q17 5 27 5q6 0 12.5 -1t11.5 -4l117 -63q14 -8 20.5 -21.5t6.5 -21.5q0 -22 -15 -37.5t-35 -15.5q-15 0 -25 6z" />
    <glyph glyph-name="otilde" unicode="&#xf5;" 
d="M35 0zM710 227q0 -114 -55 -170.5t-163 -56.5h-239q-108 0 -163 56.5t-55 170.5v250q0 114 55 170.5t163 56.5h239q108 0 163 -56.5t55 -170.5v-250zM259 507q-14 0 -22 -6.5t-8 -20.5v-253q0 -29 30 -29h227q29 0 29 29v250q0 30 -29 30h-227zM508 886q9 11 18 14.5
t15 3.5q20 0 35.5 -14t15.5 -34q0 -23 -12 -41.5t-30.5 -32t-41.5 -20.5t-45 -7q-23 0 -46 7.5t-44.5 16t-41.5 16t-38 7.5q-15 0 -25 -7t-30 -28q-8 -9 -17 -13t-16 -4q-18 0 -34 14t-16 34q0 22 12 41t30.5 32.5t41.5 21t45 7.5q21 0 43 -7.5t43.5 -16t42 -16t39.5 -7.5
q17 0 27.5 6.5t28.5 26.5z" />
    <glyph glyph-name="odieresis" unicode="&#xf6;" 
d="M35 0zM710 227q0 -114 -55 -170.5t-163 -56.5h-239q-108 0 -163 56.5t-55 170.5v250q0 114 55 170.5t163 56.5h239q108 0 163 -56.5t55 -170.5v-250zM259 507q-14 0 -22 -6.5t-8 -20.5v-253q0 -29 30 -29h227q29 0 29 29v250q0 30 -29 30h-227zM178 825q0 32 21 53.5
t52 21.5q32 0 53 -21.5t21 -53.5q0 -31 -21 -51.5t-53 -20.5q-31 0 -52 20.5t-21 51.5zM422 825q0 32 22 53.5t53 21.5t51.5 -21.5t20.5 -53.5q0 -31 -20.5 -51.5t-51.5 -20.5t-53 20.5t-22 51.5z" />
    <glyph glyph-name="divide" unicode="&#xf7;" horiz-adv-x="580" 
d="M114 269q-38 0 -59.5 24t-21.5 56q0 34 21.5 59t59.5 25h351q38 0 59.5 -25t21.5 -59q0 -32 -21.5 -56t-59.5 -24h-351zM387 123q0 -20 -8 -37t-21.5 -30.5t-31.5 -21t-37 -7.5q-20 0 -37.5 7.5t-31 21t-21 30.5t-7.5 37q0 19 7.5 37t21 31.5t31 21.5t37.5 8q19 0 37 -8
t31.5 -21.5t21.5 -31.5t8 -37zM386 574q0 -43 -28.5 -70.5t-68.5 -27.5t-68.5 27.5t-28.5 70.5q0 20 7.5 37.5t21 31t31 21t37.5 7.5t37.5 -7.5t31 -21t21 -31t7.5 -37.5z" />
    <glyph glyph-name="oslash" unicode="&#xf8;" 
d="M35 0zM710 228q0 -227 -218 -227h-215l-44 -93q-8 -19 -21.5 -28t-30.5 -9q-28 0 -47.5 17t-19.5 41q0 16 7 29l28 61q-114 46 -114 209v249q0 227 218 227h215l25 52q18 37 52 37q24 0 44.5 -17.5t20.5 -43.5q0 -12 -5 -25l-10 -21q115 -45 115 -209v-249zM230 228
q0 -16 6 -22l140 301h-117q-28 0 -29 -27v-252zM486 199q29 0 29 29v249q0 15 -7 22l-139 -300h117z" />
    <glyph glyph-name="ugrave" unicode="&#xf9;" horiz-adv-x="756" 
d="M40 0zM496 197q24 0 24 22v385q0 54 23 78.5t73 24.5q99 0 99 -103v-542q0 -62 -60 -62h-554q-61 0 -61 62v542q0 102 97 102t97 -102v-381q0 -26 25 -26h237zM242 865q-8 8 -11 16.5t-3 16.5q0 20 15.5 35t35.5 15q18 0 32 -15l103 -106q14 -14 14 -33q0 -20 -15 -35.5
t-35 -15.5q-19 0 -35 16z" />
    <glyph glyph-name="uacute" unicode="&#xfa;" horiz-adv-x="756" 
d="M40 0zM496 197q24 0 24 22v385q0 54 23 78.5t73 24.5q99 0 99 -103v-542q0 -62 -60 -62h-554q-61 0 -61 62v542q0 102 97 102t97 -102v-381q0 -26 25 -26h237zM413 759q-16 -16 -35 -16q-20 0 -35 15.5t-15 35.5q0 19 14 33l103 106q13 15 32 15q20 0 35.5 -15t15.5 -35
q0 -8 -3 -16.5t-11 -16.5z" />
    <glyph glyph-name="ucircumflex" unicode="&#xfb;" horiz-adv-x="756" 
d="M40 0zM496 197q24 0 24 22v385q0 54 23 78.5t73 24.5q99 0 99 -103v-542q0 -62 -60 -62h-554q-61 0 -61 62v542q0 102 97 102t97 -102v-381q0 -26 25 -26h237zM378 800l-94 -51q-7 -4 -13 -5t-13 -1q-20 0 -35 15.5t-15 37.5q0 8 6.5 21.5t20.5 21.5l117 63q17 5 27 5
q6 0 12.5 -1t11.5 -4l117 -63q14 -8 20.5 -21.5t6.5 -21.5q0 -22 -15 -37.5t-35 -15.5q-15 0 -25 6z" />
    <glyph glyph-name="udieresis" unicode="&#xfc;" horiz-adv-x="756" 
d="M40 0zM496 197q24 0 24 22v385q0 54 23 78.5t73 24.5q99 0 99 -103v-542q0 -62 -60 -62h-554q-61 0 -61 62v542q0 102 97 102t97 -102v-381q0 -26 25 -26h237zM182 825q0 32 21 53.5t52 21.5q32 0 53 -21.5t21 -53.5q0 -31 -21 -51.5t-53 -20.5q-31 0 -52 20.5t-21 51.5z
M426 825q0 32 22 53.5t53 21.5t51.5 -21.5t20.5 -53.5q0 -31 -20.5 -51.5t-51.5 -20.5t-53 20.5t-22 51.5z" />
    <glyph glyph-name="yacute" unicode="&#xfd;" horiz-adv-x="576" 
d="M18 0zM375 657q15 26 37.5 38t45.5 12q19 0 37 -7.5t32 -20t22.5 -30t8.5 -37.5q0 -27 -16 -53l-156 -254v-212q0 -48 -29 -72.5t-68 -24.5q-40 0 -68.5 24.5t-28.5 72.5v212l-158 255q-16 25 -16 49q0 20 8.5 38t22.5 31.5t32 21t38 7.5q21 0 44 -11.5t38 -37.5l87 -152
zM323 759q-16 -16 -35 -16q-20 0 -35 15.5t-15 35.5q0 19 14 33l103 106q13 15 32 15q20 0 35.5 -15t15.5 -35q0 -8 -3 -16.5t-11 -16.5z" />
    <glyph glyph-name="thorn" unicode="&#xfe;" horiz-adv-x="613" 
d="M39 0zM231 96q0 -100 -97 -100q-50 0 -72.5 24.5t-22.5 75.5v109q0 60 26 89t83 29h245q39 0 39 30t-39 30h-244q-59 0 -84.5 24.5t-25.5 75.5v124q0 51 22.5 75.5t72.5 24.5q97 0 97 -100v-29h151q219 0 219 -225q0 -224 -217 -224h-153v-33z" />
    <glyph glyph-name="ydieresis" unicode="&#xff;" horiz-adv-x="576" 
d="M18 0zM375 657q15 26 37.5 38t45.5 12q19 0 37 -7.5t32 -20t22.5 -30t8.5 -37.5q0 -27 -16 -53l-156 -254v-212q0 -48 -29 -72.5t-68 -24.5q-40 0 -68.5 24.5t-28.5 72.5v212l-158 255q-16 25 -16 49q0 20 8.5 38t22.5 31.5t32 21t38 7.5q21 0 44 -11.5t38 -37.5l87 -152
zM92 825q0 32 21 53.5t52 21.5q32 0 53 -21.5t21 -53.5q0 -31 -21 -51.5t-53 -20.5q-31 0 -52 20.5t-21 51.5zM336 825q0 32 22 53.5t53 21.5t51.5 -21.5t20.5 -53.5q0 -31 -20.5 -51.5t-51.5 -20.5t-53 20.5t-22 51.5z" />
    <glyph glyph-name="Amacron" unicode="&#x100;" horiz-adv-x="694" 
d="M18 0zM666 128q4 -10 5.5 -20t1.5 -18q0 -22 -9 -39.5t-24 -29.5t-34 -18.5t-39 -6.5q-57 0 -83 63l-14 34h-247l-16 -34q-30 -63 -86 -63q-20 0 -38.5 7t-32.5 20t-23 30.5t-9 38.5q0 9 0.5 18t5.5 18l107 237q14 32 36 48t49 16q21 0 39.5 -7t33 -20t23 -30t8.5 -36
q0 -22 -7 -39l-11 -26h95l-127 303q-5 11 -6 20t-1 18q0 21 8.5 38t23 30t32.5 20t38 7q28 0 50.5 -16t36.5 -48zM210 759q-31 0 -48.5 19.5t-17.5 45.5q0 27 17.5 48t48.5 21h273q31 0 48.5 -21t17.5 -48q0 -26 -17.5 -45.5t-48.5 -19.5h-273z" />
    <glyph glyph-name="amacron" unicode="&#x101;" horiz-adv-x="694" 
d="M18 0zM666 128q4 -10 5.5 -20t1.5 -18q0 -22 -9 -39.5t-24 -29.5t-34 -18.5t-39 -6.5q-57 0 -83 63l-14 34h-247l-16 -34q-30 -63 -86 -63q-20 0 -38.5 7t-32.5 20t-23 30.5t-9 38.5q0 9 0.5 18t5.5 18l107 237q14 32 36 48t49 16q21 0 39.5 -7t33 -20t23 -30t8.5 -36
q0 -22 -7 -39l-11 -26h95l-127 303q-5 11 -6 20t-1 18q0 21 8.5 38t23 30t32.5 20t38 7q28 0 50.5 -16t36.5 -48zM210 759q-31 0 -48.5 19.5t-17.5 45.5q0 27 17.5 48t48.5 21h273q31 0 48.5 -21t17.5 -48q0 -26 -17.5 -45.5t-48.5 -19.5h-273z" />
    <glyph glyph-name="Abreve" unicode="&#x102;" horiz-adv-x="694" 
d="M18 0zM666 128q4 -10 5.5 -20t1.5 -18q0 -22 -9 -39.5t-24 -29.5t-34 -18.5t-39 -6.5q-57 0 -83 63l-14 34h-247l-16 -34q-30 -63 -86 -63q-20 0 -38.5 7t-32.5 20t-23 30.5t-9 38.5q0 9 0.5 18t5.5 18l107 237q14 32 36 48t49 16q21 0 39.5 -7t33 -20t23 -30t8.5 -36
q0 -22 -7 -39l-11 -26h95l-127 303q-5 11 -6 20t-1 18q0 21 8.5 38t23 30t32.5 20t38 7q28 0 50.5 -16t36.5 -48zM466 907q20 0 35 -15.5t15 -36.5q0 -27 -17 -47.5t-42.5 -35t-55 -22t-54.5 -7.5q-26 0 -55.5 7.5t-55 22t-42.5 35t-17 47.5q0 21 15 36.5t35 15.5
q23 0 34 -10t20.5 -22.5t23 -22.5t42.5 -10q28 0 41.5 10t23 22.5t20.5 22.5t34 10z" />
    <glyph glyph-name="abreve" unicode="&#x103;" horiz-adv-x="694" 
d="M18 0zM666 128q4 -10 5.5 -20t1.5 -18q0 -22 -9 -39.5t-24 -29.5t-34 -18.5t-39 -6.5q-57 0 -83 63l-14 34h-247l-16 -34q-30 -63 -86 -63q-20 0 -38.5 7t-32.5 20t-23 30.5t-9 38.5q0 9 0.5 18t5.5 18l107 237q14 32 36 48t49 16q21 0 39.5 -7t33 -20t23 -30t8.5 -36
q0 -22 -7 -39l-11 -26h95l-127 303q-5 11 -6 20t-1 18q0 21 8.5 38t23 30t32.5 20t38 7q28 0 50.5 -16t36.5 -48zM466 907q20 0 35 -15.5t15 -36.5q0 -27 -17 -47.5t-42.5 -35t-55 -22t-54.5 -7.5q-26 0 -55.5 7.5t-55 22t-42.5 35t-17 47.5q0 21 15 36.5t35 15.5
q23 0 34 -10t20.5 -22.5t23 -22.5t42.5 -10q28 0 41.5 10t23 22.5t20.5 22.5t34 10z" />
    <glyph glyph-name="Aogonek" unicode="&#x104;" horiz-adv-x="694" 
d="M666 128q4 -10 5.5 -20t1.5 -18q0 -22 -9 -39.5t-24 -29.5t-34 -18.5t-39 -6.5q-24 0 -35 -8.5t-11 -22.5q0 -19 13.5 -25t58.5 -6t66.5 -25t21.5 -60q0 -33 -21.5 -58t-61.5 -25q-51 0 -86 11t-56.5 30t-30.5 44.5t-9 54.5q0 36 9 60t20 42.5t20 33t9 30.5q0 10 -4 21
h-247l-16 -34q-30 -63 -86 -63q-20 0 -38.5 7t-32.5 20t-23 30.5t-9 38.5q-1 9 0 18t6 18l107 237q14 32 36 48t49 16q21 0 39.5 -7t33 -20t23 -30t8.5 -36q0 -22 -7 -39l-11 -26h95l-127 303q-5 11 -6 20t-1 18q0 21 8.5 38t23 30t32.5 20t38 7q28 0 50.5 -16t36.5 -48z
" />
    <glyph glyph-name="aogonek" unicode="&#x105;" horiz-adv-x="694" 
d="M17 0zM666 128q4 -10 5.5 -20t1.5 -18q0 -22 -9 -39.5t-24 -29.5t-34 -18.5t-39 -6.5q-24 0 -35 -8.5t-11 -22.5q0 -19 13.5 -25t58.5 -6t66.5 -25t21.5 -60q0 -33 -21.5 -58t-61.5 -25q-51 0 -86 11t-56.5 30t-30.5 44.5t-9 54.5q0 36 9 60t20 42.5t20 33t9 30.5
q0 10 -4 21h-247l-16 -34q-30 -63 -86 -63q-20 0 -38.5 7t-32.5 20t-23 30.5t-9 38.5q-1 9 0 18t6 18l107 237q14 32 36 48t49 16q21 0 39.5 -7t33 -20t23 -30t8.5 -36q0 -22 -7 -39l-11 -26h95l-127 303q-5 11 -6 20t-1 18q0 21 8.5 38t23 30t32.5 20t38 7q28 0 50.5 -16
t36.5 -48z" />
    <glyph glyph-name="Cacute" unicode="&#x106;" horiz-adv-x="722" 
d="M35 0zM253 0q-108 0 -163 56.5t-55 170.5v250q0 114 55 170.5t163 56.5h324q63 0 91 -24.5t28 -75.5t-28 -74t-91 -23h-319q-28 0 -29 -27v-253q0 -29 29 -29h322q63 0 89.5 -24.5t26.5 -74.5q0 -51 -26.5 -75t-89.5 -24h-327zM396 759q-16 -16 -35 -16q-20 0 -35 15.5
t-15 35.5q0 19 14 33l103 106q13 15 32 15q20 0 35.5 -15t15.5 -35q0 -8 -3 -16.5t-11 -16.5z" />
    <glyph glyph-name="cacute" unicode="&#x107;" horiz-adv-x="722" 
d="M35 0zM253 0q-108 0 -163 56.5t-55 170.5v250q0 114 55 170.5t163 56.5h324q63 0 91 -24.5t28 -75.5t-28 -74t-91 -23h-319q-28 0 -29 -27v-253q0 -29 29 -29h322q63 0 89.5 -24.5t26.5 -74.5q0 -51 -26.5 -75t-89.5 -24h-327zM396 759q-16 -16 -35 -16q-20 0 -35 15.5
t-15 35.5q0 19 14 33l103 106q13 15 32 15q20 0 35.5 -15t15.5 -35q0 -8 -3 -16.5t-11 -16.5z" />
    <glyph glyph-name="Cdotaccent" unicode="&#x10a;" horiz-adv-x="722" 
d="M35 0zM253 0q-108 0 -163 56.5t-55 170.5v250q0 114 55 170.5t163 56.5h324q63 0 91 -24.5t28 -75.5t-28 -74t-91 -23h-319q-28 0 -29 -27v-253q0 -29 29 -29h322q63 0 89.5 -24.5t26.5 -74.5q0 -51 -26.5 -75t-89.5 -24h-327zM287 825q0 32 21 53.5t52 21.5
q32 0 53 -21.5t21 -53.5q0 -31 -21 -51.5t-53 -20.5q-31 0 -52 20.5t-21 51.5z" />
    <glyph glyph-name="cdotaccent" unicode="&#x10b;" horiz-adv-x="722" 
d="M35 0zM253 0q-108 0 -163 56.5t-55 170.5v250q0 114 55 170.5t163 56.5h324q63 0 91 -24.5t28 -75.5t-28 -74t-91 -23h-319q-28 0 -29 -27v-253q0 -29 29 -29h322q63 0 89.5 -24.5t26.5 -74.5q0 -51 -26.5 -75t-89.5 -24h-327zM287 825q0 32 21 53.5t52 21.5
q32 0 53 -21.5t21 -53.5q0 -31 -21 -51.5t-53 -20.5q-31 0 -52 20.5t-21 51.5z" />
    <glyph glyph-name="Ccaron" unicode="&#x10c;" horiz-adv-x="722" 
d="M35 0zM253 0q-108 0 -163 56.5t-55 170.5v250q0 114 55 170.5t163 56.5h324q63 0 91 -24.5t28 -75.5t-28 -74t-91 -23h-319q-28 0 -29 -27v-253q0 -29 29 -29h322q63 0 89.5 -24.5t26.5 -74.5q0 -51 -26.5 -75t-89.5 -24h-327zM361 851l94 51q6 4 12 4.5t13 0.5
q20 0 35 -15.5t15 -36.5q0 -31 -27 -44l-117 -62q-11 -6 -27 -6q-14 0 -24 6l-117 62q-15 8 -21 19t-6 25q0 21 15 36.5t35 15.5q7 0 13 -0.5t13 -4.5z" />
    <glyph glyph-name="ccaron" unicode="&#x10d;" horiz-adv-x="722" 
d="M35 0zM253 0q-108 0 -163 56.5t-55 170.5v250q0 114 55 170.5t163 56.5h324q63 0 91 -24.5t28 -75.5t-28 -74t-91 -23h-319q-28 0 -29 -27v-253q0 -29 29 -29h322q63 0 89.5 -24.5t26.5 -74.5q0 -51 -26.5 -75t-89.5 -24h-327zM361 851l94 51q6 4 12 4.5t13 0.5
q20 0 35 -15.5t15 -36.5q0 -31 -27 -44l-117 -62q-11 -6 -27 -6q-14 0 -24 6l-117 62q-15 8 -21 19t-6 25q0 21 15 36.5t35 15.5q7 0 13 -0.5t13 -4.5z" />
    <glyph glyph-name="Dcaron" unicode="&#x10e;" horiz-adv-x="675" 
d="M40 0zM234 196h77q34 0 63.5 11t51.5 31t34.5 49t12.5 65t-12 64.5t-34 49t-51.5 31t-65.5 10.5h-76v-311zM40 606q0 18 7.5 35.5t21 31.5t32 22.5t40.5 8.5h154q87 0 156.5 -28t118 -76t75 -111.5t26.5 -134.5q0 -75 -27 -138.5t-75 -110t-114.5 -74t-144.5 -31.5h-169
q-48 0 -74.5 26t-26.5 72v508zM338 851l94 51q6 4 12 4.5t13 0.5q20 0 35 -15.5t15 -36.5q0 -31 -27 -44l-117 -62q-11 -6 -27 -6q-14 0 -24 6l-117 62q-15 8 -21 19t-6 25q0 21 15 36.5t35 15.5q7 0 13 -0.5t13 -4.5z" />
    <glyph glyph-name="dcaron" unicode="&#x10f;" horiz-adv-x="675" 
d="M40 0zM234 196h77q34 0 63.5 11t51.5 31t34.5 49t12.5 65t-12 64.5t-34 49t-51.5 31t-65.5 10.5h-76v-311zM40 606q0 18 7.5 35.5t21 31.5t32 22.5t40.5 8.5h154q87 0 156.5 -28t118 -76t75 -111.5t26.5 -134.5q0 -75 -27 -138.5t-75 -110t-114.5 -74t-144.5 -31.5h-169
q-48 0 -74.5 26t-26.5 72v508zM338 851l94 51q6 4 12 4.5t13 0.5q20 0 35 -15.5t15 -36.5q0 -31 -27 -44l-117 -62q-11 -6 -27 -6q-14 0 -24 6l-117 62q-15 8 -21 19t-6 25q0 21 15 36.5t35 15.5q7 0 13 -0.5t13 -4.5z" />
    <glyph glyph-name="Dcroat" unicode="&#x110;" horiz-adv-x="742" 
d="M6 0zM86 606q0 18 8 35.5t22 31.5t32 22.5t39 8.5h153q86 0 155.5 -27.5t119 -75t76 -111.5t26.5 -136q0 -76 -27 -141t-75.5 -112t-115 -74t-144.5 -27h-168q-46 0 -73.5 26.5t-27.5 71.5v155q-40 6 -60 34.5t-20 62.5q0 17 5.5 33.5t16 30t25 22.5t33.5 12v158z
M280 196h76q34 0 64 11.5t52 32t34.5 49t12.5 63.5q0 32 -12 60t-34 49t-52 33.5t-66 12.5h-75v-58h72q46 0 71.5 -29.5t25.5 -69.5q0 -39 -25.5 -68.5t-71.5 -29.5h-72v-56z" />
    <glyph glyph-name="dcroat" unicode="&#x111;" horiz-adv-x="742" 
d="M6 0zM86 606q0 18 8 35.5t22 31.5t32 22.5t39 8.5h153q86 0 155.5 -27.5t119 -75t76 -111.5t26.5 -136q0 -76 -27 -141t-75.5 -112t-115 -74t-144.5 -27h-168q-46 0 -73.5 26.5t-27.5 71.5v155q-40 6 -60 34.5t-20 62.5q0 17 5.5 33.5t16 30t25 22.5t33.5 12v158z
M280 196h76q34 0 64 11.5t52 32t34.5 49t12.5 63.5q0 32 -12 60t-34 49t-52 33.5t-66 12.5h-75v-58h72q46 0 71.5 -29.5t25.5 -69.5q0 -39 -25.5 -68.5t-71.5 -29.5h-72v-56z" />
    <glyph glyph-name="Emacron" unicode="&#x112;" horiz-adv-x="662" 
d="M40 0zM137 0q-97 0 -97 98v508q0 98 97 98h388q46 0 72 -28.5t26 -69.5q0 -39 -26 -68t-72 -29h-292v-60h292q46 0 72 -28.5t26 -68.5t-26 -68.5t-72 -28.5h-292v-59h292q46 0 72 -29t26 -69q0 -41 -26 -69.5t-72 -28.5h-388zM194 759q-31 0 -48.5 19.5t-17.5 45.5
q0 27 17.5 48t48.5 21h273q31 0 48.5 -21t17.5 -48q0 -26 -17.5 -45.5t-48.5 -19.5h-273z" />
    <glyph glyph-name="emacron" unicode="&#x113;" horiz-adv-x="662" 
d="M40 0zM137 0q-97 0 -97 98v508q0 98 97 98h388q46 0 72 -28.5t26 -69.5q0 -39 -26 -68t-72 -29h-292v-60h292q46 0 72 -28.5t26 -68.5t-26 -68.5t-72 -28.5h-292v-59h292q46 0 72 -29t26 -69q0 -41 -26 -69.5t-72 -28.5h-388zM194 759q-31 0 -48.5 19.5t-17.5 45.5
q0 27 17.5 48t48.5 21h273q31 0 48.5 -21t17.5 -48q0 -26 -17.5 -45.5t-48.5 -19.5h-273z" />
    <glyph glyph-name="Ebreve" unicode="&#x114;" horiz-adv-x="662" 
d="M40 0zM137 0q-97 0 -97 98v508q0 98 97 98h388q46 0 72 -28.5t26 -69.5q0 -39 -26 -68t-72 -29h-292v-60h292q46 0 72 -28.5t26 -68.5t-26 -68.5t-72 -28.5h-292v-59h292q46 0 72 -29t26 -69q0 -41 -26 -69.5t-72 -28.5h-388zM450 907q20 0 35 -15.5t15 -36.5
q0 -27 -17 -47.5t-42.5 -35t-55 -22t-54.5 -7.5q-26 0 -55.5 7.5t-55 22t-42.5 35t-17 47.5q0 21 15 36.5t35 15.5q23 0 34 -10t20.5 -22.5t23 -22.5t42.5 -10q28 0 41.5 10t23 22.5t20.5 22.5t34 10z" />
    <glyph glyph-name="ebreve" unicode="&#x115;" horiz-adv-x="662" 
d="M40 0zM137 0q-97 0 -97 98v508q0 98 97 98h388q46 0 72 -28.5t26 -69.5q0 -39 -26 -68t-72 -29h-292v-60h292q46 0 72 -28.5t26 -68.5t-26 -68.5t-72 -28.5h-292v-59h292q46 0 72 -29t26 -69q0 -41 -26 -69.5t-72 -28.5h-388zM450 907q20 0 35 -15.5t15 -36.5
q0 -27 -17 -47.5t-42.5 -35t-55 -22t-54.5 -7.5q-26 0 -55.5 7.5t-55 22t-42.5 35t-17 47.5q0 21 15 36.5t35 15.5q23 0 34 -10t20.5 -22.5t23 -22.5t42.5 -10q28 0 41.5 10t23 22.5t20.5 22.5t34 10z" />
    <glyph glyph-name="Edotaccent" unicode="&#x116;" horiz-adv-x="662" 
d="M40 0zM137 0q-97 0 -97 98v508q0 98 97 98h388q46 0 72 -28.5t26 -69.5q0 -39 -26 -68t-72 -29h-292v-60h292q46 0 72 -28.5t26 -68.5t-26 -68.5t-72 -28.5h-292v-59h292q46 0 72 -29t26 -69q0 -41 -26 -69.5t-72 -28.5h-388zM257 825q0 32 21 53.5t52 21.5
q32 0 53 -21.5t21 -53.5q0 -31 -21 -51.5t-53 -20.5q-31 0 -52 20.5t-21 51.5z" />
    <glyph glyph-name="edotaccent" unicode="&#x117;" horiz-adv-x="662" 
d="M40 0zM137 0q-97 0 -97 98v508q0 98 97 98h388q46 0 72 -28.5t26 -69.5q0 -39 -26 -68t-72 -29h-292v-60h292q46 0 72 -28.5t26 -68.5t-26 -68.5t-72 -28.5h-292v-59h292q46 0 72 -29t26 -69q0 -41 -26 -69.5t-72 -28.5h-388zM257 825q0 32 21 53.5t52 21.5
q32 0 53 -21.5t21 -53.5q0 -31 -21 -51.5t-53 -20.5q-31 0 -52 20.5t-21 51.5z" />
    <glyph glyph-name="Eogonek" unicode="&#x118;" horiz-adv-x="662" 
d="M503 0q-23 0 -31.5 -8.5t-8.5 -22.5q0 -22 13.5 -28.5t58.5 -6.5t66.5 -25t21.5 -60q0 -33 -21.5 -58t-61.5 -25q-51 0 -86 11t-56.5 30t-30.5 44.5t-9 54.5q0 23 6 48t17 46h-244q-97 0 -97 98v508q0 98 97 98h388q46 0 72 -28.5t26 -69.5q0 -39 -26 -68t-72 -29h-292
v-60h292q46 0 72 -28.5t26 -68.5t-26 -68.5t-72 -28.5h-292v-59h292q46 0 72 -29t26 -69q0 -41 -26 -69.5t-72 -28.5h-22z" />
    <glyph glyph-name="eogonek" unicode="&#x119;" horiz-adv-x="662" 
d="M40 0zM503 0q-23 0 -31.5 -8.5t-8.5 -22.5q0 -22 13.5 -28.5t58.5 -6.5t66.5 -25t21.5 -60q0 -33 -21.5 -58t-61.5 -25q-51 0 -86 11t-56.5 30t-30.5 44.5t-9 54.5q0 23 6 48t17 46h-244q-97 0 -97 98v508q0 98 97 98h388q46 0 72 -28.5t26 -69.5q0 -39 -26 -68t-72 -29
h-292v-60h292q46 0 72 -28.5t26 -68.5t-26 -68.5t-72 -28.5h-292v-59h292q46 0 72 -29t26 -69q0 -41 -26 -69.5t-72 -28.5h-22z" />
    <glyph glyph-name="Ecaron" unicode="&#x11a;" horiz-adv-x="662" 
d="M40 0zM137 0q-97 0 -97 98v508q0 98 97 98h388q46 0 72 -28.5t26 -69.5q0 -39 -26 -68t-72 -29h-292v-60h292q46 0 72 -28.5t26 -68.5t-26 -68.5t-72 -28.5h-292v-59h292q46 0 72 -29t26 -69q0 -41 -26 -69.5t-72 -28.5h-388zM331 851l94 51q6 4 12 4.5t13 0.5
q20 0 35 -15.5t15 -36.5q0 -31 -27 -44l-117 -62q-11 -6 -27 -6q-14 0 -24 6l-117 62q-15 8 -21 19t-6 25q0 21 15 36.5t35 15.5q7 0 13 -0.5t13 -4.5z" />
    <glyph glyph-name="ecaron" unicode="&#x11b;" horiz-adv-x="662" 
d="M40 0zM137 0q-97 0 -97 98v508q0 98 97 98h388q46 0 72 -28.5t26 -69.5q0 -39 -26 -68t-72 -29h-292v-60h292q46 0 72 -28.5t26 -68.5t-26 -68.5t-72 -28.5h-292v-59h292q46 0 72 -29t26 -69q0 -41 -26 -69.5t-72 -28.5h-388zM331 851l94 51q6 4 12 4.5t13 0.5
q20 0 35 -15.5t15 -36.5q0 -31 -27 -44l-117 -62q-11 -6 -27 -6q-14 0 -24 6l-117 62q-15 8 -21 19t-6 25q0 21 15 36.5t35 15.5q7 0 13 -0.5t13 -4.5z" />
    <glyph glyph-name="Gbreve" unicode="&#x11e;" horiz-adv-x="735" 
d="M35 1zM696 97q0 -48 -28 -72t-97 -24h-318q-108 0 -163 56.5t-55 170.5v249q0 114 55 170.5t163 56.5h326q59 0 88 -24t29 -75q0 -98 -117 -98h-321q-13 0 -21 -6.5t-8 -20.5v-252q0 -29 29 -29h245v137q0 48 28.5 72t69.5 24q38 0 66.5 -24t28.5 -72v-239zM487 907
q20 0 35 -15.5t15 -36.5q0 -27 -17 -47.5t-42.5 -35t-55 -22t-54.5 -7.5q-26 0 -55.5 7.5t-55 22t-42.5 35t-17 47.5q0 21 15 36.5t35 15.5q23 0 34 -10t20.5 -22.5t23 -22.5t42.5 -10q28 0 41.5 10t23 22.5t20.5 22.5t34 10z" />
    <glyph glyph-name="gbreve" unicode="&#x11f;" horiz-adv-x="735" 
d="M35 1zM696 97q0 -48 -28 -72t-97 -24h-318q-108 0 -163 56.5t-55 170.5v249q0 114 55 170.5t163 56.5h326q59 0 88 -24t29 -75q0 -98 -117 -98h-321q-13 0 -21 -6.5t-8 -20.5v-252q0 -29 29 -29h245v137q0 48 28.5 72t69.5 24q38 0 66.5 -24t28.5 -72v-239zM487 907
q20 0 35 -15.5t15 -36.5q0 -27 -17 -47.5t-42.5 -35t-55 -22t-54.5 -7.5q-26 0 -55.5 7.5t-55 22t-42.5 35t-17 47.5q0 21 15 36.5t35 15.5q23 0 34 -10t20.5 -22.5t23 -22.5t42.5 -10q28 0 41.5 10t23 22.5t20.5 22.5t34 10z" />
    <glyph glyph-name="Gdotaccent" unicode="&#x120;" horiz-adv-x="735" 
d="M35 1zM696 97q0 -48 -28 -72t-97 -24h-318q-108 0 -163 56.5t-55 170.5v249q0 114 55 170.5t163 56.5h326q59 0 88 -24t29 -75q0 -98 -117 -98h-321q-13 0 -21 -6.5t-8 -20.5v-252q0 -29 29 -29h245v137q0 48 28.5 72t69.5 24q38 0 66.5 -24t28.5 -72v-239zM294 825
q0 32 21 53.5t52 21.5q32 0 53 -21.5t21 -53.5q0 -31 -21 -51.5t-53 -20.5q-31 0 -52 20.5t-21 51.5z" />
    <glyph glyph-name="gdotaccent" unicode="&#x121;" horiz-adv-x="735" 
d="M35 1zM696 97q0 -48 -28 -72t-97 -24h-318q-108 0 -163 56.5t-55 170.5v249q0 114 55 170.5t163 56.5h326q59 0 88 -24t29 -75q0 -98 -117 -98h-321q-13 0 -21 -6.5t-8 -20.5v-252q0 -29 29 -29h245v137q0 48 28.5 72t69.5 24q38 0 66.5 -24t28.5 -72v-239zM294 825
q0 32 21 53.5t52 21.5q32 0 53 -21.5t21 -53.5q0 -31 -21 -51.5t-53 -20.5q-31 0 -52 20.5t-21 51.5z" />
    <glyph glyph-name="Gcommaaccent" unicode="&#x122;" horiz-adv-x="735" 
d="M35 0zM696 97q0 -48 -28 -72t-97 -24h-318q-108 0 -163 56.5t-55 170.5v249q0 114 55 170.5t163 56.5h326q59 0 88 -24t29 -75q0 -98 -117 -98h-321q-13 0 -21 -6.5t-8 -20.5v-252q0 -29 29 -29h245v137q0 48 28.5 72t69.5 24q38 0 66.5 -24t28.5 -72v-239zM415 -188
q-7 -24 -22 -35t-35 -11q-27 0 -46.5 15.5t-19.5 41.5q0 13 3 19l26 96q14 47 57 47q32 0 48 -19.5t16 -47.5q0 -4 -2 -10z" />
    <glyph glyph-name="gcommaaccent" unicode="&#x123;" horiz-adv-x="735" 
d="M35 0zM696 97q0 -48 -28 -72t-97 -24h-318q-108 0 -163 56.5t-55 170.5v249q0 114 55 170.5t163 56.5h326q59 0 88 -24t29 -75q0 -98 -117 -98h-321q-13 0 -21 -6.5t-8 -20.5v-252q0 -29 29 -29h245v137q0 48 28.5 72t69.5 24q38 0 66.5 -24t28.5 -72v-239zM415 -188
q-7 -24 -22 -35t-35 -11q-27 0 -46.5 15.5t-19.5 41.5q0 13 3 19l26 96q14 47 57 47q32 0 48 -19.5t16 -47.5q0 -4 -2 -10z" />
    <glyph glyph-name="Hbar" unicode="&#x126;" horiz-adv-x="745" 
d="M704 560q20 -8 30.5 -25.5t10.5 -38.5q0 -20 -10.5 -37t-30.5 -24v-342q0 -48 -29 -72.5t-68 -24.5q-40 0 -68.5 24.5t-28.5 72.5v62h-276v-62q0 -48 -28.5 -72.5t-68.5 -24.5q-39 0 -68 24.5t-29 72.5v342q-19 8 -29.5 24.5t-10.5 36.5t10.5 38t29.5 26v50q0 48 29 72.5
t68 24.5q40 0 68.5 -24.5t28.5 -72.5v-45h276v45q0 48 28.5 72.5t68.5 24.5q39 0 68 -24.5t29 -72.5v-50zM510 349v82h-276v-82h276z" />
    <glyph glyph-name="hbar" unicode="&#x127;" horiz-adv-x="745" 
d="M0 0zM704 560q20 -8 30.5 -25.5t10.5 -38.5q0 -20 -10.5 -37t-30.5 -24v-342q0 -48 -29 -72.5t-68 -24.5q-40 0 -68.5 24.5t-28.5 72.5v62h-276v-62q0 -48 -28.5 -72.5t-68.5 -24.5q-39 0 -68 24.5t-29 72.5v342q-19 8 -29.5 24.5t-10.5 36.5t10.5 38t29.5 26v50
q0 48 29 72.5t68 24.5q40 0 68.5 -24.5t28.5 -72.5v-45h276v45q0 48 28.5 72.5t68.5 24.5q39 0 68 -24.5t29 -72.5v-50zM510 349v82h-276v-82h276z" />
    <glyph glyph-name="uni012A" unicode="&#x12a;" horiz-adv-x="274" 
d="M0 0zM233 93q0 -48 -29 -72.5t-68 -24.5q-40 0 -68.5 24.5t-28.5 72.5v518q0 46 28.5 71t68.5 25q39 0 68 -25t29 -71v-518zM2 759q-31 0 -48.5 19.5t-17.5 45.5q0 27 17.5 48t48.5 21h273q31 0 48.5 -21t17.5 -48q0 -26 -17.5 -45.5t-48.5 -19.5h-273z" />
    <glyph glyph-name="imacron" unicode="&#x12b;" horiz-adv-x="274" 
d="M0 0zM233 93q0 -48 -29 -72.5t-68 -24.5q-40 0 -68.5 24.5t-28.5 72.5v518q0 46 28.5 71t68.5 25q39 0 68 -25t29 -71v-518zM2 759q-31 0 -48.5 19.5t-17.5 45.5q0 27 17.5 48t48.5 21h273q31 0 48.5 -21t17.5 -48q0 -26 -17.5 -45.5t-48.5 -19.5h-273z" />
    <glyph glyph-name="Ibreve" unicode="&#x12c;" horiz-adv-x="274" 
d="M0 0zM233 93q0 -48 -29 -72.5t-68 -24.5q-40 0 -68.5 24.5t-28.5 72.5v518q0 46 28.5 71t68.5 25q39 0 68 -25t29 -71v-518zM258 907q20 0 35 -15.5t15 -36.5q0 -27 -17 -47.5t-42.5 -35t-55 -22t-54.5 -7.5q-26 0 -55.5 7.5t-55 22t-42.5 35t-17 47.5q0 21 15 36.5
t35 15.5q23 0 34 -10t20.5 -22.5t23 -22.5t42.5 -10q28 0 41.5 10t23 22.5t20.5 22.5t34 10z" />
    <glyph glyph-name="ibreve" unicode="&#x12d;" horiz-adv-x="274" 
d="M0 0zM233 93q0 -48 -29 -72.5t-68 -24.5q-40 0 -68.5 24.5t-28.5 72.5v518q0 46 28.5 71t68.5 25q39 0 68 -25t29 -71v-518zM258 907q20 0 35 -15.5t15 -36.5q0 -27 -17 -47.5t-42.5 -35t-55 -22t-54.5 -7.5q-26 0 -55.5 7.5t-55 22t-42.5 35t-17 47.5q0 21 15 36.5
t35 15.5q23 0 34 -10t20.5 -22.5t23 -22.5t42.5 -10q28 0 41.5 10t23 22.5t20.5 22.5t34 10z" />
    <glyph glyph-name="Iogonek" unicode="&#x12e;" horiz-adv-x="274" 
d="M233 93q0 -48 -29 -72.5t-68 -24.5q-12 0 -19 -8.5t-7 -22.5q0 -19 13.5 -25t58.5 -6t66.5 -25t21.5 -60q0 -33 -21.5 -58t-61.5 -25q-51 0 -86 11t-56.5 30t-30.5 44.5t-9 54.5q0 22 5.5 40.5t11.5 39t11.5 46t5.5 61.5v518q0 46 28.5 71t68.5 25q39 0 68 -25t29 -71
v-518z" />
    <glyph glyph-name="iogonek" unicode="&#x12f;" horiz-adv-x="274" 
d="M5 0zM233 93q0 -48 -29 -72.5t-68 -24.5q-12 0 -19 -8.5t-7 -22.5q0 -19 13.5 -25t58.5 -6t66.5 -25t21.5 -60q0 -33 -21.5 -58t-61.5 -25q-51 0 -86 11t-56.5 30t-30.5 44.5t-9 54.5q0 22 5.5 40.5t11.5 39t11.5 46t5.5 61.5v518q0 46 28.5 71t68.5 25q39 0 68 -25
t29 -71v-518z" />
    <glyph glyph-name="Idotaccent" unicode="&#x130;" horiz-adv-x="274" 
d="M39 0zM233 93q0 -48 -29 -72.5t-68 -24.5q-40 0 -68.5 24.5t-28.5 72.5v518q0 46 28.5 71t68.5 25q39 0 68 -25t29 -71v-518zM63 825q0 32 21 53.5t52 21.5q32 0 53 -21.5t21 -53.5q0 -31 -21 -51.5t-53 -20.5q-31 0 -52 20.5t-21 51.5z" />
    <glyph glyph-name="dotlessi" unicode="&#x131;" horiz-adv-x="274" 
d="M39 0zM233 93q0 -48 -29 -72.5t-68 -24.5q-40 0 -68.5 24.5t-28.5 72.5v518q0 46 28.5 71t68.5 25q39 0 68 -25t29 -71v-518z" />
    <glyph glyph-name="IJ" unicode="&#x132;" horiz-adv-x="781" 
d="M39 0zM233 93q0 -48 -29 -72.5t-68 -24.5q-40 0 -68.5 24.5t-28.5 72.5v518q0 46 28.5 71t68.5 25q39 0 68 -25t29 -71v-518zM746 351q0 -80 -20 -145t-60 -111t-100 -70.5t-140 -24.5h-46q-46 0 -72 29t-26 69t26 68.5t72 28.5h29q35 0 62 7t45.5 23.5t28 44.5t9.5 69
v272q0 46 28.5 71t67.5 25t67.5 -25t28.5 -71v-260z" />
    <glyph glyph-name="ij" unicode="&#x133;" horiz-adv-x="781" 
d="M39 0zM233 93q0 -48 -29 -72.5t-68 -24.5q-40 0 -68.5 24.5t-28.5 72.5v518q0 46 28.5 71t68.5 25q39 0 68 -25t29 -71v-518zM746 351q0 -80 -20 -145t-60 -111t-100 -70.5t-140 -24.5h-46q-46 0 -72 29t-26 69t26 68.5t72 28.5h29q35 0 62 7t45.5 23.5t28 44.5t9.5 69
v272q0 46 28.5 71t67.5 25t67.5 -25t28.5 -71v-260z" />
    <glyph glyph-name="Kcommaaccent" unicode="&#x136;" horiz-adv-x="595" 
d="M40 0zM234 93q0 -48 -29 -72.5t-68 -24.5q-40 0 -68.5 24.5t-28.5 72.5v518q0 46 28.5 71t68.5 25q39 0 68 -25t29 -71v-166l159 225q13 19 30.5 28t44.5 9q48 0 74.5 -27.5t26.5 -69.5q0 -36 -22 -61l-163 -184l164 -210q23 -29 23 -61q0 -45 -28 -71.5t-73 -26.5
q-22 0 -41.5 9t-33.5 29l-161 225v-166zM334 -188q-7 -24 -22 -35t-35 -11q-27 0 -46.5 15.5t-19.5 41.5q0 13 3 19l26 96q14 47 57 47q32 0 48 -19.5t16 -47.5q0 -4 -2 -10z" />
    <glyph glyph-name="kcommaaccent" unicode="&#x137;" horiz-adv-x="595" 
d="M40 0zM234 93q0 -48 -29 -72.5t-68 -24.5q-40 0 -68.5 24.5t-28.5 72.5v518q0 46 28.5 71t68.5 25q39 0 68 -25t29 -71v-166l159 225q13 19 30.5 28t44.5 9q48 0 74.5 -27.5t26.5 -69.5q0 -36 -22 -61l-163 -184l164 -210q23 -29 23 -61q0 -45 -28 -71.5t-73 -26.5
q-22 0 -41.5 9t-33.5 29l-161 225v-166zM334 -188q-7 -24 -22 -35t-35 -11q-27 0 -46.5 15.5t-19.5 41.5q0 13 3 19l26 96q14 47 57 47q32 0 48 -19.5t16 -47.5q0 -4 -2 -10z" />
    <glyph glyph-name="Lacute" unicode="&#x139;" horiz-adv-x="535" 
d="M40 0zM137 0q-97 0 -97 98v512q0 48 29 72.5t68 24.5q38 0 67 -25t29 -72v-414h198q45 0 68.5 -29t23.5 -69q0 -41 -23.5 -69.5t-68.5 -28.5h-294zM232 759q-16 -16 -35 -16q-20 0 -35 15.5t-15 35.5q0 19 14 33l103 106q13 15 32 15q20 0 35.5 -15t15.5 -35
q0 -8 -3 -16.5t-11 -16.5z" />
    <glyph glyph-name="lacute" unicode="&#x13a;" horiz-adv-x="535" 
d="M40 0zM137 0q-97 0 -97 98v512q0 48 29 72.5t68 24.5q38 0 67 -25t29 -72v-414h198q45 0 68.5 -29t23.5 -69q0 -41 -23.5 -69.5t-68.5 -28.5h-294zM232 759q-16 -16 -35 -16q-20 0 -35 15.5t-15 35.5q0 19 14 33l103 106q13 15 32 15q20 0 35.5 -15t15.5 -35
q0 -8 -3 -16.5t-11 -16.5z" />
    <glyph glyph-name="Lcommaaccent" unicode="&#x13b;" horiz-adv-x="535" 
d="M40 0zM137 0q-97 0 -97 98v512q0 48 29 72.5t68 24.5q38 0 67 -25t29 -72v-414h198q45 0 68.5 -29t23.5 -69q0 -41 -23.5 -69.5t-68.5 -28.5h-294zM295 -188q-7 -24 -22 -35t-35 -11q-27 0 -46.5 15.5t-19.5 41.5q0 13 3 19l26 96q14 47 57 47q32 0 48 -19.5t16 -47.5
q0 -4 -2 -10z" />
    <glyph glyph-name="lcommaaccent" unicode="&#x13c;" horiz-adv-x="535" 
d="M40 0zM137 0q-97 0 -97 98v512q0 48 29 72.5t68 24.5q38 0 67 -25t29 -72v-414h198q45 0 68.5 -29t23.5 -69q0 -41 -23.5 -69.5t-68.5 -28.5h-294zM295 -188q-7 -24 -22 -35t-35 -11q-27 0 -46.5 15.5t-19.5 41.5q0 13 3 19l26 96q14 47 57 47q32 0 48 -19.5t16 -47.5
q0 -4 -2 -10z" />
    <glyph glyph-name="Lcaron" unicode="&#x13d;" horiz-adv-x="535" 
d="M40 0zM137 0q-97 0 -97 98v512q0 48 29 72.5t68 24.5q38 0 67 -25t29 -72v-414h198q45 0 68.5 -29t23.5 -69q0 -41 -23.5 -69.5t-68.5 -28.5h-294zM393 534q-7 -24 -22 -35t-35 -11q-27 0 -46.5 15.5t-19.5 41.5q0 13 3 19l26 96q14 47 57 47q32 0 48 -19.5t16 -47.5
q0 -4 -2 -10z" />
    <glyph glyph-name="lcaron" unicode="&#x13e;" horiz-adv-x="535" 
d="M40 0zM137 0q-97 0 -97 98v512q0 48 29 72.5t68 24.5q38 0 67 -25t29 -72v-414h198q45 0 68.5 -29t23.5 -69q0 -41 -23.5 -69.5t-68.5 -28.5h-294zM393 534q-7 -24 -22 -35t-35 -11q-27 0 -46.5 15.5t-19.5 41.5q0 13 3 19l26 96q14 47 57 47q32 0 48 -19.5t16 -47.5
q0 -4 -2 -10z" />
    <glyph glyph-name="Ldot" unicode="&#x13f;" horiz-adv-x="535" 
d="M40 0zM137 0q-97 0 -97 98v512q0 48 29 72.5t68 24.5q38 0 67 -25t29 -72v-414h198q45 0 68.5 -29t23.5 -69q0 -41 -23.5 -69.5t-68.5 -28.5h-294zM269 336q0 32 21 53.5t52 21.5q32 0 53 -21.5t21 -53.5q0 -31 -21 -51.5t-53 -20.5q-31 0 -52 20.5t-21 51.5z" />
    <glyph glyph-name="ldot" unicode="&#x140;" horiz-adv-x="535" 
d="M40 0zM137 0q-97 0 -97 98v512q0 48 29 72.5t68 24.5q38 0 67 -25t29 -72v-414h198q45 0 68.5 -29t23.5 -69q0 -41 -23.5 -69.5t-68.5 -28.5h-294zM269 336q0 32 21 53.5t52 21.5q32 0 53 -21.5t21 -53.5q0 -31 -21 -51.5t-53 -20.5q-31 0 -52 20.5t-21 51.5z" />
    <glyph glyph-name="Lslash" unicode="&#x141;" horiz-adv-x="535" 
d="M137 0q-97 0 -97 98v512q0 48 29 72.5t68 24.5q38 0 67 -25t29 -72v-179l85 34q12 5 24 5q23 0 41.5 -18t18.5 -46q0 -17 -9.5 -32t-29.5 -23l-130 -52v-103h198q45 0 68.5 -29t23.5 -69q0 -41 -23.5 -69.5t-68.5 -28.5h-294z" />
    <glyph glyph-name="lslash" unicode="&#x142;" horiz-adv-x="535" 
d="M40 0zM137 0q-97 0 -97 98v512q0 48 29 72.5t68 24.5q38 0 67 -25t29 -72v-179l85 34q12 5 24 5q23 0 41.5 -18t18.5 -46q0 -17 -9.5 -32t-29.5 -23l-130 -52v-103h198q45 0 68.5 -29t23.5 -69q0 -41 -23.5 -69.5t-68.5 -28.5h-294z" />
    <glyph glyph-name="Nacute" unicode="&#x143;" horiz-adv-x="755" 
d="M40 0zM259 507q-26 0 -26 -26v-383q0 -54 -22.5 -78.5t-73.5 -24.5q-97 0 -97 103v544q0 62 60 62h552q62 0 62 -62v-544q0 -102 -97 -102t-97 102v383q0 26 -25 26h-236zM412 759q-16 -16 -35 -16q-20 0 -35 15.5t-15 35.5q0 19 14 33l103 106q13 15 32 15
q20 0 35.5 -15t15.5 -35q0 -8 -3 -16.5t-11 -16.5z" />
    <glyph glyph-name="nacute" unicode="&#x144;" horiz-adv-x="755" 
d="M40 0zM259 507q-26 0 -26 -26v-383q0 -54 -22.5 -78.5t-73.5 -24.5q-97 0 -97 103v544q0 62 60 62h552q62 0 62 -62v-544q0 -102 -97 -102t-97 102v383q0 26 -25 26h-236zM412 759q-16 -16 -35 -16q-20 0 -35 15.5t-15 35.5q0 19 14 33l103 106q13 15 32 15
q20 0 35.5 -15t15.5 -35q0 -8 -3 -16.5t-11 -16.5z" />
    <glyph glyph-name="Ncommaaccent" unicode="&#x145;" horiz-adv-x="755" 
d="M40 0zM259 507q-26 0 -26 -26v-383q0 -54 -22.5 -78.5t-73.5 -24.5q-97 0 -97 103v544q0 62 60 62h552q62 0 62 -62v-544q0 -102 -97 -102t-97 102v383q0 26 -25 26h-236zM425 -188q-7 -24 -22 -35t-35 -11q-27 0 -46.5 15.5t-19.5 41.5q0 13 3 19l26 96q14 47 57 47
q32 0 48 -19.5t16 -47.5q0 -4 -2 -10z" />
    <glyph glyph-name="ncommaaccent" unicode="&#x146;" horiz-adv-x="755" 
d="M40 0zM259 507q-26 0 -26 -26v-383q0 -54 -22.5 -78.5t-73.5 -24.5q-97 0 -97 103v544q0 62 60 62h552q62 0 62 -62v-544q0 -102 -97 -102t-97 102v383q0 26 -25 26h-236zM425 -188q-7 -24 -22 -35t-35 -11q-27 0 -46.5 15.5t-19.5 41.5q0 13 3 19l26 96q14 47 57 47
q32 0 48 -19.5t16 -47.5q0 -4 -2 -10z" />
    <glyph glyph-name="Ncaron" unicode="&#x147;" horiz-adv-x="755" 
d="M40 0zM259 507q-26 0 -26 -26v-383q0 -54 -22.5 -78.5t-73.5 -24.5q-97 0 -97 103v544q0 62 60 62h552q62 0 62 -62v-544q0 -102 -97 -102t-97 102v383q0 26 -25 26h-236zM378 851l94 51q6 4 12 4.5t13 0.5q20 0 35 -15.5t15 -36.5q0 -31 -27 -44l-117 -62q-11 -6 -27 -6
q-14 0 -24 6l-117 62q-15 8 -21 19t-6 25q0 21 15 36.5t35 15.5q7 0 13 -0.5t13 -4.5z" />
    <glyph glyph-name="ncaron" unicode="&#x148;" horiz-adv-x="755" 
d="M40 0zM259 507q-26 0 -26 -26v-383q0 -54 -22.5 -78.5t-73.5 -24.5q-97 0 -97 103v544q0 62 60 62h552q62 0 62 -62v-544q0 -102 -97 -102t-97 102v383q0 26 -25 26h-236zM378 851l94 51q6 4 12 4.5t13 0.5q20 0 35 -15.5t15 -36.5q0 -31 -27 -44l-117 -62q-11 -6 -27 -6
q-14 0 -24 6l-117 62q-15 8 -21 19t-6 25q0 21 15 36.5t35 15.5q7 0 13 -0.5t13 -4.5z" />
    <glyph glyph-name="Eng" unicode="&#x14a;" horiz-adv-x="755" 
d="M714 117q0 -80 -20 -145t-60 -111t-100 -70.5t-140 -24.5h-46q-46 0 -72 29t-26 69t26 68.5t72 28.5h29q35 0 61.5 7t44.5 23.5t27.5 44.5t9.5 69v376q0 26 -25 26h-236q-26 0 -26 -26v-383q0 -54 -22.5 -78.5t-73.5 -24.5q-97 0 -97 103v544q0 62 60 62h552q62 0 62 -62
v-525z" />
    <glyph glyph-name="eng" unicode="&#x14b;" horiz-adv-x="755" 
d="M40 0zM714 117q0 -80 -20 -145t-60 -111t-100 -70.5t-140 -24.5h-46q-46 0 -72 29t-26 69t26 68.5t72 28.5h29q35 0 61.5 7t44.5 23.5t27.5 44.5t9.5 69v376q0 26 -25 26h-236q-26 0 -26 -26v-383q0 -54 -22.5 -78.5t-73.5 -24.5q-97 0 -97 103v544q0 62 60 62h552
q62 0 62 -62v-525z" />
    <glyph glyph-name="Omacron" unicode="&#x14c;" 
d="M35 0zM710 227q0 -114 -55 -170.5t-163 -56.5h-239q-108 0 -163 56.5t-55 170.5v250q0 114 55 170.5t163 56.5h239q108 0 163 -56.5t55 -170.5v-250zM259 507q-14 0 -22 -6.5t-8 -20.5v-253q0 -29 30 -29h227q29 0 29 29v250q0 30 -29 30h-227zM237 759q-31 0 -48.5 19.5
t-17.5 45.5q0 27 17.5 48t48.5 21h273q31 0 48.5 -21t17.5 -48q0 -26 -17.5 -45.5t-48.5 -19.5h-273z" />
    <glyph glyph-name="omacron" unicode="&#x14d;" 
d="M35 0zM710 227q0 -114 -55 -170.5t-163 -56.5h-239q-108 0 -163 56.5t-55 170.5v250q0 114 55 170.5t163 56.5h239q108 0 163 -56.5t55 -170.5v-250zM259 507q-14 0 -22 -6.5t-8 -20.5v-253q0 -29 30 -29h227q29 0 29 29v250q0 30 -29 30h-227zM237 759q-31 0 -48.5 19.5
t-17.5 45.5q0 27 17.5 48t48.5 21h273q31 0 48.5 -21t17.5 -48q0 -26 -17.5 -45.5t-48.5 -19.5h-273z" />
    <glyph glyph-name="Obreve" unicode="&#x14e;" 
d="M35 0zM710 227q0 -114 -55 -170.5t-163 -56.5h-239q-108 0 -163 56.5t-55 170.5v250q0 114 55 170.5t163 56.5h239q108 0 163 -56.5t55 -170.5v-250zM259 507q-14 0 -22 -6.5t-8 -20.5v-253q0 -29 30 -29h227q29 0 29 29v250q0 30 -29 30h-227zM493 907q20 0 35 -15.5
t15 -36.5q0 -27 -17 -47.5t-42.5 -35t-55 -22t-54.5 -7.5q-26 0 -55.5 7.5t-55 22t-42.5 35t-17 47.5q0 21 15 36.5t35 15.5q23 0 34 -10t20.5 -22.5t23 -22.5t42.5 -10q28 0 41.5 10t23 22.5t20.5 22.5t34 10z" />
    <glyph glyph-name="obreve" unicode="&#x14f;" 
d="M35 0zM710 227q0 -114 -55 -170.5t-163 -56.5h-239q-108 0 -163 56.5t-55 170.5v250q0 114 55 170.5t163 56.5h239q108 0 163 -56.5t55 -170.5v-250zM259 507q-14 0 -22 -6.5t-8 -20.5v-253q0 -29 30 -29h227q29 0 29 29v250q0 30 -29 30h-227zM493 907q20 0 35 -15.5
t15 -36.5q0 -27 -17 -47.5t-42.5 -35t-55 -22t-54.5 -7.5q-26 0 -55.5 7.5t-55 22t-42.5 35t-17 47.5q0 21 15 36.5t35 15.5q23 0 34 -10t20.5 -22.5t23 -22.5t42.5 -10q28 0 41.5 10t23 22.5t20.5 22.5t34 10z" />
    <glyph glyph-name="Ohungarumlaut" unicode="&#x150;" 
d="M35 0zM710 227q0 -114 -55 -170.5t-163 -56.5h-239q-108 0 -163 56.5t-55 170.5v250q0 114 55 170.5t163 56.5h239q108 0 163 -56.5t55 -170.5v-250zM259 507q-14 0 -22 -6.5t-8 -20.5v-253q0 -29 30 -29h227q29 0 29 29v250q0 30 -29 30h-227zM508 759q-16 -16 -35 -16
q-20 0 -35 15.5t-15 35.5q0 16 14 33l103 106q13 15 32 15q20 0 35.5 -15t15.5 -35q0 -8 -3 -16.5t-11 -16.5zM308 759q-16 -16 -35 -16q-20 0 -35 15.5t-15 35.5q0 19 14 33l103 106q13 15 32 15q20 0 35.5 -15t15.5 -35q0 -8 -3 -16.5t-11 -16.5z" />
    <glyph glyph-name="ohungarumlaut" unicode="&#x151;" 
d="M35 0zM710 227q0 -114 -55 -170.5t-163 -56.5h-239q-108 0 -163 56.5t-55 170.5v250q0 114 55 170.5t163 56.5h239q108 0 163 -56.5t55 -170.5v-250zM259 507q-14 0 -22 -6.5t-8 -20.5v-253q0 -29 30 -29h227q29 0 29 29v250q0 30 -29 30h-227zM508 759q-16 -16 -35 -16
q-20 0 -35 15.5t-15 35.5q0 16 14 33l103 106q13 15 32 15q20 0 35.5 -15t15.5 -35q0 -8 -3 -16.5t-11 -16.5zM308 759q-16 -16 -35 -16q-20 0 -35 15.5t-15 35.5q0 19 14 33l103 106q13 15 32 15q20 0 35.5 -15t15.5 -35q0 -8 -3 -16.5t-11 -16.5z" />
    <glyph glyph-name="OE" unicode="&#x152;" horiz-adv-x="1151" 
d="M253 1q-108 0 -163 56.5t-55 170.5v249q0 114 55 170.5t163 56.5h762q46 0 71.5 -28.5t25.5 -69.5q0 -39 -25.5 -68t-71.5 -29h-292v-60h292q46 0 71.5 -28.5t25.5 -68.5t-25.5 -68.5t-71.5 -28.5h-292v-59h292q46 0 71.5 -29t25.5 -69q0 -41 -25.5 -69.5t-71.5 -28.5z
M259 507q-28 0 -29 -27v-252q0 -29 29 -29h227q29 0 29 29v249q0 30 -29 30h-227z" />
    <glyph glyph-name="oe" unicode="&#x153;" horiz-adv-x="1151" 
d="M35 0zM253 1q-108 0 -163 56.5t-55 170.5v249q0 114 55 170.5t163 56.5h762q46 0 71.5 -28.5t25.5 -69.5q0 -39 -25.5 -68t-71.5 -29h-292v-60h292q46 0 71.5 -28.5t25.5 -68.5t-25.5 -68.5t-71.5 -28.5h-292v-59h292q46 0 71.5 -29t25.5 -69q0 -41 -25.5 -69.5
t-71.5 -28.5zM259 507q-28 0 -29 -27v-252q0 -29 29 -29h227q29 0 29 29v249q0 30 -29 30h-227z" />
    <glyph glyph-name="Racute" unicode="&#x154;" horiz-adv-x="617" 
d="M25 0zM590 479q0 -220 -207 -224h-20l83 -79q20 -19 29 -39.5t9 -38.5q0 -17 -6 -35t-18 -33t-29 -24.5t-38 -9.5t-43.5 8.5t-42.5 28.5l-233 229q-12 11 -21 20.5t-14.5 20t-8.5 22.5t-3 29q0 43 24 69t75 26h256q38 0 38 30t-38 30h-262q-46 0 -70.5 24.5t-24.5 75.5
q0 95 94 95h252q219 0 219 -225zM343 759q-16 -16 -35 -16q-20 0 -35 15.5t-15 35.5q0 19 14 33l103 106q13 15 32 15q20 0 35.5 -15t15.5 -35q0 -8 -3 -16.5t-11 -16.5z" />
    <glyph glyph-name="racute" unicode="&#x155;" horiz-adv-x="617" 
d="M25 0zM590 479q0 -220 -207 -224h-20l83 -79q20 -19 29 -39.5t9 -38.5q0 -17 -6 -35t-18 -33t-29 -24.5t-38 -9.5t-43.5 8.5t-42.5 28.5l-233 229q-12 11 -21 20.5t-14.5 20t-8.5 22.5t-3 29q0 43 24 69t75 26h256q38 0 38 30t-38 30h-262q-46 0 -70.5 24.5t-24.5 75.5
q0 95 94 95h252q219 0 219 -225zM343 759q-16 -16 -35 -16q-20 0 -35 15.5t-15 35.5q0 19 14 33l103 106q13 15 32 15q20 0 35.5 -15t15.5 -35q0 -8 -3 -16.5t-11 -16.5z" />
    <glyph glyph-name="Rcommaaccent" unicode="&#x156;" horiz-adv-x="617" 
d="M25 0zM590 479q0 -220 -207 -224h-20l83 -79q20 -19 29 -39.5t9 -38.5q0 -17 -6 -35t-18 -33t-29 -24.5t-38 -9.5t-43.5 8.5t-42.5 28.5l-233 229q-12 11 -21 20.5t-14.5 20t-8.5 22.5t-3 29q0 43 24 69t75 26h256q38 0 38 30t-38 30h-262q-46 0 -70.5 24.5t-24.5 75.5
q0 95 94 95h252q219 0 219 -225zM286 -188q-7 -24 -22 -35t-35 -11q-27 0 -46.5 15.5t-19.5 41.5q0 13 3 19l26 96q14 47 57 47q32 0 48 -19.5t16 -47.5q0 -4 -2 -10z" />
    <glyph glyph-name="rcommaaccent" unicode="&#x157;" horiz-adv-x="617" 
d="M25 0zM590 479q0 -220 -207 -224h-20l83 -79q20 -19 29 -39.5t9 -38.5q0 -17 -6 -35t-18 -33t-29 -24.5t-38 -9.5t-43.5 8.5t-42.5 28.5l-233 229q-12 11 -21 20.5t-14.5 20t-8.5 22.5t-3 29q0 43 24 69t75 26h256q38 0 38 30t-38 30h-262q-46 0 -70.5 24.5t-24.5 75.5
q0 95 94 95h252q219 0 219 -225zM286 -188q-7 -24 -22 -35t-35 -11q-27 0 -46.5 15.5t-19.5 41.5q0 13 3 19l26 96q14 47 57 47q32 0 48 -19.5t16 -47.5q0 -4 -2 -10z" />
    <glyph glyph-name="Rcaron" unicode="&#x158;" horiz-adv-x="617" 
d="M25 0zM590 479q0 -220 -207 -224h-20l83 -79q20 -19 29 -39.5t9 -38.5q0 -17 -6 -35t-18 -33t-29 -24.5t-38 -9.5t-43.5 8.5t-42.5 28.5l-233 229q-12 11 -21 20.5t-14.5 20t-8.5 22.5t-3 29q0 43 24 69t75 26h256q38 0 38 30t-38 30h-262q-46 0 -70.5 24.5t-24.5 75.5
q0 95 94 95h252q219 0 219 -225zM309 851l94 51q6 4 12 4.5t13 0.5q20 0 35 -15.5t15 -36.5q0 -31 -27 -44l-117 -62q-11 -6 -27 -6q-14 0 -24 6l-117 62q-15 8 -21 19t-6 25q0 21 15 36.5t35 15.5q7 0 13 -0.5t13 -4.5z" />
    <glyph glyph-name="rcaron" unicode="&#x159;" horiz-adv-x="617" 
d="M25 0zM590 479q0 -220 -207 -224h-20l83 -79q20 -19 29 -39.5t9 -38.5q0 -17 -6 -35t-18 -33t-29 -24.5t-38 -9.5t-43.5 8.5t-42.5 28.5l-233 229q-12 11 -21 20.5t-14.5 20t-8.5 22.5t-3 29q0 43 24 69t75 26h256q38 0 38 30t-38 30h-262q-46 0 -70.5 24.5t-24.5 75.5
q0 95 94 95h252q219 0 219 -225zM309 851l94 51q6 4 12 4.5t13 0.5q20 0 35 -15.5t15 -36.5q0 -31 -27 -44l-117 -62q-11 -6 -27 -6q-14 0 -24 6l-117 62q-15 8 -21 19t-6 25q0 21 15 36.5t35 15.5q7 0 13 -0.5t13 -4.5z" />
    <glyph glyph-name="Sacute" unicode="&#x15a;" horiz-adv-x="571" 
d="M29 0zM544 224q0 -224 -219 -224h-193q-24 0 -42 8.5t-30 22t-18 31t-6 36.5q0 18 6 35.5t18.5 31t31 22t42.5 8.5h202q20 0 29.5 11.5t9.5 24.5q0 14 -9.5 26t-29.5 12h-100q-103 0 -155 50t-52 159q0 226 221 226h156q25 0 44 -8.5t32 -22t19.5 -31t6.5 -35.5t-6.5 -36
t-19.5 -32t-32.5 -22.5t-44.5 -8.5h-168q-20 0 -29 -11.5t-9 -25.5q0 -13 9 -24.5t29 -11.5h100q106 0 156.5 -51t50.5 -160zM340 759q-16 -16 -35 -16q-20 0 -35 15.5t-15 35.5q0 19 14 33l103 106q13 15 32 15q20 0 35.5 -15t15.5 -35q0 -8 -3 -16.5t-11 -16.5z" />
    <glyph glyph-name="sacute" unicode="&#x15b;" horiz-adv-x="571" 
d="M29 0zM544 224q0 -224 -219 -224h-193q-24 0 -42 8.5t-30 22t-18 31t-6 36.5q0 18 6 35.5t18.5 31t31 22t42.5 8.5h202q20 0 29.5 11.5t9.5 24.5q0 14 -9.5 26t-29.5 12h-100q-103 0 -155 50t-52 159q0 226 221 226h156q25 0 44 -8.5t32 -22t19.5 -31t6.5 -35.5t-6.5 -36
t-19.5 -32t-32.5 -22.5t-44.5 -8.5h-168q-20 0 -29 -11.5t-9 -25.5q0 -13 9 -24.5t29 -11.5h100q106 0 156.5 -51t50.5 -160zM340 759q-16 -16 -35 -16q-20 0 -35 15.5t-15 35.5q0 19 14 33l103 106q13 15 32 15q20 0 35.5 -15t15.5 -35q0 -8 -3 -16.5t-11 -16.5z" />
    <glyph glyph-name="Scedilla" unicode="&#x15e;" horiz-adv-x="571" 
d="M29 0zM544 224q0 -224 -219 -224h-193q-24 0 -42 8.5t-30 22t-18 31t-6 36.5q0 18 6 35.5t18.5 31t31 22t42.5 8.5h202q20 0 29.5 11.5t9.5 24.5q0 14 -9.5 26t-29.5 12h-100q-103 0 -155 50t-52 159q0 226 221 226h156q25 0 44 -8.5t32 -22t19.5 -31t6.5 -35.5t-6.5 -36
t-19.5 -32t-32.5 -22.5t-44.5 -8.5h-168q-20 0 -29 -11.5t-9 -25.5q0 -13 9 -24.5t29 -11.5h100q106 0 156.5 -51t50.5 -160zM293 -188q-7 -24 -22 -35t-35 -11q-27 0 -46.5 15.5t-19.5 41.5q0 13 3 19l26 96q14 47 57 47q32 0 48 -19.5t16 -47.5q0 -4 -2 -10z" />
    <glyph glyph-name="scedilla" unicode="&#x15f;" horiz-adv-x="571" 
d="M29 0zM544 224q0 -224 -219 -224h-193q-24 0 -42 8.5t-30 22t-18 31t-6 36.5q0 18 6 35.5t18.5 31t31 22t42.5 8.5h202q20 0 29.5 11.5t9.5 24.5q0 14 -9.5 26t-29.5 12h-100q-103 0 -155 50t-52 159q0 226 221 226h156q25 0 44 -8.5t32 -22t19.5 -31t6.5 -35.5t-6.5 -36
t-19.5 -32t-32.5 -22.5t-44.5 -8.5h-168q-20 0 -29 -11.5t-9 -25.5q0 -13 9 -24.5t29 -11.5h100q106 0 156.5 -51t50.5 -160zM293 -188q-7 -24 -22 -35t-35 -11q-27 0 -46.5 15.5t-19.5 41.5q0 13 3 19l26 96q14 47 57 47q32 0 48 -19.5t16 -47.5q0 -4 -2 -10z" />
    <glyph glyph-name="Scaron" unicode="&#x160;" horiz-adv-x="571" 
d="M29 0zM544 224q0 -224 -219 -224h-193q-24 0 -42 8.5t-30 22t-18 31t-6 36.5q0 18 6 35.5t18.5 31t31 22t42.5 8.5h202q20 0 29.5 11.5t9.5 24.5q0 14 -9.5 26t-29.5 12h-100q-103 0 -155 50t-52 159q0 226 221 226h156q25 0 44 -8.5t32 -22t19.5 -31t6.5 -35.5t-6.5 -36
t-19.5 -32t-32.5 -22.5t-44.5 -8.5h-168q-20 0 -29 -11.5t-9 -25.5q0 -13 9 -24.5t29 -11.5h100q106 0 156.5 -51t50.5 -160zM286 851l94 51q6 4 12 4.5t13 0.5q20 0 35 -15.5t15 -36.5q0 -31 -27 -44l-117 -62q-11 -6 -27 -6q-14 0 -24 6l-117 62q-15 8 -21 19t-6 25
q0 21 15 36.5t35 15.5q7 0 13 -0.5t13 -4.5z" />
    <glyph glyph-name="scaron" unicode="&#x161;" horiz-adv-x="571" 
d="M29 0zM544 224q0 -224 -219 -224h-193q-24 0 -42 8.5t-30 22t-18 31t-6 36.5q0 18 6 35.5t18.5 31t31 22t42.5 8.5h202q20 0 29.5 11.5t9.5 24.5q0 14 -9.5 26t-29.5 12h-100q-103 0 -155 50t-52 159q0 226 221 226h156q25 0 44 -8.5t32 -22t19.5 -31t6.5 -35.5t-6.5 -36
t-19.5 -32t-32.5 -22.5t-44.5 -8.5h-168q-20 0 -29 -11.5t-9 -25.5q0 -13 9 -24.5t29 -11.5h100q106 0 156.5 -51t50.5 -160zM286 851l94 51q6 4 12 4.5t13 0.5q20 0 35 -15.5t15 -36.5q0 -31 -27 -44l-117 -62q-11 -6 -27 -6q-14 0 -24 6l-117 62q-15 8 -21 19t-6 25
q0 21 15 36.5t35 15.5q7 0 13 -0.5t13 -4.5z" />
    <glyph glyph-name="Tcedilla" unicode="&#x162;" horiz-adv-x="558" 
d="M16 0zM375 93q0 -48 -29 -72.5t-69 -24.5q-39 0 -67.5 24.5t-28.5 72.5v415h-68q-46 0 -71.5 29t-25.5 69t25.5 69t71.5 29h328q46 0 72 -29t26 -69t-26 -69t-72 -29h-66v-415zM299 -188q-7 -24 -22 -35t-35 -11q-27 0 -46.5 15.5t-19.5 41.5q0 13 3 19l26 96
q14 47 57 47q32 0 48 -19.5t16 -47.5q0 -4 -2 -10z" />
    <glyph glyph-name="tcedilla" unicode="&#x163;" horiz-adv-x="558" 
d="M16 0zM375 93q0 -48 -29 -72.5t-69 -24.5q-39 0 -67.5 24.5t-28.5 72.5v415h-68q-46 0 -71.5 29t-25.5 69t25.5 69t71.5 29h328q46 0 72 -29t26 -69t-26 -69t-72 -29h-66v-415zM299 -188q-7 -24 -22 -35t-35 -11q-27 0 -46.5 15.5t-19.5 41.5q0 13 3 19l26 96
q14 47 57 47q32 0 48 -19.5t16 -47.5q0 -4 -2 -10z" />
    <glyph glyph-name="Tcaron" unicode="&#x164;" horiz-adv-x="558" 
d="M16 0zM375 93q0 -48 -29 -72.5t-69 -24.5q-39 0 -67.5 24.5t-28.5 72.5v415h-68q-46 0 -71.5 29t-25.5 69t25.5 69t71.5 29h328q46 0 72 -29t26 -69t-26 -69t-72 -29h-66v-415zM279 851l94 51q6 4 12 4.5t13 0.5q20 0 35 -15.5t15 -36.5q0 -31 -27 -44l-117 -62
q-11 -6 -27 -6q-14 0 -24 6l-117 62q-15 8 -21 19t-6 25q0 21 15 36.5t35 15.5q7 0 13 -0.5t13 -4.5z" />
    <glyph glyph-name="tcaron" unicode="&#x165;" horiz-adv-x="558" 
d="M16 0zM375 93q0 -48 -29 -72.5t-69 -24.5q-39 0 -67.5 24.5t-28.5 72.5v415h-68q-46 0 -71.5 29t-25.5 69t25.5 69t71.5 29h328q46 0 72 -29t26 -69t-26 -69t-72 -29h-66v-415zM279 851l94 51q6 4 12 4.5t13 0.5q20 0 35 -15.5t15 -36.5q0 -31 -27 -44l-117 -62
q-11 -6 -27 -6q-14 0 -24 6l-117 62q-15 8 -21 19t-6 25q0 21 15 36.5t35 15.5q7 0 13 -0.5t13 -4.5z" />
    <glyph glyph-name="Tbar" unicode="&#x166;" horiz-adv-x="558" 
d="M375 269v-176q0 -48 -29 -72.5t-69 -24.5q-39 0 -67.5 24.5t-28.5 72.5v176h-16q-38 0 -59.5 24t-21.5 56q0 34 21.5 59t59.5 25h16v75h-68q-46 0 -71.5 29t-25.5 69t25.5 69t71.5 29h328q46 0 72 -29t26 -69t-26 -69t-72 -29h-66v-75h18q38 0 59.5 -25t21.5 -59
q0 -32 -21.5 -56t-59.5 -24h-18z" />
    <glyph glyph-name="tbar" unicode="&#x167;" horiz-adv-x="558" 
d="M16 0zM375 269v-176q0 -48 -29 -72.5t-69 -24.5q-39 0 -67.5 24.5t-28.5 72.5v176h-16q-38 0 -59.5 24t-21.5 56q0 34 21.5 59t59.5 25h16v75h-68q-46 0 -71.5 29t-25.5 69t25.5 69t71.5 29h328q46 0 72 -29t26 -69t-26 -69t-72 -29h-66v-75h18q38 0 59.5 -25t21.5 -59
q0 -32 -21.5 -56t-59.5 -24h-18z" />
    <glyph glyph-name="Utilde" unicode="&#x168;" horiz-adv-x="756" 
d="M40 0zM496 197q24 0 24 22v385q0 54 23 78.5t73 24.5q99 0 99 -103v-542q0 -62 -60 -62h-554q-61 0 -61 62v542q0 102 97 102t97 -102v-381q0 -26 25 -26h237zM512 886q9 11 18 14.5t15 3.5q20 0 35.5 -14t15.5 -34q0 -23 -12 -41.5t-30.5 -32t-41.5 -20.5t-45 -7
q-23 0 -46 7.5t-44.5 16t-41.5 16t-38 7.5q-15 0 -25 -7t-30 -28q-8 -9 -17 -13t-16 -4q-18 0 -34 14t-16 34q0 22 12 41t30.5 32.5t41.5 21t45 7.5q21 0 43 -7.5t43.5 -16t42 -16t39.5 -7.5q17 0 27.5 6.5t28.5 26.5z" />
    <glyph glyph-name="utilde" unicode="&#x169;" horiz-adv-x="756" 
d="M40 0zM496 197q24 0 24 22v385q0 54 23 78.5t73 24.5q99 0 99 -103v-542q0 -62 -60 -62h-554q-61 0 -61 62v542q0 102 97 102t97 -102v-381q0 -26 25 -26h237zM512 886q9 11 18 14.5t15 3.5q20 0 35.5 -14t15.5 -34q0 -23 -12 -41.5t-30.5 -32t-41.5 -20.5t-45 -7
q-23 0 -46 7.5t-44.5 16t-41.5 16t-38 7.5q-15 0 -25 -7t-30 -28q-8 -9 -17 -13t-16 -4q-18 0 -34 14t-16 34q0 22 12 41t30.5 32.5t41.5 21t45 7.5q21 0 43 -7.5t43.5 -16t42 -16t39.5 -7.5q17 0 27.5 6.5t28.5 26.5z" />
    <glyph glyph-name="Umacron" unicode="&#x16a;" horiz-adv-x="756" 
d="M40 0zM496 197q24 0 24 22v385q0 54 23 78.5t73 24.5q99 0 99 -103v-542q0 -62 -60 -62h-554q-61 0 -61 62v542q0 102 97 102t97 -102v-381q0 -26 25 -26h237zM241 759q-31 0 -48.5 19.5t-17.5 45.5q0 27 17.5 48t48.5 21h273q31 0 48.5 -21t17.5 -48q0 -26 -17.5 -45.5
t-48.5 -19.5h-273z" />
    <glyph glyph-name="umacron" unicode="&#x16b;" horiz-adv-x="756" 
d="M40 0zM496 197q24 0 24 22v385q0 54 23 78.5t73 24.5q99 0 99 -103v-542q0 -62 -60 -62h-554q-61 0 -61 62v542q0 102 97 102t97 -102v-381q0 -26 25 -26h237zM241 759q-31 0 -48.5 19.5t-17.5 45.5q0 27 17.5 48t48.5 21h273q31 0 48.5 -21t17.5 -48q0 -26 -17.5 -45.5
t-48.5 -19.5h-273z" />
    <glyph glyph-name="Ubreve" unicode="&#x16c;" horiz-adv-x="756" 
d="M40 0zM496 197q24 0 24 22v385q0 54 23 78.5t73 24.5q99 0 99 -103v-542q0 -62 -60 -62h-554q-61 0 -61 62v542q0 102 97 102t97 -102v-381q0 -26 25 -26h237zM497 907q20 0 35 -15.5t15 -36.5q0 -27 -17 -47.5t-42.5 -35t-55 -22t-54.5 -7.5q-26 0 -55.5 7.5t-55 22
t-42.5 35t-17 47.5q0 21 15 36.5t35 15.5q23 0 34 -10t20.5 -22.5t23 -22.5t42.5 -10q28 0 41.5 10t23 22.5t20.5 22.5t34 10z" />
    <glyph glyph-name="ubreve" unicode="&#x16d;" horiz-adv-x="756" 
d="M40 0zM496 197q24 0 24 22v385q0 54 23 78.5t73 24.5q99 0 99 -103v-542q0 -62 -60 -62h-554q-61 0 -61 62v542q0 102 97 102t97 -102v-381q0 -26 25 -26h237zM497 907q20 0 35 -15.5t15 -36.5q0 -27 -17 -47.5t-42.5 -35t-55 -22t-54.5 -7.5q-26 0 -55.5 7.5t-55 22
t-42.5 35t-17 47.5q0 21 15 36.5t35 15.5q23 0 34 -10t20.5 -22.5t23 -22.5t42.5 -10q28 0 41.5 10t23 22.5t20.5 22.5t34 10z" />
    <glyph glyph-name="Uring" unicode="&#x16e;" horiz-adv-x="756" 
d="M40 0zM496 197q24 0 24 22v385q0 54 23 78.5t73 24.5q99 0 99 -103v-542q0 -62 -60 -62h-554q-61 0 -61 62v542q0 102 97 102t97 -102v-381q0 -26 25 -26h237zM267 818q0 22 8.5 41.5t23.5 34t35.5 22.5t43.5 8t43 -8t35 -22.5t23.5 -34t8.5 -41.5t-8.5 -41.5
t-23.5 -33.5t-35 -22.5t-43 -8.5t-43.5 8.5t-35.5 22.5t-23.5 33.5t-8.5 41.5zM335 817q0 -18 13 -31.5t30 -13.5q18 0 30.5 13.5t12.5 31.5q0 19 -12.5 32t-30.5 13q-17 0 -30 -13t-13 -32z" />
    <glyph glyph-name="uring" unicode="&#x16f;" horiz-adv-x="756" 
d="M40 0zM496 197q24 0 24 22v385q0 54 23 78.5t73 24.5q99 0 99 -103v-542q0 -62 -60 -62h-554q-61 0 -61 62v542q0 102 97 102t97 -102v-381q0 -26 25 -26h237zM267 818q0 22 8.5 41.5t23.5 34t35.5 22.5t43.5 8t43 -8t35 -22.5t23.5 -34t8.5 -41.5t-8.5 -41.5
t-23.5 -33.5t-35 -22.5t-43 -8.5t-43.5 8.5t-35.5 22.5t-23.5 33.5t-8.5 41.5zM335 817q0 -18 13 -31.5t30 -13.5q18 0 30.5 13.5t12.5 31.5q0 19 -12.5 32t-30.5 13q-17 0 -30 -13t-13 -32z" />
    <glyph glyph-name="Uhungarumlaut" unicode="&#x170;" horiz-adv-x="756" 
d="M40 0zM496 197q24 0 24 22v385q0 54 23 78.5t73 24.5q99 0 99 -103v-542q0 -62 -60 -62h-554q-61 0 -61 62v542q0 102 97 102t97 -102v-381q0 -26 25 -26h237zM513 759q-16 -16 -35 -16q-20 0 -35 15.5t-15 35.5q0 16 14 33l103 106q13 15 32 15q20 0 35.5 -15t15.5 -35
q0 -8 -3 -16.5t-11 -16.5zM313 759q-16 -16 -35 -16q-20 0 -35 15.5t-15 35.5q0 19 14 33l103 106q13 15 32 15q20 0 35.5 -15t15.5 -35q0 -8 -3 -16.5t-11 -16.5z" />
    <glyph glyph-name="uhungarumlaut" unicode="&#x171;" horiz-adv-x="756" 
d="M40 0zM496 197q24 0 24 22v385q0 54 23 78.5t73 24.5q99 0 99 -103v-542q0 -62 -60 -62h-554q-61 0 -61 62v542q0 102 97 102t97 -102v-381q0 -26 25 -26h237zM513 759q-16 -16 -35 -16q-20 0 -35 15.5t-15 35.5q0 16 14 33l103 106q13 15 32 15q20 0 35.5 -15t15.5 -35
q0 -8 -3 -16.5t-11 -16.5zM313 759q-16 -16 -35 -16q-20 0 -35 15.5t-15 35.5q0 19 14 33l103 106q13 15 32 15q20 0 35.5 -15t15.5 -35q0 -8 -3 -16.5t-11 -16.5z" />
    <glyph glyph-name="Uogonek" unicode="&#x172;" horiz-adv-x="756" 
d="M496 197q24 0 24 22v385q0 54 23 78.5t73 24.5q99 0 99 -103v-542q0 -62 -60 -62h-117q-15 0 -21.5 -8t-6.5 -21q0 -23 13.5 -30t58.5 -7t66.5 -25t21.5 -60q0 -33 -21.5 -58t-61.5 -25q-51 0 -86 11t-56.5 30t-30.5 44.5t-9 54.5q0 23 6 48t17 46h-327q-61 0 -61 62v542
q0 102 97 102t97 -102v-381q0 -26 25 -26h237z" />
    <glyph glyph-name="uogonek" unicode="&#x173;" horiz-adv-x="756" 
d="M40 0zM496 197q24 0 24 22v385q0 54 23 78.5t73 24.5q99 0 99 -103v-542q0 -62 -60 -62h-117q-15 0 -21.5 -8t-6.5 -21q0 -23 13.5 -30t58.5 -7t66.5 -25t21.5 -60q0 -33 -21.5 -58t-61.5 -25q-51 0 -86 11t-56.5 30t-30.5 44.5t-9 54.5q0 23 6 48t17 46h-327
q-61 0 -61 62v542q0 102 97 102t97 -102v-381q0 -26 25 -26h237z" />
    <glyph glyph-name="Wcircumflex" unicode="&#x174;" horiz-adv-x="863" 
d="M41 0zM41 610q0 48 28.5 72.5t69.5 24.5q38 0 67 -25t29 -72v-414h61v414q0 48 28.5 72.5t68.5 24.5q39 0 67.5 -24.5t28.5 -72.5v-414h37l124 439q11 37 35 54.5t53 17.5q20 0 39 -6.5t33.5 -18.5t23 -29t8.5 -38q0 -13 -5 -30l-143 -511q-6 -23 -17.5 -37t-25.5 -22.5
t-29 -11.5t-28 -3h-455q-98 0 -98 98v512zM390 800l-94 -51q-7 -4 -13 -5t-13 -1q-20 0 -35 15.5t-15 37.5q0 8 6.5 21.5t20.5 21.5l117 63q17 5 27 5q6 0 12.5 -1t11.5 -4l117 -63q14 -8 20.5 -21.5t6.5 -21.5q0 -22 -15 -37.5t-35 -15.5q-15 0 -25 6z" />
    <glyph glyph-name="wcircumflex" unicode="&#x175;" horiz-adv-x="863" 
d="M41 0zM41 610q0 48 28.5 72.5t69.5 24.5q38 0 67 -25t29 -72v-414h61v414q0 48 28.5 72.5t68.5 24.5q39 0 67.5 -24.5t28.5 -72.5v-414h37l124 439q11 37 35 54.5t53 17.5q20 0 39 -6.5t33.5 -18.5t23 -29t8.5 -38q0 -13 -5 -30l-143 -511q-6 -23 -17.5 -37t-25.5 -22.5
t-29 -11.5t-28 -3h-455q-98 0 -98 98v512zM390 800l-94 -51q-7 -4 -13 -5t-13 -1q-20 0 -35 15.5t-15 37.5q0 8 6.5 21.5t20.5 21.5l117 63q17 5 27 5q6 0 12.5 -1t11.5 -4l117 -63q14 -8 20.5 -21.5t6.5 -21.5q0 -22 -15 -37.5t-35 -15.5q-15 0 -25 6z" />
    <glyph glyph-name="Ycircumflex" unicode="&#x176;" horiz-adv-x="576" 
d="M18 0zM375 657q15 26 37.5 38t45.5 12q19 0 37 -7.5t32 -20t22.5 -30t8.5 -37.5q0 -27 -16 -53l-156 -254v-212q0 -48 -29 -72.5t-68 -24.5q-40 0 -68.5 24.5t-28.5 72.5v212l-158 255q-16 25 -16 49q0 20 8.5 38t22.5 31.5t32 21t38 7.5q21 0 44 -11.5t38 -37.5l87 -152
zM288 800l-94 -51q-7 -4 -13 -5t-13 -1q-20 0 -35 15.5t-15 37.5q0 8 6.5 21.5t20.5 21.5l117 63q17 5 27 5q6 0 12.5 -1t11.5 -4l117 -63q14 -8 20.5 -21.5t6.5 -21.5q0 -22 -15 -37.5t-35 -15.5q-15 0 -25 6z" />
    <glyph glyph-name="ycircumflex" unicode="&#x177;" horiz-adv-x="576" 
d="M18 0zM375 657q15 26 37.5 38t45.5 12q19 0 37 -7.5t32 -20t22.5 -30t8.5 -37.5q0 -27 -16 -53l-156 -254v-212q0 -48 -29 -72.5t-68 -24.5q-40 0 -68.5 24.5t-28.5 72.5v212l-158 255q-16 25 -16 49q0 20 8.5 38t22.5 31.5t32 21t38 7.5q21 0 44 -11.5t38 -37.5l87 -152
zM288 800l-94 -51q-7 -4 -13 -5t-13 -1q-20 0 -35 15.5t-15 37.5q0 8 6.5 21.5t20.5 21.5l117 63q17 5 27 5q6 0 12.5 -1t11.5 -4l117 -63q14 -8 20.5 -21.5t6.5 -21.5q0 -22 -15 -37.5t-35 -15.5q-15 0 -25 6z" />
    <glyph glyph-name="Ydieresis" unicode="&#x178;" horiz-adv-x="576" 
d="M18 0zM375 657q15 26 37.5 38t45.5 12q19 0 37 -7.5t32 -20t22.5 -30t8.5 -37.5q0 -27 -16 -53l-156 -254v-212q0 -48 -29 -72.5t-68 -24.5q-40 0 -68.5 24.5t-28.5 72.5v212l-158 255q-16 25 -16 49q0 20 8.5 38t22.5 31.5t32 21t38 7.5q21 0 44 -11.5t38 -37.5l87 -152
zM92 825q0 32 21 53.5t52 21.5q32 0 53 -21.5t21 -53.5q0 -31 -21 -51.5t-53 -20.5q-31 0 -52 20.5t-21 51.5zM336 825q0 32 22 53.5t53 21.5t51.5 -21.5t20.5 -53.5q0 -31 -20.5 -51.5t-51.5 -20.5t-53 20.5t-22 51.5z" />
    <glyph glyph-name="Zacute" unicode="&#x179;" horiz-adv-x="619" 
d="M29 0zM494 195q46 0 72 -28.5t26 -68.5t-26 -69t-72 -29h-370q-48 0 -71.5 25.5t-23.5 58.5q0 20 5.5 39.5t21.5 40.5l263 344h-190q-46 0 -71.5 29t-25.5 69t25.5 69t71.5 29h365q24 0 42 -7t29 -19t16.5 -27t5.5 -30q0 -25 -6 -40.5t-17 -29.5l-256 -356h186zM344 759
q-16 -16 -35 -16q-20 0 -35 15.5t-15 35.5q0 19 14 33l103 106q13 15 32 15q20 0 35.5 -15t15.5 -35q0 -8 -3 -16.5t-11 -16.5z" />
    <glyph glyph-name="zacute" unicode="&#x17a;" horiz-adv-x="619" 
d="M29 0zM494 195q46 0 72 -28.5t26 -68.5t-26 -69t-72 -29h-370q-48 0 -71.5 25.5t-23.5 58.5q0 20 5.5 39.5t21.5 40.5l263 344h-190q-46 0 -71.5 29t-25.5 69t25.5 69t71.5 29h365q24 0 42 -7t29 -19t16.5 -27t5.5 -30q0 -25 -6 -40.5t-17 -29.5l-256 -356h186zM344 759
q-16 -16 -35 -16q-20 0 -35 15.5t-15 35.5q0 19 14 33l103 106q13 15 32 15q20 0 35.5 -15t15.5 -35q0 -8 -3 -16.5t-11 -16.5z" />
    <glyph glyph-name="Zdotaccent" unicode="&#x17b;" horiz-adv-x="619" 
d="M29 0zM494 195q46 0 72 -28.5t26 -68.5t-26 -69t-72 -29h-370q-48 0 -71.5 25.5t-23.5 58.5q0 20 5.5 39.5t21.5 40.5l263 344h-190q-46 0 -71.5 29t-25.5 69t25.5 69t71.5 29h365q24 0 42 -7t29 -19t16.5 -27t5.5 -30q0 -25 -6 -40.5t-17 -29.5l-256 -356h186zM236 825
q0 32 21 53.5t52 21.5q32 0 53 -21.5t21 -53.5q0 -31 -21 -51.5t-53 -20.5q-31 0 -52 20.5t-21 51.5z" />
    <glyph glyph-name="zdotaccent" unicode="&#x17c;" horiz-adv-x="619" 
d="M29 0zM494 195q46 0 72 -28.5t26 -68.5t-26 -69t-72 -29h-370q-48 0 -71.5 25.5t-23.5 58.5q0 20 5.5 39.5t21.5 40.5l263 344h-190q-46 0 -71.5 29t-25.5 69t25.5 69t71.5 29h365q24 0 42 -7t29 -19t16.5 -27t5.5 -30q0 -25 -6 -40.5t-17 -29.5l-256 -356h186zM236 825
q0 32 21 53.5t52 21.5q32 0 53 -21.5t21 -53.5q0 -31 -21 -51.5t-53 -20.5q-31 0 -52 20.5t-21 51.5z" />
    <glyph glyph-name="Zcaron" unicode="&#x17d;" horiz-adv-x="619" 
d="M29 0zM494 195q46 0 72 -28.5t26 -68.5t-26 -69t-72 -29h-370q-48 0 -71.5 25.5t-23.5 58.5q0 20 5.5 39.5t21.5 40.5l263 344h-190q-46 0 -71.5 29t-25.5 69t25.5 69t71.5 29h365q24 0 42 -7t29 -19t16.5 -27t5.5 -30q0 -25 -6 -40.5t-17 -29.5l-256 -356h186zM310 851
l94 51q6 4 12 4.5t13 0.5q20 0 35 -15.5t15 -36.5q0 -31 -27 -44l-117 -62q-11 -6 -27 -6q-14 0 -24 6l-117 62q-15 8 -21 19t-6 25q0 21 15 36.5t35 15.5q7 0 13 -0.5t13 -4.5z" />
    <glyph glyph-name="zcaron" unicode="&#x17e;" horiz-adv-x="619" 
d="M29 0zM494 195q46 0 72 -28.5t26 -68.5t-26 -69t-72 -29h-370q-48 0 -71.5 25.5t-23.5 58.5q0 20 5.5 39.5t21.5 40.5l263 344h-190q-46 0 -71.5 29t-25.5 69t25.5 69t71.5 29h365q24 0 42 -7t29 -19t16.5 -27t5.5 -30q0 -25 -6 -40.5t-17 -29.5l-256 -356h186zM310 851
l94 51q6 4 12 4.5t13 0.5q20 0 35 -15.5t15 -36.5q0 -31 -27 -44l-117 -62q-11 -6 -27 -6q-14 0 -24 6l-117 62q-15 8 -21 19t-6 25q0 21 15 36.5t35 15.5q7 0 13 -0.5t13 -4.5z" />
    <glyph glyph-name="Scommaaccent" unicode="&#x218;" horiz-adv-x="571" 
d="M29 0zM544 224q0 -224 -219 -224h-193q-24 0 -42 8.5t-30 22t-18 31t-6 36.5q0 18 6 35.5t18.5 31t31 22t42.5 8.5h202q20 0 29.5 11.5t9.5 24.5q0 14 -9.5 26t-29.5 12h-100q-103 0 -155 50t-52 159q0 226 221 226h156q25 0 44 -8.5t32 -22t19.5 -31t6.5 -35.5t-6.5 -36
t-19.5 -32t-32.5 -22.5t-44.5 -8.5h-168q-20 0 -29 -11.5t-9 -25.5q0 -13 9 -24.5t29 -11.5h100q106 0 156.5 -51t50.5 -160zM293 -188q-7 -24 -22 -35t-35 -11q-27 0 -46.5 15.5t-19.5 41.5q0 13 3 19l26 96q14 47 57 47q32 0 48 -19.5t16 -47.5q0 -4 -2 -10z" />
    <glyph glyph-name="scommaaccent" unicode="&#x219;" horiz-adv-x="571" 
d="M29 0zM544 224q0 -224 -219 -224h-193q-24 0 -42 8.5t-30 22t-18 31t-6 36.5q0 18 6 35.5t18.5 31t31 22t42.5 8.5h202q20 0 29.5 11.5t9.5 24.5q0 14 -9.5 26t-29.5 12h-100q-103 0 -155 50t-52 159q0 226 221 226h156q25 0 44 -8.5t32 -22t19.5 -31t6.5 -35.5t-6.5 -36
t-19.5 -32t-32.5 -22.5t-44.5 -8.5h-168q-20 0 -29 -11.5t-9 -25.5q0 -13 9 -24.5t29 -11.5h100q106 0 156.5 -51t50.5 -160zM293 -188q-7 -24 -22 -35t-35 -11q-27 0 -46.5 15.5t-19.5 41.5q0 13 3 19l26 96q14 47 57 47q32 0 48 -19.5t16 -47.5q0 -4 -2 -10z" />
    <glyph glyph-name="uni021A" unicode="&#x21a;" horiz-adv-x="558" 
d="M16 0zM375 93q0 -48 -29 -72.5t-69 -24.5q-39 0 -67.5 24.5t-28.5 72.5v415h-68q-46 0 -71.5 29t-25.5 69t25.5 69t71.5 29h328q46 0 72 -29t26 -69t-26 -69t-72 -29h-66v-415zM299 -188q-7 -24 -22 -35t-35 -11q-27 0 -46.5 15.5t-19.5 41.5q0 13 3 19l26 96
q14 47 57 47q32 0 48 -19.5t16 -47.5q0 -4 -2 -10z" />
    <glyph glyph-name="uni021B" unicode="&#x21b;" horiz-adv-x="558" 
d="M16 0zM375 93q0 -48 -29 -72.5t-69 -24.5q-39 0 -67.5 24.5t-28.5 72.5v415h-68q-46 0 -71.5 29t-25.5 69t25.5 69t71.5 29h328q46 0 72 -29t26 -69t-26 -69t-72 -29h-66v-415zM299 -188q-7 -24 -22 -35t-35 -11q-27 0 -46.5 15.5t-19.5 41.5q0 13 3 19l26 96
q14 47 57 47q32 0 48 -19.5t16 -47.5q0 -4 -2 -10z" />
    <glyph glyph-name="circumflex" unicode="&#x2c6;" horiz-adv-x="395" 
d="M198 800l-94 -51q-7 -4 -13 -5t-13 -1q-20 0 -35 15.5t-15 37.5q0 8 6.5 21.5t20.5 21.5l117 63q17 5 27 5q6 0 12.5 -1t11.5 -4l117 -63q14 -8 20.5 -21.5t6.5 -21.5q0 -22 -15 -37.5t-35 -15.5q-15 0 -25 6z" />
    <glyph glyph-name="caron" unicode="&#x2c7;" horiz-adv-x="395" 
d="M198 851l94 51q6 4 12 4.5t13 0.5q20 0 35 -15.5t15 -36.5q0 -31 -27 -44l-117 -62q-11 -6 -27 -6q-14 0 -24 6l-117 62q-15 8 -21 19t-6 25q0 21 15 36.5t35 15.5q7 0 13 -0.5t13 -4.5z" />
    <glyph glyph-name="breve" unicode="&#x2d8;" horiz-adv-x="395" 
d="M317 907q20 0 35 -15.5t15 -36.5q0 -27 -17 -47.5t-42.5 -35t-55 -22t-54.5 -7.5q-26 0 -55.5 7.5t-55 22t-42.5 35t-17 47.5q0 21 15 36.5t35 15.5q23 0 34 -10t20.5 -22.5t23 -22.5t42.5 -10q28 0 41.5 10t23 22.5t20.5 22.5t34 10z" />
    <glyph glyph-name="dotaccent" unicode="&#x2d9;" horiz-adv-x="204" 
d="M28 825q0 32 21 53.5t52 21.5q32 0 53 -21.5t21 -53.5q0 -31 -21 -51.5t-53 -20.5q-31 0 -52 20.5t-21 51.5z" />
    <glyph glyph-name="ring" unicode="&#x2da;" horiz-adv-x="277" 
d="M28 818q0 22 8.5 41.5t23.5 34t35.5 22.5t43.5 8t43 -8t35 -22.5t23.5 -34t8.5 -41.5t-8.5 -41.5t-23.5 -33.5t-35 -22.5t-43 -8.5t-43.5 8.5t-35.5 22.5t-23.5 33.5t-8.5 41.5zM96 817q0 -18 13 -31.5t30 -13.5q18 0 30.5 13.5t12.5 31.5q0 19 -12.5 32t-30.5 13
q-17 0 -30 -13t-13 -32z" />
    <glyph glyph-name="ogonek" unicode="&#x2db;" horiz-adv-x="321" 
d="M125 61q30 0 30 -27q0 -11 -3.5 -18.5t-7.5 -14.5t-7.5 -15t-3.5 -21q0 -19 13.5 -25t58.5 -6t66.5 -25t21.5 -60q0 -33 -21.5 -58t-61.5 -25q-51 0 -86 11t-56.5 30t-30.5 44.5t-9 54.5q0 26 7.5 53.5t21 50t31 37t37.5 14.5z" />
    <glyph glyph-name="tilde" unicode="&#x2dc;" horiz-adv-x="493" 
d="M381 886q9 11 18 14.5t15 3.5q20 0 35.5 -14t15.5 -34q0 -23 -12 -41.5t-30.5 -32t-41.5 -20.5t-45 -7q-23 0 -46 7.5t-44.5 16t-41.5 16t-38 7.5q-15 0 -25 -7t-30 -28q-8 -9 -17 -13t-16 -4q-18 0 -34 14t-16 34q0 22 12 41t30.5 32.5t41.5 21t45 7.5q21 0 43 -7.5
t43.5 -16t42 -16t39.5 -7.5q17 0 27.5 6.5t28.5 26.5z" />
    <glyph glyph-name="hungarumlaut" unicode="&#x2dd;" horiz-adv-x="457" 
d="M313 759q-16 -16 -35 -16q-20 0 -35 15.5t-15 35.5q0 16 14 33l103 106q13 15 32 15q20 0 35.5 -15t15.5 -35q0 -8 -3 -16.5t-11 -16.5zM113 759q-16 -16 -35 -16q-20 0 -35 15.5t-15 35.5q0 19 14 33l103 106q13 15 32 15q20 0 35.5 -15t15.5 -35q0 -8 -3 -16.5
t-11 -16.5z" />
    <glyph glyph-name="Delta" unicode="&#x394;" horiz-adv-x="671" 
d="M658 88q0 -20 -9 -36t-24 -27.5t-34 -18t-38 -6.5h-434q-20 0 -38.5 6t-33.5 17t-24 27.5t-9 37.5q0 14 2 22t7 17l233 522q12 27 32.5 42.5t59.5 15.5t58 -16t30 -43l213 -521q4 -9 6.5 -18.5t2.5 -20.5zM260 195h159l-74 215z" />
    <glyph glyph-name="Omega" unicode="&#x3a9;" horiz-adv-x="645" 
d="M102 0q-57 0 -57 57q0 53 57 53h35q-16 20 -32.5 45.5t-29.5 57t-21 70.5t-8 86q0 168 64.5 255.5t212.5 87.5t213 -87.5t65 -255.5q0 -47 -8 -86t-21 -70.5t-29 -57t-32 -45.5h33q58 0 58 -51q0 -59 -58 -59h-152q-51 0 -51 50q0 24 6 38t15.5 26t20.5 27.5t20.5 43
t15.5 71t6 113.5q0 43 -1.5 80t-10.5 64t-30 42.5t-60 15.5q-37 0 -57.5 -14t-30 -39t-11.5 -59.5t-2 -76.5q0 -73 6 -119t15.5 -75t20 -45t20 -29t15.5 -26.5t6 -37.5q0 -50 -47 -50h-156z" />
    <glyph glyph-name="Wgrave" unicode="&#x1e80;" horiz-adv-x="863" 
d="M41 0zM41 610q0 48 28.5 72.5t69.5 24.5q38 0 67 -25t29 -72v-414h61v414q0 48 28.5 72.5t68.5 24.5q39 0 67.5 -24.5t28.5 -72.5v-414h37l124 439q11 37 35 54.5t53 17.5q20 0 39 -6.5t33.5 -18.5t23 -29t8.5 -38q0 -13 -5 -30l-143 -511q-6 -23 -17.5 -37t-25.5 -22.5
t-29 -11.5t-28 -3h-455q-98 0 -98 98v512zM253 865q-8 8 -11 16.5t-3 16.5q0 20 15.5 35t35.5 15q18 0 32 -15l103 -106q14 -14 14 -33q0 -20 -15 -35.5t-35 -15.5q-19 0 -35 16z" />
    <glyph glyph-name="wgrave" unicode="&#x1e81;" horiz-adv-x="863" 
d="M41 0zM41 610q0 48 28.5 72.5t69.5 24.5q38 0 67 -25t29 -72v-414h61v414q0 48 28.5 72.5t68.5 24.5q39 0 67.5 -24.5t28.5 -72.5v-414h37l124 439q11 37 35 54.5t53 17.5q20 0 39 -6.5t33.5 -18.5t23 -29t8.5 -38q0 -13 -5 -30l-143 -511q-6 -23 -17.5 -37t-25.5 -22.5
t-29 -11.5t-28 -3h-455q-98 0 -98 98v512zM253 865q-8 8 -11 16.5t-3 16.5q0 20 15.5 35t35.5 15q18 0 32 -15l103 -106q14 -14 14 -33q0 -20 -15 -35.5t-35 -15.5q-19 0 -35 16z" />
    <glyph glyph-name="Wacute" unicode="&#x1e82;" horiz-adv-x="863" 
d="M41 0zM41 610q0 48 28.5 72.5t69.5 24.5q38 0 67 -25t29 -72v-414h61v414q0 48 28.5 72.5t68.5 24.5q39 0 67.5 -24.5t28.5 -72.5v-414h37l124 439q11 37 35 54.5t53 17.5q20 0 39 -6.5t33.5 -18.5t23 -29t8.5 -38q0 -13 -5 -30l-143 -511q-6 -23 -17.5 -37t-25.5 -22.5
t-29 -11.5t-28 -3h-455q-98 0 -98 98v512zM424 759q-16 -16 -35 -16q-20 0 -35 15.5t-15 35.5q0 19 14 33l103 106q13 15 32 15q20 0 35.5 -15t15.5 -35q0 -8 -3 -16.5t-11 -16.5z" />
    <glyph glyph-name="wacute" unicode="&#x1e83;" horiz-adv-x="863" 
d="M41 0zM41 610q0 48 28.5 72.5t69.5 24.5q38 0 67 -25t29 -72v-414h61v414q0 48 28.5 72.5t68.5 24.5q39 0 67.5 -24.5t28.5 -72.5v-414h37l124 439q11 37 35 54.5t53 17.5q20 0 39 -6.5t33.5 -18.5t23 -29t8.5 -38q0 -13 -5 -30l-143 -511q-6 -23 -17.5 -37t-25.5 -22.5
t-29 -11.5t-28 -3h-455q-98 0 -98 98v512zM424 759q-16 -16 -35 -16q-20 0 -35 15.5t-15 35.5q0 19 14 33l103 106q13 15 32 15q20 0 35.5 -15t15.5 -35q0 -8 -3 -16.5t-11 -16.5z" />
    <glyph glyph-name="Wdieresis" unicode="&#x1e84;" horiz-adv-x="863" 
d="M41 0zM41 610q0 48 28.5 72.5t69.5 24.5q38 0 67 -25t29 -72v-414h61v414q0 48 28.5 72.5t68.5 24.5q39 0 67.5 -24.5t28.5 -72.5v-414h37l124 439q11 37 35 54.5t53 17.5q20 0 39 -6.5t33.5 -18.5t23 -29t8.5 -38q0 -13 -5 -30l-143 -511q-6 -23 -17.5 -37t-25.5 -22.5
t-29 -11.5t-28 -3h-455q-98 0 -98 98v512zM194 825q0 32 21 53.5t52 21.5q32 0 53 -21.5t21 -53.5q0 -31 -21 -51.5t-53 -20.5q-31 0 -52 20.5t-21 51.5zM438 825q0 32 22 53.5t53 21.5t51.5 -21.5t20.5 -53.5q0 -31 -20.5 -51.5t-51.5 -20.5t-53 20.5t-22 51.5z" />
    <glyph glyph-name="wdieresis" unicode="&#x1e85;" horiz-adv-x="863" 
d="M41 0zM41 610q0 48 28.5 72.5t69.5 24.5q38 0 67 -25t29 -72v-414h61v414q0 48 28.5 72.5t68.5 24.5q39 0 67.5 -24.5t28.5 -72.5v-414h37l124 439q11 37 35 54.5t53 17.5q20 0 39 -6.5t33.5 -18.5t23 -29t8.5 -38q0 -13 -5 -30l-143 -511q-6 -23 -17.5 -37t-25.5 -22.5
t-29 -11.5t-28 -3h-455q-98 0 -98 98v512zM194 825q0 32 21 53.5t52 21.5q32 0 53 -21.5t21 -53.5q0 -31 -21 -51.5t-53 -20.5q-31 0 -52 20.5t-21 51.5zM438 825q0 32 22 53.5t53 21.5t51.5 -21.5t20.5 -53.5q0 -31 -20.5 -51.5t-51.5 -20.5t-53 20.5t-22 51.5z" />
    <glyph glyph-name="Ygrave" unicode="&#x1ef2;" horiz-adv-x="576" 
d="M18 0zM375 657q15 26 37.5 38t45.5 12q19 0 37 -7.5t32 -20t22.5 -30t8.5 -37.5q0 -27 -16 -53l-156 -254v-212q0 -48 -29 -72.5t-68 -24.5q-40 0 -68.5 24.5t-28.5 72.5v212l-158 255q-16 25 -16 49q0 20 8.5 38t22.5 31.5t32 21t38 7.5q21 0 44 -11.5t38 -37.5l87 -152
zM152 865q-8 8 -11 16.5t-3 16.5q0 20 15.5 35t35.5 15q18 0 32 -15l103 -106q14 -14 14 -33q0 -20 -15 -35.5t-35 -15.5q-19 0 -35 16z" />
    <glyph glyph-name="ygrave" unicode="&#x1ef3;" horiz-adv-x="576" 
d="M18 0zM375 657q15 26 37.5 38t45.5 12q19 0 37 -7.5t32 -20t22.5 -30t8.5 -37.5q0 -27 -16 -53l-156 -254v-212q0 -48 -29 -72.5t-68 -24.5q-40 0 -68.5 24.5t-28.5 72.5v212l-158 255q-16 25 -16 49q0 20 8.5 38t22.5 31.5t32 21t38 7.5q21 0 44 -11.5t38 -37.5l87 -152
zM152 865q-8 8 -11 16.5t-3 16.5q0 20 15.5 35t35.5 15q18 0 32 -15l103 -106q14 -14 14 -33q0 -20 -15 -35.5t-35 -15.5q-19 0 -35 16z" />
    <glyph glyph-name="endash" unicode="&#x2013;" horiz-adv-x="619" 
d="M100 269q-38 0 -59.5 24t-21.5 56q0 34 21.5 59t59.5 25h419q38 0 60 -25t22 -59q0 -32 -22 -56t-60 -24h-419z" />
    <glyph glyph-name="emdash" unicode="&#x2014;" horiz-adv-x="866" 
d="M100 269q-38 0 -59.5 24t-21.5 56q0 34 21.5 59t59.5 25h666q38 0 60 -25t22 -59q0 -32 -22 -56t-60 -24h-666z" />
    <glyph glyph-name="quoteleft" unicode="&#x2018;" horiz-adv-x="255" 
d="M25 642q-1 7 -1 13v11q0 36 26 60.5t62 24.5q27 0 49 -17t31 -50l35 -132q3 -15 3 -27q0 -34 -26.5 -56.5t-63.5 -22.5q-26 0 -48 15.5t-31 49.5z" />
    <glyph glyph-name="quoteright" unicode="&#x2019;" horiz-adv-x="255" 
d="M193 511q-9 -34 -31 -49.5t-48 -15.5q-37 0 -63.5 22.5t-26.5 56.5q0 12 3 27l36 132q18 67 79 67q43 0 65.5 -27.5t22.5 -66.5q0 -5 -2 -15z" />
    <glyph glyph-name="quotesinglbase" unicode="&#x201a;" horiz-adv-x="255" 
d="M193 -108q-9 -33 -31 -48.5t-48 -15.5q-37 0 -63.5 22t-26.5 57q0 12 3 26l36 133q18 65 79 65q45 0 66.5 -27t21.5 -66q0 -4 -2 -14z" />
    <glyph glyph-name="quotedblleft" unicode="&#x201c;" horiz-adv-x="490" 
d="M261 642q-2 10 -2 15q0 39 23 66.5t65 27.5q28 0 49.5 -17t30.5 -50l36 -132q3 -15 3 -27q0 -34 -27 -56.5t-64 -22.5q-26 0 -48 15.5t-31 49.5zM25 642q-1 7 -1 13v11q0 36 26 60.5t62 24.5q27 0 49 -17t31 -50l35 -132q3 -15 3 -27q0 -34 -26.5 -56.5t-63.5 -22.5
q-26 0 -48 15.5t-31 49.5z" />
    <glyph glyph-name="quotedblright" unicode="&#x201d;" horiz-adv-x="490" 
d="M193 511q-9 -34 -31 -49.5t-48 -15.5q-37 0 -63.5 22.5t-26.5 56.5q0 12 3 27l36 132q18 67 79 67q43 0 65.5 -27.5t22.5 -66.5q0 -5 -2 -15zM428 511q-8 -34 -30.5 -49.5t-48.5 -15.5q-37 0 -63.5 22.5t-26.5 56.5q0 19 4 27l35 132q9 33 30 50t49 17q42 0 65.5 -27.5
t23.5 -66.5q0 -5 -2 -15z" />
    <glyph glyph-name="quotedblbase" unicode="&#x201e;" horiz-adv-x="490" 
d="M193 -108q-9 -33 -31 -48.5t-48 -15.5q-37 0 -63.5 22t-26.5 57q0 12 3 26l36 133q18 65 79 65q45 0 66.5 -27t21.5 -66q0 -4 -2 -14zM428 -108q-9 -33 -30.5 -48.5t-48.5 -15.5q-37 0 -63.5 22t-26.5 57q0 19 4 26l35 133q17 65 79 65q45 0 67 -27t22 -66q0 -4 -2 -14z
" />
    <glyph glyph-name="dagger" unicode="&#x2020;" horiz-adv-x="422" 
d="M254 481l-13 -375q-2 -39 -42 -39q-42 0 -42 39l-15 375h-82q-38 0 -38 37q0 35 38 35h76v101q0 53 63 53q64 0 64 -53v-101h78q35 0 35 -36t-35 -36h-87z" />
    <glyph glyph-name="daggerdbl" unicode="&#x2021;" horiz-adv-x="443" 
d="M159 251l13 113l-14 108h-87q-38 0 -38 40q0 36 38 36h80v105q0 54 66 54q64 0 64 -54v-105h83q37 0 37 -37q0 -39 -37 -39h-92l-12 -108l12 -113h88q41 0 41 -38t-41 -38h-78v-104q0 -54 -66 -54q-65 0 -65 54v104h-81q-37 0 -37 38t37 38h89z" />
    <glyph glyph-name="bullet" unicode="&#x2022;" horiz-adv-x="487" 
d="M28 414q0 45 16.5 84t45.5 68t68 46t84 17t84 -17t68.5 -46t46.5 -68t17 -84t-17 -84t-46.5 -68t-68.5 -45.5t-84 -16.5t-84 16.5t-68 45.5t-45.5 68t-16.5 84z" />
    <glyph glyph-name="ellipsis" unicode="&#x2026;" horiz-adv-x="847" 
d="M52 0zM247 93q0 -20 -8 -37.5t-21.5 -30.5t-31.5 -21t-37 -8q-20 0 -37.5 8t-30.5 21t-21 30.5t-8 37.5t8 37.5t21 31t30.5 21t37.5 7.5q19 0 37 -7.5t31.5 -21t21.5 -31t8 -37.5zM522 93q0 -20 -8 -37.5t-21.5 -30.5t-31.5 -21t-37 -8q-20 0 -37.5 8t-30.5 21t-21 30.5
t-8 37.5t8 37.5t21 31t30.5 21t37.5 7.5q19 0 37 -7.5t31.5 -21t21.5 -31t8 -37.5zM797 93q0 -20 -8 -37.5t-21.5 -30.5t-31.5 -21t-37 -8q-20 0 -37.5 8t-30.5 21t-21 30.5t-8 37.5t8 37.5t21 31t30.5 21t37.5 7.5q19 0 37 -7.5t31.5 -21t21.5 -31t8 -37.5z" />
    <glyph glyph-name="perthousand" unicode="&#x2030;" horiz-adv-x="1051" 
d="M1023 135q0 -29 -11 -54.5t-30.5 -45t-45.5 -31t-55 -11.5q-32 0 -58.5 11t-46 30t-30 45t-10.5 56t11.5 56.5t31 46t46 31t56.5 11.5q29 0 55 -11.5t45.5 -31.5t30.5 -46.5t11 -55.5zM825 135q0 -23 16.5 -39t39.5 -16t39 16t16 39t-16 39t-39 16t-39.5 -16t-16.5 -39z
M589 707q13 0 26 -5.5t23.5 -15t17 -22t6.5 -25.5q0 -22 -15 -41l-428 -573q-22 -29 -52 -29q-15 0 -28 6t-22.5 15.5t-15.5 22t-6 25.5q0 19 16 41l428 571q22 30 50 30zM333 566q0 -28 -11 -53.5t-30.5 -45t-45.5 -31.5t-56 -12q-32 0 -58 11t-45.5 30.5t-30 45
t-10.5 55.5t11.5 56.5t31 46t45.5 31t56 11.5t56 -11.5t45.5 -31.5t30.5 -46t11 -56zM135 566q0 -23 16 -38.5t39 -15.5t39.5 15.5t16.5 38.5q0 24 -16.5 40t-39.5 16t-39 -16t-16 -40zM706 135q0 -29 -11 -54.5t-30.5 -45t-45.5 -31t-56 -11.5q-32 0 -58.5 11t-46 30
t-30 45t-10.5 56t11.5 56.5t31 46t46 31t56.5 11.5t56 -11.5t45.5 -31.5t30.5 -46.5t11 -55.5zM508 135q0 -23 16 -39t39 -16t39 16t16 39t-16 39t-39 16t-39 -16t-16 -39z" />
    <glyph glyph-name="guilsinglleft" unicode="&#x2039;" horiz-adv-x="301" 
d="M257 247q8 -9 11.5 -19t3.5 -18q0 -25 -16 -39t-36 -14t-38 15l-137 139q-17 17 -17 31q0 25 17 42l137 138q17 17 38 17q20 0 36 -16.5t16 -36.5q0 -23 -15 -38l-100 -101z" />
    <glyph glyph-name="guilsinglright" unicode="&#x203a;" horiz-adv-x="301" 
d="M145 347l-100 101q-17 17 -17 38q0 20 16.5 36.5t36.5 16.5q21 0 38 -17l138 -138q9 -9 12 -18t3 -19q0 -11 -3 -19t-12 -17l-138 -139q-8 -8 -18 -11.5t-20 -3.5q-20 0 -36.5 15.5t-16.5 37.5q0 8 4 18t13 19z" />
    <glyph glyph-name="fraction" unicode="&#x2044;" horiz-adv-x="234" 
d="M319 707q13 0 26 -5.5t23.5 -15t17 -22t6.5 -25.5q0 -11 -4 -20.5t-12 -20.5l-428 -573q-22 -29 -52 -29q-14 0 -27 6t-23 15.5t-15.5 22t-5.5 25.5q0 9 3.5 19.5t11.5 21.5l429 571q11 14 22.5 22t27.5 8z" />
    <glyph glyph-name="zerosuperior" unicode="&#x2070;" horiz-adv-x="453" 
d="M40 350zM31.1992 422.982q0 44.998 16.7988 83.6973q16.7988 38.6982 46.1982 67.4971q29.3984 28.7988 68.3975 45.2979q38.998 16.5 83.9961 16.5t84.2969 -16.5q39.2979 -16.499 68.3975 -45.2979q29.0986 -28.7988 46.1973 -67.4971
q17.0996 -38.6992 17.0996 -83.6973t-17.0996 -83.9961q-17.0986 -38.998 -46.1973 -67.7969q-29.0996 -28.7988 -68.3975 -45.2988q-39.2988 -16.499 -84.2969 -16.499t-83.9961 16.499q-38.999 16.5 -68.3975 45.2988q-29.3994 28.7988 -46.1982 67.7969t-16.7988 83.9961
zM149.394 421.183q0 -20.3994 7.7998 -37.7979q7.7998 -17.3994 20.999 -30.2988q13.2002 -12.8994 30.8994 -20.0996q17.6992 -7.19922 38.0977 -7.19922q20.3994 0 38.0986 7.19922q17.6992 7.2002 31.1992 20.0996q13.499 12.8994 21.2988 30.2988
q7.7998 17.3984 7.7998 37.7979t-7.7998 38.0986t-21.2988 30.5986q-13.5 12.8994 -31.1992 20.0996q-17.6992 7.19922 -38.0986 7.19922q-20.3984 0 -38.0977 -7.19922q-17.6992 -7.2002 -30.8994 -20.0996q-13.1992 -12.8994 -20.999 -30.5986t-7.7998 -38.0986z" />
    <glyph glyph-name="foursuperior" unicode="&#x2074;" horiz-adv-x="410" 
d="M39 350zM357.586 267.589q0 -28.7988 -17.0996 -43.498t-41.0986 -14.6992q-23.3994 0 -40.7979 14.6992q-17.3994 14.6992 -17.3994 43.498v96.5967h-152.394q-58.7979 0 -58.7979 58.7969v155.395q0 28.7988 17.6992 43.1973q17.6992 14.4004 41.0986 14.4004
q23.3984 0 40.7979 -14.4004q17.3994 -14.3984 17.3994 -43.1973v-107.996h94.1963v107.996q0 28.7988 17.3994 43.1973q17.3984 14.4004 40.7979 14.4004q23.999 0 41.0986 -14.4004q17.0996 -14.3984 17.0996 -43.1973v-310.788z" />
    <glyph glyph-name="fivesuperior" unicode="&#x2075;" horiz-adv-x="419" 
d="M40 353zM372.585 346.786q0 -134.995 -131.395 -134.995h-143.994q-62.998 0 -62.998 58.7979q0 29.3994 16.5 43.7979q16.499 14.4004 47.0977 14.4004h140.395q32.3984 0 32.3984 23.998q0 24.5996 -32.3984 24.5996h-176.993q-10.7988 0 -17.0986 6.89941
t-6.2998 20.0996v212.392q0 8.99902 6.89941 13.1992q6.89941 4.19922 15.2998 4.19922h250.789q55.1982 0 55.1982 -58.7969q0 -58.7979 -56.3975 -58.7979h-160.194v-42.5986h98.9961q61.7979 0 92.9961 -30.8984q31.1992 -30.8984 31.1992 -96.2959z" />
    <glyph glyph-name="sixsuperior" unicode="&#x2076;" horiz-adv-x="417" 
d="M39 353zM369.585 346.186q0 -134.395 -131.995 -134.395h-80.9961q-65.3975 0 -94.7959 33.2988q-29.3994 33.2988 -29.3994 104.096v151.194q0 133.794 133.195 133.794h130.794q55.7979 0 55.7979 -58.7969q0 -29.3994 -14.6992 -44.0986t-41.6982 -14.6992h-124.795
q-10.7998 0 -17.3994 -6.2998t-6.59961 -18.8994v-20.999q5.39941 3 11.999 4.2002q6.60059 1.19922 13.2002 1.19922h72.5967q124.795 0 124.795 -129.595zM239.391 328.787q25.1982 0 25.1982 29.998q0 30.5986 -25.1982 30.5986h-68.998q-23.3984 0 -23.3984 -30.5986
q0 -29.998 23.3984 -29.998h68.998z" />
    <glyph glyph-name="sevensuperior" unicode="&#x2077;" horiz-adv-x="423" 
d="M39 350zM172.793 240.59q-10.7998 -17.3984 -24.5986 -24.2988q-13.7998 -6.89941 -26.999 -6.89941q-11.3994 0 -21.8994 4.2002q-10.499 4.19922 -18.5996 11.6992q-8.09961 7.5 -12.8994 17.3994t-4.7998 21.8984q0 5.40039 2.40039 15
q2.39941 9.59961 8.99902 19.1992l142.194 217.791h-129.595q-28.7988 0 -43.7979 17.3994t-14.999 41.3984t14.999 41.3984q14.999 17.3984 43.7979 17.3984h229.191q23.999 0 39.2979 -13.7988q15.2998 -13.7998 15.2998 -38.999q0 -8.39941 -2.40039 -17.999
q-2.39941 -9.59961 -8.39941 -19.1992z" />
    <glyph glyph-name="eightsuperior" unicode="&#x2078;" horiz-adv-x="424" 
d="M39 353zM137.395 211.791q-28.1992 0 -48.2979 8.7002q-20.0996 8.69922 -32.6992 23.999q-12.5996 15.2988 -18.2988 36.2988q-5.7002 20.999 -5.7002 44.998q0 18.5986 5.09961 36.2979q5.10059 17.6992 14.0996 31.499q9 13.7998 21.8994 22.7988
q12.8994 9 29.0986 10.7998q-32.3984 7.2002 -47.6982 34.499q-15.2988 27.2988 -15.2988 63.2969q0 23.3994 5.69922 43.498q5.7002 20.0996 17.0996 34.7988t28.1992 22.7988q16.7988 8.09961 38.3984 8.09961h150.594q22.1992 0 38.6982 -8.39941t27.8984 -23.0986
q11.4004 -14.6992 17.0996 -34.7988q5.7002 -20.0996 5.7002 -42.8984q0 -35.998 -15 -63.2969q-14.999 -27.2988 -47.3975 -34.499q16.1992 -1.7998 29.0986 -10.7998q12.8994 -8.99902 21.8994 -22.7988q8.99902 -13.7998 13.7988 -31.499t4.7998 -36.8984
q0 -23.999 -5.69922 -44.6982q-5.7002 -20.6992 -18.2998 -35.998q-12.5996 -15.2998 -32.3984 -23.999q-19.7988 -8.7002 -47.998 -8.7002h-134.395zM167.394 516.579q-12 0 -17.6992 -7.7998q-5.7002 -7.7998 -5.7002 -17.3994q0 -11.3994 6 -20.3994
q6 -8.99902 17.3994 -8.99902h73.7969q11.3994 0 17.3994 8.99902q5.99902 9 5.99902 20.3994q0 9.59961 -5.39941 17.3994t-17.999 7.7998h-73.7969zM167.394 376.785q-12 0 -17.6992 -7.5q-5.7002 -7.5 -5.7002 -16.5q0 -8.39941 5.7002 -16.1992
q5.69922 -7.79883 17.6992 -7.79883h73.7969q12.5996 0 17.999 7.79883q5.39941 7.7998 5.39941 16.1992q0 9 -5.39941 16.5t-17.999 7.5h-73.7969z" />
    <glyph glyph-name="ninesuperior" unicode="&#x2079;" horiz-adv-x="417" 
d="M39 353zM32.3984 498.58q0 135.594 131.395 135.594h80.9971q65.3975 0 94.7959 -33.5986q29.3994 -33.5986 29.3994 -104.396v-151.193q0 -133.195 -132.595 -133.195h-130.795q-55.7979 0 -55.7979 58.7979q0 29.3994 14.6992 43.7979q14.7002 14.4004 41.6982 14.4004
h124.795q10.2002 0 17.0996 6.29883q6.89941 6.2998 6.89941 18.2998v20.999q-5.39941 -2.40039 -12.2988 -3.2998q-6.90039 -0.900391 -12.8994 -0.900391h-73.1973q-124.195 0 -124.195 128.396zM162.594 516.579q-25.1992 0 -25.1992 -29.3994
q0 -31.1982 25.1992 -31.1982h68.9971q23.3984 0 23.3984 31.1982q0 29.3994 -23.3984 29.3994h-68.9971z" />
    <glyph glyph-name="zeroinferior" unicode="&#x2080;" horiz-adv-x="444" 
d="M40 0zM31.1992 169.193q0 44.998 16.7988 83.6963t46.1982 67.4971q29.3984 28.7988 68.3975 45.2988q38.998 16.499 83.9961 16.499t84.2969 -16.499q39.2979 -16.5 68.3975 -45.2988q29.0986 -28.7988 46.1973 -67.4971q17.0996 -38.6982 17.0996 -83.6963
t-17.0996 -83.9971q-17.0986 -38.998 -46.1973 -67.7969q-29.0996 -28.7988 -68.3975 -45.2979q-39.2988 -16.5 -84.2969 -16.5t-83.9961 16.5q-38.999 16.499 -68.3975 45.2979q-29.3994 28.7988 -46.1982 67.7969q-16.7988 38.999 -16.7988 83.9971zM149.394 167.394
q0 -20.3994 7.7998 -37.7988t20.999 -30.2988q13.2002 -12.8994 30.8994 -20.0986q17.6992 -7.2002 38.0977 -7.2002q20.3994 0 38.0986 7.2002q17.6992 7.19922 31.1992 20.0986q13.499 12.8994 21.2988 30.2988t7.7998 37.7988q0 20.3984 -7.7998 38.0977
q-7.7998 17.7002 -21.2988 30.5996q-13.5 12.8994 -31.1992 20.0986q-17.6992 7.2002 -38.0986 7.2002q-20.3984 0 -38.0977 -7.2002q-17.6992 -7.19922 -30.8994 -20.0986q-13.1992 -12.8994 -20.999 -30.5996q-7.7998 -17.6992 -7.7998 -38.0977z" />
    <glyph glyph-name="oneinferior" unicode="&#x2081;" horiz-adv-x="280" 
d="M39 0zM224.991 13.7998q0 -28.7988 -17.0996 -43.499q-17.0996 -14.6992 -41.0986 -14.6992q-22.7988 0 -40.1982 15q-17.3994 14.999 -17.3994 43.1982v168.593q-14.3994 -7.19922 -29.3984 -7.19922q-12 0 -21.8994 4.79883q-9.89941 4.80078 -17.0986 12.5996
q-7.2002 7.7998 -11.0996 18.2998q-3.90039 10.499 -3.90039 21.8994q0 12.5986 4.7998 24.5986q4.7998 11.999 14.999 22.1992l79.7969 78.5967q23.999 23.999 49.7988 23.999q22.7988 0 36.2979 -17.0996q13.5 -17.0986 13.5 -47.6982v-303.587z" />
    <glyph glyph-name="twoinferior" unicode="&#x2082;" horiz-adv-x="425" 
d="M40 0zM48.5977 -41.998q-14.999 0 -14.999 17.3994v116.995q0 65.3975 27.5986 94.7959q27.5996 29.3984 90.5967 29.3984h94.1963q29.998 0 29.998 22.7998q0 23.3984 -29.998 23.3984h-144.595q-56.3975 0 -56.3975 58.7979t55.7979 58.7979h144.594
q132.595 0 132.595 -135.595q0 -32.3984 -5.69922 -56.0977q-5.7002 -23.6992 -19.1992 -39.5986q-13.5 -15.8994 -35.999 -23.3984q-22.499 -7.5 -55.4971 -7.5h-98.9961q-27.5996 0 -27.5996 -22.1992v-20.999h181.793q32.999 0 47.0977 -14.3994
q14.0996 -14.3994 14.0996 -43.7988q0 -58.7969 -61.7969 -58.7969h-267.59z" />
    <glyph glyph-name="threeinferior" unicode="&#x2083;" horiz-adv-x="417" 
d="M44 0zM33.5986 16.7988q0 58.1982 56.3975 58.1982h143.395q12.5996 0 18.2988 7.7998q5.7002 7.7998 5.7002 16.1992q0 9 -5.7002 16.499q-5.69922 7.5 -18.2988 7.5h-128.995q-40.7979 0 -40.7979 43.1982q0 41.998 39.5977 41.998h130.195q11.999 0 17.999 9
q6 8.99902 6 20.3984q0 9.59961 -5.7002 17.3994q-5.69922 7.7998 -18.2988 7.7998h-146.395q-53.3975 0 -53.3975 58.7979t52.7979 58.7979h185.393q22.1992 0 38.998 -9.2998q16.7998 -9.2998 28.1992 -24.5986q11.3994 -15.2998 17.0996 -35.0986
q5.69922 -19.7998 5.69922 -40.1982q0 -35.999 -15.2988 -63.2979q-15.2998 -27.2988 -47.6982 -34.499q16.1992 -1.7998 29.0986 -10.7988q12.8994 -9 21.8994 -23.3994q8.99902 -14.3994 14.0986 -32.999q5.10059 -18.5986 5.10059 -38.998q0 -22.1992 -6 -41.998
q-6 -19.7998 -18.5996 -34.7988t-32.6982 -23.6992q-20.0996 -8.69922 -47.6982 -8.69922h-175.192q-55.1982 0 -55.1982 58.7969z" />
    <glyph glyph-name="fourinferior" unicode="&#x2084;" horiz-adv-x="410" 
d="M39 0zM357.586 13.7998q0 -28.7988 -17.0996 -43.499q-17.0996 -14.6992 -41.0986 -14.6992q-23.3994 0 -40.7979 14.6992q-17.3994 14.7002 -17.3994 43.499v96.5957h-152.394q-58.7979 0 -58.7979 58.7979v155.394q0 28.7988 17.6992 43.1982t41.0986 14.3994
q23.3984 0 40.7979 -14.3994t17.3994 -43.1982v-107.996h94.1963v107.996q0 28.7988 17.3994 43.1982q17.3984 14.3994 40.7979 14.3994q23.999 0 41.0986 -14.3994t17.0996 -43.1982v-310.787z" />
    <glyph glyph-name="fiveinferior" unicode="&#x2085;" horiz-adv-x="419" 
d="M40 0zM372.585 92.9961q0 -134.994 -131.395 -134.994h-143.994q-62.998 0 -62.998 58.7969q0 29.3994 16.5 43.7988q16.499 14.3994 47.0977 14.3994h140.395q32.3984 0 32.3984 23.999q0 24.5986 -32.3984 24.5986h-176.993q-10.7988 0 -17.0986 6.90039
q-6.2998 6.89941 -6.2998 20.0986v212.392q0 8.99902 6.89941 13.1992t15.2998 4.2002h250.789q55.1982 0 55.1982 -58.7979t-56.3975 -58.7979h-160.194v-42.5977h98.9961q61.7979 0 92.9961 -30.8994q31.1992 -30.8984 31.1992 -96.2959z" />
    <glyph glyph-name="sixinferior" unicode="&#x2086;" horiz-adv-x="417" 
d="M39 0zM369.585 92.3965q0 -134.395 -131.995 -134.395h-80.9961q-65.3975 0 -94.7959 33.2988q-29.3994 33.2979 -29.3994 104.096v151.193q0 133.795 133.195 133.795h130.794q55.7979 0 55.7979 -58.7979q0 -29.3984 -14.6992 -44.0986
q-14.6992 -14.6992 -41.6982 -14.6992h-124.795q-10.7998 0 -17.3994 -6.2998t-6.59961 -18.8994v-20.999q5.39941 3 11.999 4.2002q6.60059 1.2002 13.2002 1.2002h72.5967q124.795 0 124.795 -129.595zM239.391 74.9971q25.1982 0 25.1982 29.999
q0 30.5986 -25.1982 30.5986h-68.998q-23.3984 0 -23.3984 -30.5986q0 -29.999 23.3984 -29.999h68.998z" />
    <glyph glyph-name="seveninferior" unicode="&#x2087;" horiz-adv-x="423" 
d="M39 0zM172.793 -13.1992q-10.7998 -17.3994 -24.5986 -24.2988q-13.7998 -6.90039 -26.999 -6.90039q-11.3994 0 -21.8994 4.2002q-10.499 4.2002 -18.5996 11.6992q-8.09961 7.5 -12.8994 17.3994t-4.7998 21.8994q0 5.39941 2.40039 14.999
q2.39941 9.59961 8.99902 19.1992l142.194 217.791h-129.595q-28.7988 0 -43.7979 17.3994t-14.999 41.3984t14.999 41.3984t43.7979 17.3994h229.191q23.999 0 39.2979 -13.7998q15.2998 -13.7998 15.2998 -38.998q0 -8.39941 -2.40039 -17.999
q-2.39941 -9.59961 -8.39941 -19.1992z" />
    <glyph glyph-name="eightinferior" unicode="&#x2088;" horiz-adv-x="424" 
d="M39 0zM137.395 -41.998q-28.1992 0 -48.2979 8.69922q-20.0996 8.7002 -32.6992 23.999q-12.5996 15.2998 -18.2988 36.2988q-5.7002 20.999 -5.7002 44.998q0 18.5996 5.09961 36.2988q5.10059 17.6992 14.0996 31.498q9 13.7998 21.8994 22.7998
q12.8994 8.99902 29.0986 10.7988q-32.3984 7.2002 -47.6982 34.499q-15.2988 27.2988 -15.2988 63.2979q0 23.3984 5.69922 43.498q5.7002 20.0986 17.0996 34.7979q11.3994 14.7002 28.1992 22.7998q16.7988 8.09961 38.3984 8.09961h150.594q22.1992 0 38.6982 -8.40039
q16.499 -8.39941 27.8984 -23.0986q11.4004 -14.6992 17.0996 -34.7988q5.7002 -20.0986 5.7002 -42.8975q0 -35.999 -15 -63.2979q-14.999 -27.2988 -47.3975 -34.499q16.1992 -1.7998 29.0986 -10.7988q12.8994 -9 21.8994 -22.7998q8.99902 -13.7988 13.7988 -31.498
t4.7998 -36.8984q0 -23.999 -5.69922 -44.6982q-5.7002 -20.6992 -18.2998 -35.999q-12.5996 -15.2988 -32.3984 -23.999q-19.7988 -8.69922 -47.998 -8.69922h-134.395zM167.394 262.789q-12 0 -17.6992 -7.7998q-5.7002 -7.7998 -5.7002 -17.3994q0 -11.3994 6 -20.3984
q6 -9 17.3994 -9h73.7969q11.3994 0 17.3994 9q5.99902 8.99902 5.99902 20.3984q0 9.59961 -5.39941 17.3994t-17.999 7.7998h-73.7969zM167.394 122.995q-12 0 -17.6992 -7.5q-5.7002 -7.49902 -5.7002 -16.499q0 -8.39941 5.7002 -16.1992
q5.69922 -7.7998 17.6992 -7.7998h73.7969q12.5996 0 17.999 7.7998t5.39941 16.1992q0 9 -5.39941 16.499q-5.39941 7.5 -17.999 7.5h-73.7969z" />
    <glyph glyph-name="nineinferior" unicode="&#x2089;" horiz-adv-x="417" 
d="M39 0zM32.3984 244.79q0 135.595 131.395 135.595h80.9971q65.3975 0 94.7959 -33.5986q29.3994 -33.5986 29.3994 -104.396v-151.194q0 -133.194 -132.595 -133.194h-130.795q-55.7979 0 -55.7979 58.7969q0 29.3994 14.6992 43.7988q14.7002 14.3994 41.6982 14.3994
h124.795q10.2002 0 17.0996 6.2998t6.89941 18.2988v20.999q-5.39941 -2.39941 -12.2988 -3.2998q-6.90039 -0.899414 -12.8994 -0.899414h-73.1973q-124.195 0 -124.195 128.395zM162.594 262.789q-25.1992 0 -25.1992 -29.3984q0 -31.1992 25.1992 -31.1992h68.9971
q23.3984 0 23.3984 31.1992q0 29.3984 -23.3984 29.3984h-68.9971z" />
    <glyph glyph-name="dong" unicode="&#x20ab;" horiz-adv-x="504" 
d="M424 566v-372q0 -26 -16 -39t-37 -13q-31 0 -45 20q-39 -22 -87 -22q-41 0 -76.5 15.5t-61.5 41.5t-41.5 61.5t-15.5 76.5q0 40 15.5 76t41.5 62t61.5 41.5t76.5 15.5q22 0 41.5 -4.5t36.5 -12.5v53h-104q-19 0 -30 12t-11 28q0 17 11 28.5t30 11.5h104v14
q0 25 15.5 38.5t38.5 13.5q21 0 37 -13.5t16 -38.5v-14h19q20 0 30.5 -11.5t10.5 -28.5q0 -16 -10.5 -28t-30.5 -12h-19zM92 0q-24 0 -38 15.5t-14 37.5q0 21 14 36.5t38 15.5h298q26 0 40 -15.5t14 -36.5q0 -22 -14 -37.5t-40 -15.5h-298zM151 333q0 -37 26 -62.5t62 -25.5
q37 0 63 25.5t26 62.5q0 19 -7 35.5t-19 28.5t-28.5 19t-34.5 7t-34 -7t-28 -19t-19 -28.5t-7 -35.5z" />
    <glyph glyph-name="Euro" unicode="&#x20ac;" horiz-adv-x="613" 
d="M294 224q53 -53 136 -53h64q21 0 36 -7.5t25.5 -20t15.5 -28t5 -31.5t-5 -31t-14.5 -27t-25 -19t-36.5 -7h-71q-59 0 -111.5 16.5t-96.5 46.5t-77 71t-52 90h-5q-23 0 -40 16t-17 42q0 18 10 33.5t29 21.5v37q-17 5 -28 19.5t-11 35.5q0 23 15 40.5t42 17.5h6
q19 47 52 87t78 69t101 45t121 16h55q41 0 61.5 -27.5t20.5 -60.5q0 -16 -5 -31.5t-15.5 -27.5t-26 -19.5t-36.5 -7.5h-63q-86 0 -135 -43h162q27 0 42 -17.5t15 -40.5q0 -25 -15.5 -41.5t-41.5 -16.5h-216v-31h169q27 0 42 -17.5t15 -40.5q0 -25 -15.5 -41.5t-41.5 -16.5
h-117z" />
    <glyph glyph-name="trademark" unicode="&#x2122;" horiz-adv-x="752" 
d="M328 659q0 48 48 48h229q11 0 26.5 -6t22.5 -31l70 -254q3 -9 3 -16q0 -23 -16 -34.5t-36 -11.5q-15 0 -27 9t-17 28l-61 219h-18v-205q0 -24 -14 -36t-34 -12q-21 0 -35 12t-14 36v205h-31v-205q0 -24 -13.5 -36t-34.5 -12q-20 0 -34 12t-14 36v254zM210 406
q0 -24 -15 -36t-35 -12q-19 0 -33.5 12t-14.5 36v205h-35q-22 0 -35 14.5t-13 34.5t13 35t35 15h165q22 0 35 -15t13 -35t-13 -34.5t-35 -14.5h-32v-205z" />
    <glyph glyph-name="onethird" unicode="&#x2153;" horiz-adv-x="907" 
d="M39 0zM224.991 267.589q0 -28.7988 -17.0996 -43.498t-41.0986 -14.6992q-22.7988 0 -40.1982 14.999q-17.3994 15 -17.3994 43.1982v168.594q-14.3994 -7.2002 -29.3984 -7.2002q-12 0 -21.8994 4.7998t-17.0986 12.5996q-7.2002 7.7998 -11.0996 18.2988
q-3.90039 10.5 -3.90039 21.8994q0 12.5996 4.7998 24.5996q4.7998 11.999 14.999 22.1982l79.7969 78.5967q23.999 24 49.7988 24q22.7988 0 36.2979 -17.0996q13.5 -17.0996 13.5 -47.6982v-303.588zM328.187 16.7988q0 58.1982 56.3975 58.1982h143.395
q12.5996 0 18.2988 7.7998q5.7002 7.7998 5.7002 16.1992q0 9 -5.7002 16.499q-5.69922 7.5 -18.2988 7.5h-128.995q-40.7979 0 -40.7979 43.1982q0 41.998 39.5986 41.998h130.194q12 0 17.999 9q6 8.99902 6 20.3984q0 9.59961 -5.7002 17.3994
q-5.69922 7.7998 -18.2988 7.7998h-146.395q-53.3975 0 -53.3975 58.7979t52.7979 58.7979h185.393q22.1992 0 38.998 -9.2998q16.7998 -9.2998 28.1992 -24.5986q11.3994 -15.2998 17.0996 -35.0986q5.69922 -19.7998 5.69922 -40.1982q0 -35.999 -15.2988 -63.2979
q-15.2998 -27.2988 -47.6982 -34.499q16.1992 -1.7998 29.0986 -10.7988q12.8994 -9 21.8994 -23.3994q8.99902 -14.3994 14.0996 -32.999q5.09961 -18.5986 5.09961 -38.998q0 -22.1992 -6 -41.998q-6 -19.7998 -18.5996 -34.7988q-12.5986 -14.999 -32.6982 -23.6992
q-20.0996 -8.69922 -47.6982 -8.69922h-175.192q-55.1982 0 -55.1982 58.7969zM613 707q13 0 26 -5.5t23.5 -15t17 -22t6.5 -25.5q0 -11 -4 -20.5t-12 -20.5l-428 -573q-22 -29 -52 -29q-14 0 -27 6t-23 15.5t-15.5 22t-5.5 25.5q0 9 3.5 19.5t11.5 21.5l429 571
q11 14 22.5 22t27.5 8z" />
    <glyph glyph-name="twothirds" unicode="&#x2154;" horiz-adv-x="998" 
d="M40 0zM48.5977 211.791q-14.999 0 -14.999 17.3994v116.995q0 65.3975 27.5986 94.7969q27.5996 29.3984 90.5967 29.3984h94.1963q29.998 0 29.998 22.7988q0 23.3994 -29.998 23.3994h-144.595q-56.3975 0 -56.3975 58.7979q0 58.7969 55.7979 58.7969h144.594
q132.595 0 132.595 -135.594q0 -32.3994 -5.69922 -56.0977q-5.7002 -23.6992 -19.1992 -39.5986q-13.5 -15.8994 -35.999 -23.3994t-55.4971 -7.5h-98.9961q-27.5996 0 -27.5996 -22.1982v-20.999h181.793q32.999 0 47.0977 -14.4004q14.0996 -14.3984 14.0996 -43.7979
q0 -58.7979 -61.7969 -58.7979h-267.59zM382.185 16.7988q0 58.1982 56.3975 58.1982h143.395q12.5996 0 18.2988 7.7998q5.7002 7.7998 5.7002 16.1992q0 9 -5.7002 16.499q-5.69922 7.5 -18.2988 7.5h-128.995q-40.7979 0 -40.7979 43.1982q0 41.998 39.5977 41.998
h130.195q11.999 0 17.999 9q6 8.99902 6 20.3984q0 9.59961 -5.7002 17.3994q-5.69922 7.7998 -18.2988 7.7998h-146.395q-53.3975 0 -53.3975 58.7979t52.7979 58.7979h185.393q22.1992 0 38.998 -9.2998q16.7998 -9.2998 28.1992 -24.5986
q11.3994 -15.2998 17.0986 -35.0986q5.7002 -19.7998 5.7002 -40.1982q0 -35.999 -15.2998 -63.2979q-15.2988 -27.2988 -47.6973 -34.499q16.1992 -1.7998 29.0986 -10.7988q12.8994 -9 21.8984 -23.3994q9 -14.3994 14.0996 -32.999q5.09961 -18.5986 5.09961 -38.998
q0 -22.1992 -5.99902 -41.998q-6 -19.7998 -18.5996 -34.7988t-32.6982 -23.6992q-20.0996 -8.69922 -47.6982 -8.69922h-175.193q-55.1973 0 -55.1973 58.7969zM736 707q13 0 26 -5.5t23.5 -15t17 -22t6.5 -25.5q0 -11 -4 -20.5t-12 -20.5l-428 -573q-22 -29 -52 -29
q-14 0 -27 6t-23 15.5t-15.5 22t-5.5 25.5q0 9 3.5 19.5t11.5 21.5l429 571q11 14 22.5 22t27.5 8z" />
    <glyph glyph-name="oneeighth" unicode="&#x215b;" horiz-adv-x="860" 
d="M39 0zM224.991 267.589q0 -28.7988 -17.0996 -43.498t-41.0986 -14.6992q-22.7988 0 -40.1982 14.999q-17.3994 15 -17.3994 43.1982v168.594q-14.3994 -7.2002 -29.3984 -7.2002q-12 0 -21.8994 4.7998t-17.0986 12.5996q-7.2002 7.7998 -11.0996 18.2988
q-3.90039 10.5 -3.90039 21.8994q0 12.5996 4.7998 24.5996q4.7998 11.999 14.999 22.1982l79.7969 78.5967q23.999 24 49.7988 24q22.7988 0 36.2979 -17.0996q13.5 -17.0996 13.5 -47.6982v-303.588zM398.983 -41.998q-28.1982 0 -48.2979 8.69922
q-20.0986 8.7002 -32.6982 23.999q-12.5996 15.2998 -18.2998 36.2988q-5.69922 20.999 -5.69922 44.998q0 18.5996 5.09961 36.2988t14.0996 31.498q8.99902 13.7998 21.8984 22.7998q12.9004 8.99902 29.0996 10.7988q-32.3994 7.2002 -47.6982 34.499
q-15.2998 27.2988 -15.2998 63.2979q0 23.3984 5.7002 43.498q5.69922 20.0986 17.0986 34.7979q11.4004 14.7002 28.1992 22.7998q16.7998 8.09961 38.3984 8.09961h150.594q22.1992 0 38.6982 -8.40039q16.5 -8.39941 27.8994 -23.0986t17.0996 -34.7988
q5.69922 -20.0986 5.69922 -42.8975q0 -35.999 -14.999 -63.2979q-15 -27.2988 -47.3984 -34.499q16.1992 -1.7998 29.0986 -10.7988q12.8994 -9 21.8994 -22.7998q9 -13.7988 13.7998 -31.498t4.7998 -36.8984q0 -23.999 -5.7002 -44.6982
q-5.69922 -20.6992 -18.2988 -35.999q-12.5996 -15.2988 -32.3994 -23.999q-19.7988 -8.69922 -47.998 -8.69922h-134.395zM428.982 262.789q-11.999 0 -17.6992 -7.7998q-5.69922 -7.7998 -5.69922 -17.3994q0 -11.3994 5.99902 -20.3984q6 -9 17.3994 -9h73.7969
q11.3994 0 17.3994 9q6 8.99902 6 20.3984q0 9.59961 -5.39941 17.3994q-5.40039 7.7998 -18 7.7998h-73.7969zM428.982 122.995q-11.999 0 -17.6992 -7.5q-5.69922 -7.49902 -5.69922 -16.499q0 -8.39941 5.69922 -16.1992q5.7002 -7.7998 17.6992 -7.7998h73.7969
q12.5996 0 18 7.7998q5.39941 7.7998 5.39941 16.1992q0 9 -5.39941 16.499q-5.40039 7.5 -18 7.5h-73.7969zM590 707q13 0 26 -5.5t23.5 -15t17 -22t6.5 -25.5q0 -11 -4 -20.5t-12 -20.5l-428 -573q-22 -29 -52 -29q-14 0 -27 6t-23 15.5t-15.5 22t-5.5 25.5q0 9 3.5 19.5
t11.5 21.5l429 571q11 14 22.5 22t27.5 8z" />
    <glyph glyph-name="threeeighths" unicode="&#x215c;" horiz-adv-x="992" 
d="M44 0zM477.58 -41.998q-28.1982 0 -48.2979 8.69922q-20.0986 8.7002 -32.6982 23.999q-12.5996 15.2998 -18.2998 36.2988q-5.69922 20.999 -5.69922 44.998q0 18.5996 5.09961 36.2988t14.0996 31.498q8.99902 13.7998 21.8994 22.7998
q12.8994 8.99902 29.0986 10.7988q-32.3994 7.2002 -47.6982 34.499q-15.2998 27.2988 -15.2998 63.2979q0 23.3984 5.7002 43.498q5.69922 20.0986 17.0996 34.7979q11.3994 14.7002 28.1982 22.7998q16.7998 8.09961 38.3984 8.09961h150.594q22.1992 0 38.6992 -8.40039
q16.499 -8.39941 27.8984 -23.0986t17.0996 -34.7988q5.69922 -20.0986 5.69922 -42.8975q0 -35.999 -14.999 -63.2979q-15 -27.2988 -47.3984 -34.499q16.1992 -1.7998 29.0986 -10.7988q12.8994 -9 21.8994 -22.7998q9 -13.7988 13.7998 -31.498t4.7998 -36.8984
q0 -23.999 -5.7002 -44.6982q-5.69922 -20.6992 -18.2988 -35.999q-12.5996 -15.2988 -32.3994 -23.999q-19.7988 -8.69922 -47.998 -8.69922h-134.395zM507.579 262.789q-11.999 0 -17.6992 -7.7998q-5.69922 -7.7998 -5.69922 -17.3994q0 -11.3994 5.99902 -20.3984
q6 -9 17.3994 -9h73.7969q11.3994 0 17.3994 9q6 8.99902 6 20.3984q0 9.59961 -5.39941 17.3994q-5.40039 7.7998 -18 7.7998h-73.7969zM507.579 122.995q-11.999 0 -17.6992 -7.5q-5.69922 -7.49902 -5.69922 -16.499q0 -8.39941 5.69922 -16.1992
q5.7002 -7.7998 17.6992 -7.7998h73.7969q12.5996 0 18 7.7998q5.39941 7.7998 5.39941 16.1992q0 9 -5.39941 16.499q-5.40039 7.5 -18 7.5h-73.7969zM33.5986 270.589q0 58.1982 56.3975 58.1982h143.395q12.5996 0 18.2988 7.79883q5.7002 7.7998 5.7002 16.1992
q0 9 -5.7002 16.5q-5.69922 7.5 -18.2988 7.5h-128.995q-40.7979 0 -40.7979 43.1973q0 41.999 39.5977 41.999h130.195q11.999 0 17.999 8.99902q6 9 6 20.3994q0 9.59961 -5.7002 17.3994q-5.69922 7.7998 -18.2988 7.7998h-146.395q-53.3975 0 -53.3975 58.7979
q0 58.7969 52.7979 58.7969h185.393q22.1992 0 38.998 -9.29883q16.7998 -9.2998 28.1992 -24.5996q11.3994 -15.2988 17.0996 -35.0986q5.69922 -19.7988 5.69922 -40.1982q0 -35.998 -15.2988 -63.2969q-15.2998 -27.2988 -47.6982 -34.499
q16.1992 -1.7998 29.0986 -10.7998q12.8994 -8.99902 21.8994 -23.3984q8.99902 -14.3994 14.0986 -32.999q5.10059 -18.5996 5.10059 -38.998q0 -22.1992 -6 -41.999q-6 -19.7988 -18.5996 -34.7979q-12.5996 -15 -32.6982 -23.6992q-20.0996 -8.7002 -47.6982 -8.7002
h-175.192q-55.1982 0 -55.1982 58.7979zM702 707q13 0 26 -5.5t23.5 -15t17 -22t6.5 -25.5q0 -11 -4 -20.5t-12 -20.5l-428 -573q-22 -29 -52 -29q-14 0 -27 6t-23 15.5t-15.5 22t-5.5 25.5q0 9 3.5 19.5t11.5 21.5l429 571q11 14 22.5 22t27.5 8z" />
    <glyph glyph-name="fiveeighths" unicode="&#x215d;" horiz-adv-x="982" 
d="M40 0zM372.585 346.786q0 -134.995 -131.395 -134.995h-143.994q-62.998 0 -62.998 58.7979q0 29.3994 16.5 43.7979q16.499 14.4004 47.0977 14.4004h140.395q32.3984 0 32.3984 23.998q0 24.5996 -32.3984 24.5996h-176.993q-10.7988 0 -17.0986 6.89941
t-6.2998 20.0996v212.392q0 8.99902 6.89941 13.1992q6.89941 4.19922 15.2998 4.19922h250.789q55.1982 0 55.1982 -58.7969q0 -58.7979 -56.3975 -58.7979h-160.194v-42.5986h98.9961q61.7979 0 92.9961 -30.8984q31.1992 -30.8984 31.1992 -96.2959zM471.581 -41.998
q-28.1992 0 -48.2979 8.69922q-20.0996 8.7002 -32.6992 23.999q-12.5996 15.2998 -18.2988 36.2988q-5.7002 20.999 -5.7002 44.998q0 18.5996 5.09961 36.2988q5.10059 17.6992 14.0996 31.498q9 13.7998 21.8994 22.7998q12.8994 8.99902 29.0986 10.7988
q-32.3984 7.2002 -47.6982 34.499q-15.2988 27.2988 -15.2988 63.2979q0 23.3984 5.69922 43.498q5.7002 20.0986 17.0996 34.7979q11.3994 14.7002 28.1992 22.7998q16.7988 8.09961 38.3984 8.09961h150.594q22.1992 0 38.6982 -8.40039q16.499 -8.39941 27.8984 -23.0986
t17.0996 -34.7988q5.7002 -20.0986 5.7002 -42.8975q0 -35.999 -15 -63.2979q-14.999 -27.2988 -47.3984 -34.499q16.2002 -1.7998 29.0996 -10.7988q12.8994 -9 21.8984 -22.7998q9 -13.7988 13.7998 -31.498t4.7998 -36.8984q0 -23.999 -5.7002 -44.6982
q-5.69922 -20.6992 -18.2988 -35.999q-12.5996 -15.2988 -32.3984 -23.999q-19.7998 -8.69922 -47.998 -8.69922h-134.395zM501.58 262.789q-12 0 -17.7002 -7.7998q-5.69922 -7.7998 -5.69922 -17.3994q0 -11.3994 6 -20.3984q5.99902 -9 17.3994 -9h73.7969
q11.3994 0 17.3984 9q6 8.99902 6 20.3984q0 9.59961 -5.39941 17.3994t-17.999 7.7998h-73.7969zM501.58 122.995q-12 0 -17.7002 -7.5q-5.69922 -7.49902 -5.69922 -16.499q0 -8.39941 5.69922 -16.1992q5.7002 -7.7998 17.7002 -7.7998h73.7969q12.5996 0 17.999 7.7998
t5.39941 16.1992q0 9 -5.39941 16.499q-5.39941 7.5 -17.999 7.5h-73.7969zM703 707q13 0 26 -5.5t23.5 -15t17 -22t6.5 -25.5q0 -11 -4 -20.5t-12 -20.5l-428 -573q-22 -29 -52 -29q-14 0 -27 6t-23 15.5t-15.5 22t-5.5 25.5q0 9 3.5 19.5t11.5 21.5l429 571q11 14 22.5 22
t27.5 8z" />
    <glyph glyph-name="seveneighths" unicode="&#x215e;" horiz-adv-x="909" 
d="M39 0zM428.383 -41.998q-28.1992 0 -48.2979 8.69922q-20.0996 8.7002 -32.6992 23.999q-12.5996 15.2998 -18.2988 36.2988q-5.7002 20.999 -5.7002 44.998q0 18.5996 5.09961 36.2988t14.0996 31.498q9 13.7998 21.8994 22.7998q12.8994 8.99902 29.0986 10.7988
q-32.3984 7.2002 -47.6982 34.499q-15.2988 27.2988 -15.2988 63.2979q0 23.3984 5.69922 43.498q5.7002 20.0986 17.0996 34.7979q11.3994 14.7002 28.1982 22.7998q16.7998 8.09961 38.3984 8.09961h150.595q22.1982 0 38.6982 -8.40039q16.499 -8.39941 27.8984 -23.0986
t17.0996 -34.7988q5.69922 -20.0986 5.69922 -42.8975q0 -35.999 -14.999 -63.2979t-47.3975 -34.499q16.1992 -1.7998 29.0986 -10.7988q12.8994 -9 21.8984 -22.7998q9 -13.7988 13.7998 -31.498t4.7998 -36.8984q0 -23.999 -5.7002 -44.6982
q-5.69922 -20.6992 -18.2988 -35.999q-12.5996 -15.2988 -32.3984 -23.999q-19.7998 -8.69922 -47.998 -8.69922h-134.395zM458.381 262.789q-11.999 0 -17.6992 -7.7998q-5.69922 -7.7998 -5.69922 -17.3994q0 -11.3994 6 -20.3984q5.99902 -9 17.3984 -9h73.7979
q11.3994 0 17.3994 9q5.99902 8.99902 5.99902 20.3984q0 9.59961 -5.39941 17.3994q-5.40039 7.7998 -17.999 7.7998h-73.7979zM458.381 122.995q-11.999 0 -17.6992 -7.5q-5.69922 -7.49902 -5.69922 -16.499q0 -8.39941 5.69922 -16.1992q5.7002 -7.7998 17.6992 -7.7998
h73.7979q12.5986 0 17.999 7.7998q5.39941 7.7998 5.39941 16.1992q0 9 -5.39941 16.499q-5.40039 7.5 -17.999 7.5h-73.7979zM172.793 240.59q-10.7998 -17.3984 -24.5986 -24.2988q-13.7998 -6.89941 -26.999 -6.89941q-11.3994 0 -21.8994 4.2002
q-10.499 4.19922 -18.5996 11.6992q-8.09961 7.5 -12.8994 17.3994t-4.7998 21.8984q0 5.40039 2.40039 15q2.39941 9.59961 8.99902 19.1992l142.194 217.791h-129.595q-28.7988 0 -43.7979 17.3994t-14.999 41.3984t14.999 41.3984q14.999 17.3984 43.7979 17.3984
h229.191q23.999 0 39.2979 -13.7988q15.2998 -13.7998 15.2998 -38.999q0 -8.39941 -2.40039 -17.999q-2.39941 -9.59961 -8.39941 -19.1992zM595 707q13 0 26 -5.5t23.5 -15t17 -22t6.5 -25.5q0 -11 -4 -20.5t-12 -20.5l-428 -573q-22 -29 -52 -29q-14 0 -27 6t-23 15.5
t-15.5 22t-5.5 25.5q0 9 3.5 19.5t11.5 21.5l429 571q11 14 22.5 22t27.5 8z" />
    <glyph glyph-name="minus" unicode="&#x2212;" horiz-adv-x="580" 
d="M114 269q-38 0 -59.5 24t-21.5 56q0 34 21.5 59t59.5 25h351q38 0 59.5 -25t21.5 -59q0 -32 -21.5 -56t-59.5 -24h-351z" />
    <glyph glyph-name="approxequal" unicode="&#x2248;" horiz-adv-x="623" 
d="M39 151zM468 317q21 22 40 22q23 0 42 -16.5t19 -42.5q0 -29 -14.5 -51.5t-37 -38.5t-50 -24.5t-54.5 -8.5t-55 9t-54 19.5t-51 19.5t-46 9q-10 0 -17 -2t-14 -6.5t-15.5 -12.5t-20.5 -20q-22 -22 -40 -22q-23 0 -42 16.5t-19 42.5q0 28 14 51t36.5 39t50.5 24.5t55 8.5
t53.5 -9t53 -19.5t51.5 -19.5t48 -9q10 0 17 2t14 6.5t15.5 12.5t20.5 20zM475 556q21 22 40 22q23 0 42 -16.5t19 -42.5q0 -29 -14.5 -51.5t-37 -38.5t-50 -24.5t-54.5 -8.5t-55 9t-54 19.5t-51 19.5t-46 9q-10 0 -17 -2t-14 -6.5t-15.5 -12.5t-20.5 -20q-22 -22 -40 -22
q-23 0 -42 16.5t-19 42.5q0 28 14 51t36.5 39t50.5 24.5t55 8.5t53.5 -9t53 -19.5t51.5 -19.5t48 -9q10 0 17 2t14 6.5t15.5 12.5t20.5 20z" />
    <glyph glyph-name="notequal" unicode="&#x2260;" horiz-adv-x="580" 
d="M287 127l-29 -105q-6 -22 -19.5 -32t-27.5 -10q-25 0 -43.5 14t-18.5 35q0 15 4 22l21 76h-60q-38 0 -59.5 24.5t-21.5 56.5q0 34 21.5 59t59.5 25h107l34 118h-141q-38 0 -59.5 24t-21.5 56q0 34 21.5 59t59.5 25h187l30 106q14 38 49 38q21 0 40 -13t19 -37
q0 -5 -1 -8.5t-2 -8.5l-22 -77h51q38 0 59.5 -25t21.5 -59q0 -32 -21.5 -56t-59.5 -24h-97l-34 -118h131q38 0 59.5 -25t21.5 -59q0 -32 -21.5 -56.5t-59.5 -24.5h-178z" />
    <glyph glyph-name="lessequal" unicode="&#x2264;" horiz-adv-x="499" 
d="M0 0zM380 216q12 -12 16.5 -25t4.5 -26q0 -30 -21.5 -51t-50.5 -21q-30 0 -51 21l-186 187q-13 13 -18 25t-5 26t5 25.5t18 24.5l186 187q23 23 51 23q15 0 28 -6t22.5 -16.5t15.5 -23.5t6 -27q0 -30 -21 -51l-137 -136zM75 -150q-38 0 -59.5 24t-21.5 56q0 34 21.5 59
t59.5 25h351q38 0 59.5 -25t21.5 -59q0 -32 -21.5 -56t-59.5 -24h-351z" />
    <glyph glyph-name="greaterequal" unicode="&#x2265;" horiz-adv-x="499" 
d="M0 0zM261 352l-137 136q-20 20 -20 51q0 14 5.5 27t15.5 23.5t22.5 16.5t27.5 6t27 -6t23 -17l188 -187q23 -23 23 -50q0 -28 -23 -51l-188 -187q-21 -21 -47 -21q-30 0 -52 20t-22 52q0 31 20 51zM75 -150q-38 0 -59.5 24t-21.5 56q0 34 21.5 59t59.5 25h351
q38 0 59.5 -25t21.5 -59q0 -32 -21.5 -56t-59.5 -24h-351z" />
    <glyph glyph-name="nonmarkingreturn" horiz-adv-x="234" 
 />
    <glyph glyph-name=".null" horiz-adv-x="0" 
 />
    <glyph glyph-name=".ttfautohint" horiz-adv-x="0" 
d="M0 0z" />
    </font>
</defs>
</svg>
